<svg width="208" height="410" viewBox="0 0 208 410" fill="none" xmlns="http://www.w3.org/2000/svg">
<path opacity="0.2" d="M24.5145 369.446C24.5145 369.446 10.3473 371.626 15.7962 378.71C21.2451 385.793 36.5021 385.793 36.5021 385.793C36.5021 385.793 35.9572 399.96 47.3999 406.499C58.8425 413.038 68.624 398.48 68.624 398.48L71.375 393.422C71.375 393.422 180.899 403.775 187.982 390.152C195.066 376.53 169.456 365.087 169.456 365.087L141.121 346.016L24.5145 369.446Z" fill="#1A1A1A"/>
<path d="M135.968 216.251C135.968 216.251 139.272 217.667 140.688 222.387C142.104 227.107 134.08 229.467 134.08 229.467L130.572 224.018L135.968 216.251Z" fill="#1A1A1A"/>
<path d="M110.208 197.794C110.208 197.794 108.94 204.426 105.79 205.429C105.79 205.429 103.218 213.277 102.874 218.902C102.531 224.527 103.047 245.981 103.426 245.772C103.804 245.563 115.407 233.949 117.801 233.365C120.195 232.78 126.117 230.983 129.857 227.923C133.598 224.863 139.744 225.689 139.744 225.689C139.744 225.689 135.024 219.081 137.688 211.728C140.083 205.119 140.851 201.824 140.851 201.824L110.208 197.794Z" fill="#E9946B"/>
<path d="M109.37 200.739C109.363 200.758 109.357 200.776 109.35 200.795C109.286 200.968 109.218 201.144 109.147 201.321C109.143 201.33 109.14 201.338 109.136 201.347C108.985 201.718 108.818 202.092 108.632 202.458C108.632 202.459 108.631 202.46 108.63 202.462C108.253 203.204 107.803 203.905 107.274 204.453C107.166 207.754 107.618 217.538 116.262 222.117C124.497 226.479 133.569 221.278 137.07 218.837C136.728 216.718 136.769 214.271 137.688 211.734L109.549 200.229C109.493 200.395 109.433 200.566 109.37 200.739Z" fill="#BC5E3C"/>
<path d="M107.842 200.521C107.842 200.521 100.801 193.502 101.442 177.133C102.082 160.763 106.585 154.873 106.585 154.873C106.585 154.873 100.351 160.266 105.682 151.49C111.014 142.715 118.07 138.807 124.175 137.125C124.175 137.125 120.547 136.708 121.621 135.142C122.696 133.577 126.075 134.86 126.075 134.86C126.075 134.86 122.204 130.937 126.127 127.066C130.048 123.197 128.758 133.126 128.757 133.131C128.919 131.889 132.752 129.885 133.649 129.36C137.729 126.973 142.442 125.79 147.169 126.108C150.94 126.363 156.026 127.403 158.793 130.169C159.992 131.368 160.666 133.263 159.954 134.802C167.602 141.016 174.458 148.765 177.27 158.208C178.054 160.844 178.487 163.788 177.3 166.269C177.05 166.791 176.727 167.299 176.668 167.874C176.621 168.324 176.741 168.773 176.852 169.212C177.721 172.666 178.417 176.455 177.873 179.999C176.911 186.274 173.294 192.142 168.86 196.589C166.55 198.905 164 200.975 161.311 202.834C156.991 205.821 152.313 208.269 147.496 210.347C111.849 225.72 107.842 200.521 107.842 200.521Z" fill="#4A3333"/>
<path d="M114.019 162.161C114.019 162.161 102.085 190.123 107.718 202.047C113.351 213.971 118.879 218.207 132.416 217.729C146.457 217.232 151.811 206.746 155.78 199.453C159.748 192.16 165.823 167.201 165.823 167.201L125.03 146.115L114.019 162.161Z" fill="#EC896B"/>
<path d="M150.871 187.373C150.17 186.027 148.444 185.464 147.089 186.114C146.889 186.21 146.725 186.334 146.595 186.477C146.216 186.742 145.911 187.111 145.718 187.551C145.627 187.76 145.568 187.979 145.533 188.203C145.353 189.106 145.631 190.12 146.26 190.773C147.225 191.777 148.895 191.914 150.013 191.093C151.162 190.25 151.535 188.647 150.871 187.373ZM129.379 180.037C127.371 177.318 123.911 175.228 120.821 176.483C119.485 177.026 119.549 178.672 120.687 178.508C123.241 178.141 126.441 178.485 127.981 180.603C128.875 181.831 130.292 181.274 129.379 180.037Z" fill="#1A1A1A"/>
<path opacity="0.5" d="M133.002 193.023C131.924 192.692 130.808 192.544 129.68 192.562C128.264 192.584 128.234 194.718 129.656 194.767C130.585 194.799 131.477 194.968 132.365 195.241C133.786 195.677 134.422 193.459 133.002 193.023Z" fill="#D86552"/>
<path d="M121.416 195.674L136.291 203.694C136.291 203.694 131.073 207.707 127.38 206.444C121.693 204.499 121.416 195.674 121.416 195.674Z" fill="white"/>
<path d="M111.987 170.323C111.987 170.323 117.887 168.269 120.575 162.17C120.429 163.888 119.958 165.783 119.189 167.327C118.646 168.417 117.959 169.433 117.447 170.538C117.365 170.714 117.287 170.91 117.337 171.097C117.469 171.593 118.208 171.476 118.658 171.23C122.066 169.365 124.835 166.356 126.41 162.804C127.136 161.167 127.611 159.431 128.083 157.703C128.382 156.609 128.681 155.516 128.98 154.422C129.322 154.414 129.662 154.596 129.846 154.884C131.082 156.82 131.567 158.798 132.845 160.707C133.403 161.541 134.054 162.386 134.988 162.752C135.922 163.117 137.196 162.785 137.517 161.834C140.172 166.958 143.353 171.81 146.994 176.288C148.406 178.025 150.041 179.801 152.227 180.281C152.794 180.405 153.408 180.447 153.878 180.788C154.329 181.115 154.561 181.657 154.787 182.166C155.979 184.85 157.571 187.355 159.493 189.575C159.601 189.7 159.723 189.832 159.887 189.855C160.12 189.888 160.315 189.691 160.468 189.511C163.087 186.422 165.707 183.333 168.326 180.244C168.867 179.607 169.419 178.95 169.7 178.163C169.934 177.507 169.967 176.799 169.974 176.102C170.019 172.061 169.303 168.027 168.029 164.191C167.321 162.058 166.429 159.959 165.077 158.164C163.724 156.367 161.956 154.932 160.183 153.548C155.699 150.049 150.963 146.702 145.558 144.933C140.615 143.314 135.34 143.088 130.142 142.876C128.232 142.798 126.28 142.725 124.448 143.271C121.868 144.04 119.792 145.955 118.042 148.001C113.939 152.799 111.092 158.66 109.857 164.851C109.619 166.04 109.443 167.289 109.792 168.45C110.14 169.61 110.775 170.311 111.987 170.323Z" fill="#4A3333"/>
<path d="M112.441 169.829C112.441 169.829 104.408 164.086 101.551 172.948C98.6935 181.809 101.447 188.534 107.301 189.903C113.154 191.272 114.814 183.316 114.814 183.316L112.441 169.829Z" fill="#EC896B"/>
<path opacity="0.5" d="M109.264 174.38L107.68 182.843C107.68 182.843 105.498 179.229 106.023 177.403C106.548 175.577 109.264 174.38 109.264 174.38Z" fill="#E07158"/>
<path d="M158.996 188.61C158.996 188.61 168.519 188.025 166.316 196.747C164.113 205.47 158.41 209.566 152.914 207.686C147.418 205.806 150.138 198.439 150.138 198.439L158.996 188.61Z" fill="#EC896B"/>
<path opacity="0.5" d="M158.707 193.989L155.037 201.46C155.037 201.46 158.817 199.923 159.468 198.205C160.118 196.488 158.707 193.989 158.707 193.989Z" fill="#E07158"/>
<path d="M131.869 168.557C128.29 168.129 124.698 168.895 121.558 170.655C120.046 171.502 120.602 173.19 122.163 172.353C124.946 170.862 128.413 171.097 131.555 171.355C133.354 171.502 133.676 168.773 131.869 168.557ZM146.075 173.886C149.336 175.423 151.974 177.977 153.702 181.135C154.534 182.656 153.167 183.792 152.288 182.254C150.721 179.513 147.657 177.873 144.857 176.424C143.254 175.595 144.428 173.11 146.075 173.886Z" fill="#4A3333"/>
<path d="M146.825 292.717C146.825 293.19 145.409 303.101 144.465 306.405C143.521 309.709 131.721 332.837 131.721 332.837L110.803 326.876L109.537 295.078L126.529 281.39L146.825 292.717Z" fill="#E07158"/>
<path d="M46.2899 310.654C46.2899 310.654 42.9859 320.094 45.346 322.454C47.7059 324.814 113.313 331.894 113.313 331.894L115.201 304.99L46.2899 310.654Z" fill="#E07158"/>
<path d="M82.6332 327.643C82.6332 327.643 29.77 307.347 26.938 301.683C24.1061 296.02 45.8178 264.396 47.2338 260.148C48.6497 255.9 68.0016 218.141 70.3615 214.365C72.7213 210.589 68.0016 202.565 67.5295 198.789C67.0574 195.013 75.0815 182.269 82.6334 176.133C87.1753 172.443 93.5216 172.363 98.9737 173.639C100.224 173.932 101.729 174.021 102.044 175.451C102.498 177.514 103.034 179.559 103.651 181.578C104.129 183.145 104.585 184.588 105.3 186.048C106.098 187.68 106.704 189.407 107.098 191.181C107.216 191.715 107.321 192.266 107.606 192.733C108.074 193.499 108.938 193.907 109.679 194.413C111.922 195.946 113.23 198.748 112.965 201.452C112.934 201.774 112.885 202.117 113.03 202.407C113.123 202.593 113.286 202.733 113.444 202.87C115.122 204.316 116.429 205.986 117.951 207.551C119.541 209.187 120.898 211.048 121.966 213.064C122.439 213.957 122.866 214.951 122.705 215.948C122.594 216.632 122.216 217.242 121.796 217.794C121.672 217.958 121.537 218.133 121.525 218.338C121.492 218.9 121.995 219.54 122.139 220.078C122.24 220.458 122.255 220.845 122.327 221.229C122.552 222.418 122.766 223.319 121.809 224.277C120.865 225.221 119.449 232.773 119.449 232.773C119.449 232.773 124.169 224.749 126.529 224.277C128.889 223.805 132.665 224.277 132.665 224.277C132.665 224.277 137.856 222.861 138.801 221.445C139.745 220.029 137.385 217.197 137.385 217.197C137.385 217.197 142.105 220.973 143.049 225.221C143.992 229.469 143.521 232.301 143.521 232.301C143.521 232.301 157.209 234.661 159.096 244.572C160.984 254.484 159.096 249.764 158.152 262.508C157.209 275.252 158.152 292.243 154.848 294.132C151.544 296.02 137.621 296.256 133.373 291.536C133.373 291.536 128.653 295.311 128.181 297.671C127.709 300.031 131.013 304.279 129.597 307.111C128.181 309.943 122.989 322.215 122.989 322.215L92.3093 334.015L82.6332 327.643Z" fill="#E84551"/>
<path d="M118.976 217.669C116.346 217.861 113.96 217.707 111.642 218.991C110.023 219.888 108.744 221.193 107.377 222.384C107.652 221.257 108.09 220.116 108.368 219.229C108.971 217.304 109.677 215.411 110.494 213.566C111.683 210.88 112.958 207.016 112.84 203.981C112.779 202.394 111.888 201.435 111.896 203.037C111.908 205.197 109.604 209.162 108.688 211.033C107.949 212.545 107.288 214.1 106.686 215.671C105.545 218.648 103.83 222.428 104.484 225.656C104.666 226.553 105.811 226.932 106.549 226.496C108.506 225.341 109.889 223.557 111.729 222.258C113.911 220.716 116.454 219.877 119.109 219.684C120.909 219.553 120.79 217.536 118.976 217.669ZM143.048 233.244C142.876 233.753 139.654 239.68 139.076 239.625C139.012 239.619 137.914 234.855 137.822 234.579C136.796 231.472 135.094 228.792 133.136 226.165C132.192 224.897 130.854 225.214 131.72 226.637C133.237 229.13 134.116 232.137 135.044 234.918C135.704 236.893 135.69 239.759 136.867 241.466C139.867 245.816 143.263 238.094 143.815 235.867C144.242 234.142 143.609 231.578 143.048 233.244ZM121.276 242.479C118.959 247.335 116.767 252.257 114.759 257.252C113.352 255.824 111.679 254.739 109.859 253.923C110.213 253.318 110.566 252.727 110.876 252.163C111.896 250.306 112.958 248.473 113.998 246.627C116.042 243 117.935 239.303 119.412 235.406C119.786 234.418 118.224 234.014 117.841 234.973C115.402 241.076 111.788 246.585 108.655 252.336C107.896 253.731 105.44 256.943 106.02 258.606C106.316 259.456 107.6 260.067 108.261 260.525C109.707 261.525 111.152 262.526 112.598 263.527C112.894 264.064 113.916 264.133 114.215 263.362C116.837 256.583 119.577 249.866 122.606 243.257C123.015 242.365 121.705 241.579 121.276 242.479ZM113.07 261.585C111.384 260.481 109.339 259.386 107.924 257.974C108.174 257.109 108.578 256.242 109.031 255.392C110.763 256.225 112.283 257.326 113.678 258.662C113.814 258.791 113.96 258.862 114.106 258.894C113.755 259.789 113.408 260.686 113.07 261.585Z" fill="#722C31"/>
<path opacity="0.5" d="M106.621 207.6C102.356 212.418 97.1958 216.327 91.5526 219.4C88.4269 221.102 85.2168 222.302 81.6014 222.132C77.951 221.96 72.4686 220.705 72.5021 216.104C72.5102 214.993 70.7939 214.993 70.7764 216.104C70.65 224.147 82.4722 224.783 87.9263 222.864C95.4327 220.223 102.506 214.598 107.648 208.627C108.254 207.924 107.244 206.896 106.621 207.6ZM156.539 256.385C153.505 260.212 150.055 263.529 146.629 266.987C145.938 267.685 146.947 268.606 147.677 268.035C151.527 265.026 154.777 261.172 157.738 257.31C158.26 256.629 157.077 255.705 156.539 256.385Z" fill="#722C31"/>
<path d="M152.38 288.525C149.691 288.682 146.987 288.843 144.297 288.595C141.592 288.346 139.3 287.44 136.786 286.488C136.655 286.438 136.539 286.43 136.436 286.448C136.573 285.231 136.622 284.067 136.676 283.164C136.737 282.158 136.655 280.996 136.96 280.032C137.354 278.79 138.301 277.996 139.219 277.128C141.194 275.262 143.148 273.377 145.097 271.483C146.209 270.402 144.551 268.782 143.407 269.794C141.369 271.596 139.335 273.401 137.327 275.236C135.918 276.523 134.662 277.716 134.22 279.637C133.797 281.476 133.902 283.437 133.699 285.306C133.574 286.454 133.386 287.616 133.011 288.714C132.637 289.809 131.889 290.647 131.688 291.787C131.516 292.761 132.394 293.41 133.281 293.011C135.067 292.207 135.862 290.022 136.25 287.763C140.61 291.097 147.271 290.449 152.38 290.089C153.376 290.019 153.39 288.467 152.38 288.525ZM101.985 182.741C98.9181 188.391 93.7615 192.876 88.6493 196.747C86.2631 198.553 83.7325 200.169 81.122 201.631C78.2873 203.219 73.5454 206.636 70.3457 204.802C69.5401 204.34 68.8614 205.531 69.6237 206.037C72.5125 207.956 75.5914 206.359 78.3592 204.993C81.7759 203.306 85.0944 201.409 88.2073 199.207C94.128 195.02 99.2163 189.748 102.689 183.351C103.223 182.366 102.52 181.755 101.985 182.741Z" fill="#722C31"/>
<path d="M123.01 391.355C123.01 391.355 129.391 393.319 132.827 392.337C136.262 391.355 140.189 389.392 146.079 388.41C151.969 387.429 150.497 363.378 150.497 363.378L133.318 357.979L115.648 364.36L123.01 391.355Z" fill="#EC896B"/>
<path d="M182.399 351.108C182.399 351.108 195.651 350.617 200.069 363.378C204.486 376.14 195.537 383.352 182.833 385.636C170.128 387.919 160.803 355.034 160.803 355.034L182.399 351.108Z" fill="#F2F2F2"/>
<path d="M132.826 367.796C132.826 367.796 143.133 370.741 143.133 371.723C143.133 372.704 139.207 375.158 138.716 378.594C138.225 382.03 142.152 391.846 144.606 393.809C147.06 395.773 155.404 391.355 166.693 389.883C177.982 388.41 192.215 384.484 193.688 374.176C195.16 363.869 182.89 357.488 172.582 356.998C162.275 356.507 132.826 367.796 132.826 367.796Z" fill="#FFFBF9"/>
<path d="M178.116 383.983C174.74 378.456 171.269 372.93 171.238 366.233C171.234 365.296 170.327 364.615 169.425 364.852C163.002 366.547 156.489 367.838 149.9 368.689C148.346 368.89 147.423 370.427 149.024 370.25C155.264 369.561 161.561 369.698 167.675 368.287C168.067 373.81 171.343 378.571 174.235 383.264C170.95 383.964 167.833 385.173 164.95 386.944C163.504 387.832 162.746 390.2 164.239 389.392C167.263 387.755 172.443 386.387 175.787 385.665C176.874 386.849 179.043 385.5 178.116 383.983Z" fill="#E6E0DD"/>
<path d="M0.647295 331.579C0.647295 331.579 -1.21542 343.375 8.67329 360.512C18.562 377.649 30.2517 379.14 43.4975 377.612C56.7434 376.083 54.3316 363.265 54.3316 363.265L40.4791 337.31L0.647295 331.579Z" fill="#593D3D"/>
<path d="M78.3452 386.447C78.3452 386.447 74.4186 387.919 73.9278 390.864C73.437 393.809 71.9645 400.681 69.0196 403.625C66.0747 406.57 50.8594 376.63 50.8594 376.63L76.3821 380.066L78.3452 386.447Z" fill="#92503D"/>
<path d="M38.8336 374.913C38.8336 374.913 36.3795 376.876 40.3062 386.692C44.2328 396.509 55.0307 409.27 59.9389 409.761C64.8471 410.252 69.2645 404.853 69.7553 402.889C70.2461 400.926 61.4112 379.821 50.1225 373.931C38.8336 368.041 38.8336 374.913 38.8336 374.913Z" fill="#F2F2F2"/>
<path d="M54.5396 392.091C50.6449 386.033 40.6514 377.69 38.339 375.799C37.9054 377.114 37.6958 380.167 40.3058 386.692C44.2325 396.509 55.0304 409.27 59.9386 409.761C60.4294 408.288 58.957 398.963 54.5396 392.091Z" fill="#1A1A1A"/>
<path d="M94.5421 329.021C95.0328 329.021 126.936 314.787 134.298 313.805C141.661 312.824 143.133 311.351 146.569 311.842C150.004 312.333 183.38 296.627 194.178 300.062C204.976 303.498 211.357 326.567 205.467 338.837C199.578 351.108 156.876 367.305 124.973 369.268C124.973 369.268 131.354 377.121 129.39 385.956C127.427 394.791 126.446 400.19 124.973 401.171C123.5 402.153 120.065 399.208 116.629 398.717C113.193 398.227 97.4872 396.263 72.4552 384.483C72.4552 384.483 44.4784 377.121 38.0979 373.686C31.7171 370.25 10.121 359.452 3.74051 347.181C-2.64024 334.911 0.30488 324.113 8.64871 315.769C16.9928 307.425 38.5889 312.824 52.3317 317.732C66.0745 322.64 94.5421 329.021 94.5421 329.021Z" fill="#6C4E4E"/>
<path d="M177.981 307.916C171.456 311.345 163.859 314.353 156.96 316.922C157.644 316.543 158.34 316.18 159.027 315.811L167.674 310.37C169.086 309.612 168.107 308.646 166.692 309.388C163.21 311.216 159.594 312.574 156.124 314.425C153.736 315.698 151.488 317.104 150.019 319.385C144.609 321.243 139.178 323.044 133.849 325.128C126.19 328.122 118.914 331.898 111.624 335.679C103.92 339.673 96.2144 343.666 88.5124 347.664C88.1899 347.832 87.9742 348.054 87.8325 348.299C86.1181 347.443 84.4062 346.583 82.698 345.716C79.3319 344.006 75.8542 342.396 72.6479 340.396C69.5465 338.462 67.3852 335.367 64.0502 333.789C62.6741 333.138 61.232 332.682 59.7346 332.41C57.8987 332.078 55.7339 332.332 54.2547 331.063C51.7462 328.91 49.594 326.434 46.9561 324.396C40.9227 319.732 34.1024 317.404 26.8085 315.279C25.1733 314.802 24.5482 316.514 26.1684 317.011C34.4298 319.542 42.2206 324.244 48.486 330.173C49.8889 331.501 51.1138 333.194 52.6749 334.329C54.3957 335.579 56.359 335.485 58.3673 335.84C60.7476 336.26 63.0253 337.123 64.8752 338.711C66.5119 340.115 67.9311 341.677 69.7146 342.917C73.6641 345.663 78.2468 347.644 82.5265 349.814C87.1006 352.133 91.6956 354.412 96.3111 356.648C105.016 360.866 114.836 364.09 123.009 369.269C124.705 370.343 125.518 368.369 124.273 366.975C121.976 364.403 118.571 362.942 115.496 361.523C111.899 359.862 108.3 358.204 104.719 356.507C100.28 354.403 95.8587 352.263 91.4531 350.091C98.7652 346.294 106.075 342.493 113.385 338.693C120.916 334.78 128.419 330.857 136.351 327.805C143.541 325.038 150.894 322.723 158.111 320.03C165.079 317.43 172.259 314.593 178.324 310.211C179.728 309.195 179.565 307.084 177.981 307.916Z" fill="#4A3333"/>
<path opacity="0.5" d="M101.434 327.949C100.568 326.531 99.4149 327.17 100.257 328.613C101.181 330.197 101.997 332.06 100.777 333.818C100.005 334.933 98.0658 336.27 96.7677 336.672C96.6181 333.93 96.0452 331.153 94.595 329.29C93.6398 328.063 92.0113 328.925 92.9694 330.175C94.9684 332.782 94.1128 338.811 93.7835 341.896C93.5901 343.708 96.4462 343.706 96.626 341.896C96.6996 341.157 96.7586 340.344 96.7896 339.492C99.1696 338.95 101.702 337.546 102.801 335.336C104.069 332.784 102.783 330.156 101.434 327.949Z" fill="#4A3333"/>
<path d="M79.0762 178.187C79.0762 178.187 64.9049 195.291 67.8369 199.688C70.769 204.086 79.5581 196.153 79.5581 196.153L83.4742 181.119L79.0762 178.187Z" fill="#1A1A1A"/>
<path d="M97.6443 73.1239C97.6443 73.1239 96.1784 94.1365 97.1558 103.91C98.1331 113.683 100.576 123.945 100.088 129.809C99.5993 135.673 100.577 141.537 101.065 144.958C101.554 148.378 103.02 173.3 101.554 176.232C100.088 179.164 95.6899 184.54 77.6094 197.734C77.6094 197.734 76.632 177.698 77.1206 164.504C77.6094 151.31 80.0526 142.514 79.0753 138.605C78.0979 134.696 75.6546 123.456 76.1432 110.262C76.632 97.0684 80.0524 74.5896 79.5638 70.6804C79.075 66.771 73.8628 51.4597 75.9803 49.0976C78.0979 46.7358 81.5185 48.6905 81.5185 48.6905L88.8486 45.2699C88.8486 45.2699 87.8713 41.3607 90.8033 40.8719C93.7354 40.3833 94.224 41.3607 95.2013 43.8039C96.1787 46.2472 101.635 65.3053 101.635 65.3053L103.02 69.7033L97.6443 73.1239Z" fill="#EC896B"/>
<path d="M146.987 37.0645C147.368 37.214 156.056 43.8575 156.056 46.4127C156.056 48.9679 140.214 55.6114 140.214 55.6114L132.037 46.9236L146.987 37.0645ZM49.7599 61.233C49.7599 60.722 46.6938 53.0564 48.7378 51.5234C50.782 49.9903 70.2015 54.0786 71.2236 56.1228C72.2458 58.1668 52.8263 66.8546 52.8263 66.8546L49.7599 61.233Z" fill="#B0B0B0"/>
<path d="M105.208 0.674714C105.208 0.674714 77.6119 10.8955 80.1671 16.0059C82.7223 21.1163 114.918 49.7345 123.094 51.7787C131.271 53.8228 149.669 41.5579 149.669 39.0027C149.668 36.4475 112.362 -1.88049 105.208 0.674714Z" fill="#FCFCFC"/>
<path d="M105.719 3.74115C105.719 3.74115 84.105 11.7472 80.9082 17.1307C86.3935 24.3616 115.394 49.8536 123.094 51.7788C130.37 53.5977 145.727 44.092 149.026 40.174C142.694 31.9325 112.125 1.45335 105.719 3.74115Z" fill="#B0B0B0"/>
<path d="M141.747 50.501C141.747 50.501 58.9586 82.6965 50.782 78.097C42.6055 73.4976 46.6937 69.9205 46.6937 69.9205C46.6937 69.9205 39.0281 65.8322 42.6055 62.7658C46.1828 59.6994 63.558 59.1885 63.558 59.1885C63.558 59.1885 126.416 25.4599 133.57 23.9269C140.725 22.3938 142.258 25.9711 142.258 25.9711C142.258 25.9711 146.857 22.9047 149.923 25.9711C152.99 29.0375 155.034 34.6588 153.501 37.725C152.479 39.7693 149.413 41.3023 149.413 41.3023C149.413 41.3023 151.968 46.4127 141.747 50.501Z" fill="#FCFCFC"/>
<path d="M73.4246 61.4938C73.2158 59.6842 70.7371 59.317 69.3425 59.0993C63.8688 58.2451 57.8442 59.3425 52.3904 59.9735C49.7848 60.2749 40.9327 60.2567 41.4729 64.4817C41.6264 65.6829 42.8033 66.2342 43.1169 64.8101C43.417 63.4473 48.2224 63.25 49.2214 63.1314C51.0814 62.9108 52.9495 62.7435 54.8142 62.5659C58.6457 62.2011 62.513 61.8604 66.3657 61.9219C66.976 61.9317 67.6365 62.0522 68.2756 62.1241C68.6689 62.7661 65.9602 63.7437 64.5804 64.2992C60.9822 65.7481 54.9148 67.5095 51.2935 68.8987C49.6293 69.537 50.0797 71.045 51.8047 70.4317C57.3284 68.4677 64.7839 66.9826 70.1531 64.6261C71.4256 64.0677 73.6303 63.2758 73.4246 61.4938ZM146.172 40.401C144.025 39.3368 142.541 37.039 141.562 34.9064C141.059 33.8119 140.684 32.6356 140.466 31.4503C140.169 29.8363 140.334 29.0612 141.775 28.1281C143.342 27.1134 141.957 24.705 140.306 25.615C133.609 29.3059 139.99 40.3595 145.405 42.218C146.462 42.5808 147.183 40.9026 146.172 40.401ZM166.124 40.3964C164.638 38.9391 162.939 37.7275 161.317 36.4321C159.599 35.0596 158.008 33.5462 156.339 32.117C156.45 32.0587 156.558 31.9871 156.663 31.8988C157.567 31.1386 157.929 29.7168 157.582 28.5989C157.225 27.4462 156.114 26.6745 154.957 26.4851C154.817 26.4619 154.678 26.4573 154.541 26.4627C154.031 26.3067 153.441 26.3859 153.081 26.7434C152.613 26.4337 152.12 26.2282 151.626 26.1608C151.615 25.8573 151.517 25.5451 151.292 25.2573C149.834 23.3901 148.245 21.6394 147.017 19.6013C146.09 18.0633 145.43 16.3678 144.349 14.9248C143.284 13.5029 140.467 11.0227 138.726 12.911C136.988 14.7956 139.502 18.5002 140.646 19.9816C142.87 22.8627 145.96 24.8548 148.815 27.0523C148.645 27.2514 148.491 27.4841 148.361 27.7601C147.255 30.1079 148.654 33.0966 150.435 34.7022C151.624 35.774 153.654 36.0606 154.831 35.2055C156.952 38.265 159.125 41.3823 161.855 43.9311C163.285 45.2657 166.7 48.8629 168.803 46.9914C170.948 45.0822 167.419 41.6667 166.124 40.3964Z" fill="#B0B0B0"/>
<path d="M116.161 21.0792C115.216 17.8019 114.153 14.5611 113.04 11.3378C112.471 9.69182 109.866 10.3762 110.406 12.0637C111.396 15.1555 112.318 18.2662 113.197 21.3908C114.063 24.4685 114.574 27.8272 115.78 30.7802C116.301 32.0557 118.581 32.0867 118.438 30.4203C118.169 27.271 117.034 24.1074 116.161 21.0792ZM100.829 28.745C99.8847 25.4678 98.8218 22.227 97.7086 19.0037C97.1403 17.3577 94.5352 18.042 95.0752 19.7296C96.0643 22.8213 96.9868 25.932 97.866 29.0569C98.732 32.1346 99.2424 35.493 100.449 38.4463C100.97 39.7218 103.25 39.7528 103.107 38.0864C102.837 34.9366 101.702 31.773 100.829 28.745Z" fill="#FCFCFC"/>
<path d="M119.517 29.2929C119.517 29.2929 91.9205 39.5137 94.4757 44.6241C97.0309 49.7345 133.315 82.441 141.491 84.4852C149.668 86.5295 168.065 74.2644 168.065 71.7092C168.065 69.154 126.671 26.7377 119.517 29.2929Z" fill="#B0B0B0"/>
<path d="M120.028 32.3592C120.028 32.3592 98.4136 40.3653 95.2168 45.7487C100.702 52.9797 133.791 82.5599 141.491 84.4851C148.767 86.3041 164.124 76.7984 167.422 72.8803C161.091 64.6388 126.433 30.0714 120.028 32.3592Z" fill="#FCFCFC"/>
<path d="M110.063 60.2109L101.376 52.0343C99.6274 50.3856 94.9596 46.5623 97.1662 43.6755C97.9067 42.7067 96.2766 41.4541 95.4732 42.3692C93.025 45.1569 94.3064 48.1345 96.6284 50.5546C100.316 54.3984 104.668 57.5634 108.53 61.233C109.91 62.5444 111.451 61.5198 110.063 60.2109Z" fill="#B0B0B0"/>
<path d="M89.4369 45.3751C88.8556 43.751 86.6603 42.8148 84.915 43.2799C83.3524 43.6962 82.1256 45.1542 81.9821 46.7648C81.976 46.8337 81.9679 46.9106 81.9152 46.9554C81.8673 46.996 81.7984 46.9963 81.7357 46.9943C80.5403 46.9547 79.2931 46.7741 78.1861 47.2268C77.6963 47.427 77.2626 47.7421 76.8521 48.0757C76.2614 48.5554 75.7205 49.1426 75.6056 49.9259C75.4905 50.7116 76.026 51.4612 76.5842 51.9844C77.6368 52.9706 79.3123 53.4486 80.7145 53.0589C81.9123 52.7261 82.7342 51.704 83.1489 50.5736C83.3056 50.1465 83.2847 49.2329 83.7551 49.1146C84.0038 49.0521 84.4446 49.3077 84.682 49.3687C85.0877 49.473 85.5046 49.5333 85.9231 49.5473C87.5312 49.6019 88.8182 48.7593 89.3887 47.2432C89.6455 46.5599 89.6347 45.9276 89.4369 45.3751ZM99.5994 69.7033C100.028 69.4694 95.69 66.2827 98.1335 62.3732C100.577 58.4638 102.043 61.3959 104.486 64.8165C106.93 68.2371 106.93 69.2145 104.486 71.1692C102.043 73.1239 97.645 74.1013 94.2243 78.9878C90.8035 83.8746 94.2241 72.6351 99.5994 69.7033Z" fill="#EC896B"/>
<path d="M99.3822 68.6359C98.9562 67.9068 98.8029 67.1563 98.5822 66.3504C98.2098 64.989 97.1695 64.8702 97.1562 66.2827C97.1456 67.4214 96.5928 68.9653 97.1867 69.9193C98.0492 71.3048 100.212 70.0559 99.3822 68.6359Z" fill="#E07158"/>
<path opacity="0.5" d="M94.7453 135.045C91.3992 133.155 87.2029 137.241 85.1889 139.574C84.1508 140.776 85.3412 141.276 86.4056 140.071C88.2656 137.966 91.3089 137.01 94.2452 136.891C95.1977 136.852 95.6314 135.545 94.7453 135.045Z" fill="#E07158"/>
</svg>
