<svg width="169" height="369" viewBox="0 0 169 369" fill="none" xmlns="http://www.w3.org/2000/svg">
<path d="M168.998 366.192C169 362.839 91.9227 362.929 55.973 362.929C20.0235 362.929 1.25749 362.711 1.69599 365.71C1.97249 367.601 20.9977 368.046 56.9472 368.046C92.8967 368.046 168.996 368.328 168.998 366.192Z" fill="#827893"/>
<path d="M65.6438 308.574C65.6438 308.574 68.1098 339.4 66.0548 345.977C63.9998 352.553 61.9445 361.596 63.9998 362.418C66.0548 363.24 108.39 363.651 110.034 362.418C111.678 361.185 87.8387 351.32 85.3727 345.566C82.9067 339.812 85.3727 312.684 85.3727 312.684L65.6438 308.574Z" fill="#E8886F"/>
<path d="M62.1499 364.267C64.2049 365.5 111.061 366.322 111.883 365.089C112.463 364.221 111.908 362.281 111.324 360.962C111.077 360.403 110.823 359.955 110.65 359.746C106.54 354.813 95.8532 353.991 90.5102 347.826C88.7182 345.759 87.3537 342.927 86.6137 341.184C86.2067 340.231 85.2119 339.667 84.1844 339.811C81.7799 340.148 78.5247 340.083 77.3574 341.25C75.7134 342.894 75.0312 349.594 72.8362 349.881C68.1094 350.498 66.4654 345.977 65.6434 346.388C65.1462 346.634 63.2224 352.664 62.2319 357.67C61.5867 360.942 61.3359 363.778 62.1499 364.267Z" fill="#6C4E4E"/>
<path d="M62.1499 364.267C64.2049 365.5 111.061 366.322 111.883 365.089C112.463 364.221 111.908 362.281 111.324 360.962C109.314 360.987 80.1524 361.361 77.7687 360.568C75.6314 359.852 66.0712 357.904 62.2322 357.67C61.5867 360.942 61.3359 363.778 62.1499 364.267Z" fill="#EFE4DA"/>
<path d="M39.4012 350.062L39.0269 340.69L40.1607 308.986L21.2539 313.508C21.2539 313.508 23.7199 345.156 22.0759 350.088C20.4319 355.02 39.4012 350.062 39.4012 350.062Z" fill="#E8886F"/>
<path d="M9.33416 364.062C10.1562 365.706 38.5164 366.528 40.1604 364.884C40.8017 364.243 40.6907 361.465 40.3209 358.325C39.7372 353.421 39.3384 347.622 39.3384 347.622C37.6944 347.211 36.8724 350.91 35.6392 350.499C34.4062 350.088 31.1179 343.511 29.8849 342.278C28.6519 341.045 24.5417 341.456 22.0757 341.456C19.6097 341.456 17.5544 349.677 16.7324 351.321C15.9104 352.965 11.8002 355.431 10.9782 356.664C10.5672 357.281 9.95465 358.711 9.54365 360.195C9.12865 361.687 8.92316 363.236 9.33416 364.062Z" fill="#6C4E4E"/>
<path d="M9.33415 364.062C10.1561 365.706 38.5164 366.528 40.1604 364.884C40.8016 364.243 40.6906 361.464 40.3209 358.324C39.3179 358.373 37.4601 358.542 36.8724 359.13C36.0504 359.952 35.2284 361.185 34.8174 361.596C34.4679 361.945 15.4996 361.185 9.54389 360.194C9.12864 361.686 8.92315 363.236 9.33415 364.062Z" fill="#EFE4DA"/>
<path d="M13.9452 354.086C18.5302 352.291 22.6999 351.858 27.4342 353.101C28.3812 353.349 27.9804 354.811 27.0294 354.568C22.4322 353.394 17.9492 353.738 13.4569 355.178C12.5189 355.478 13.0642 354.432 13.9452 354.086Z" fill="#4A3333"/>
<path d="M85.0994 141.414C85.0994 141.414 97.5036 329.423 95.0374 331.067C92.5712 332.711 66.8766 337.346 65.2326 334.879C63.5886 332.413 60.7114 269.938 60.7114 266.239C60.7114 262.54 56.1901 218.972 56.1901 218.972C56.1901 218.972 51.3191 246.544 50.4359 255.553C48.3809 276.515 45.3314 335.628 43.2764 336.45C41.2214 337.272 15.4994 337.346 13.4444 331.18C11.3894 325.015 24.6671 162.404 27.9554 145.141C31.2434 127.878 85.0994 141.414 85.0994 141.414Z" fill="#AEBFD1"/>
<path opacity="0.5" d="M63.9503 211.396C65.3538 227.359 66.5271 249.92 67.7871 265.894C68.1426 270.399 68.4946 274.905 68.8416 279.411C68.8798 279.908 68.1076 279.904 68.0678 279.411C66.7803 263.439 65.5478 240.887 64.2988 224.913C63.9468 220.408 63.5931 215.904 63.2793 211.396C63.2491 210.963 63.9131 210.971 63.9503 211.396ZM69.8131 284.986C70.4253 292.594 70.9203 300.212 71.2716 307.836C71.6221 315.446 72.0103 323.104 71.8671 330.723C71.8591 331.151 71.2206 331.155 71.2023 330.728C70.8778 323.103 70.8343 315.468 70.4903 307.842C70.1466 300.218 69.6828 292.6 69.0873 284.991C69.0508 284.525 69.7756 284.522 69.8131 284.986Z" fill="#91A8BA"/>
<path d="M68.5358 168.33C67.8373 170.76 66.2645 172.651 64.7245 174.616C65.1923 171.85 65.6626 167.015 66.1408 164.253C66.3178 163.232 64.7543 162.792 64.5748 163.822C61.4715 181.64 58.0666 201.515 55.3361 219.395C55.1916 220.341 56.6126 220.773 56.8023 219.799C59.5651 205.619 61.9056 191.339 64.3081 177.084C64.4541 177.069 64.6021 177.004 64.7353 176.865C67.0376 174.464 68.6718 171.625 69.6153 168.436C69.9031 167.464 68.8153 167.358 68.5358 168.33ZM38.2063 164.47C36.2808 168.871 33.4241 172.362 29.8713 175.546C29.2906 176.067 30.0738 177.12 30.718 176.644C34.6265 173.755 37.5958 169.675 39.5528 165.257C39.9561 164.347 38.6073 163.554 38.2063 164.47Z" fill="#91A8BA"/>
<path d="M50.1898 52.0276C50.1898 52.0276 23.7053 61.7658 19.623 64.0188C15.5405 66.2718 8.94178 79.6866 5.53928 86.4918C2.13678 93.2968 -2.44021 103.979 1.55229 114.538C5.46829 124.895 26.3465 128.613 26.3465 128.613C26.3465 128.613 25.2915 131.21 24.7245 134.329C24.1575 137.448 27.2765 143.119 27.2765 143.119C27.2765 143.119 42.8715 149.074 51.6615 145.955C60.4515 142.836 72.0768 141.985 77.4643 141.418C82.8515 140.851 85.9705 140.851 85.9705 140.851C85.9705 140.851 89.6568 138.016 87.9553 128.659C86.254 119.302 85.687 116.466 85.4033 110.795C85.1198 105.124 87.388 99.4536 87.388 99.4536C87.388 99.4536 97.6705 76.4233 97.387 74.4386C97.1035 72.4538 81.15 59.1623 78.8815 57.4611C77.8215 56.6661 68.965 55.5896 62.5833 53.8958C55.3075 51.9641 50.1898 52.0276 50.1898 52.0276Z" fill="#B35A3C"/>
<path d="M78.1742 134.154C74.6275 134.897 71.0682 135.64 67.4552 135.977C63.8477 136.312 60.317 136.135 56.7692 135.402C55.0805 135.053 53.3937 134.67 51.6742 134.506C50.0305 134.349 48.4012 134.46 46.7885 134.809C43.6597 135.485 40.712 136.935 37.5252 137.353C34.6825 137.726 31.294 137.314 29.4227 134.89C29.1357 134.518 28.4922 134.886 28.7835 135.264C30.4362 137.405 33.09 138.208 35.713 138.212C38.8872 138.216 41.8355 136.991 44.8282 136.091C46.4632 135.599 48.1362 135.202 49.851 135.17C51.685 135.137 53.494 135.476 55.282 135.847C57.0442 136.212 58.8005 136.588 60.5947 136.76C62.4002 136.934 64.219 136.939 66.0285 136.828C70.1945 136.573 74.295 135.723 78.3712 134.869C78.8372 134.771 78.6397 134.057 78.1742 134.154ZM55.352 104.564C50.845 104.756 46.3322 104.793 41.8227 104.667C37.4577 104.546 33.0537 104.362 28.718 103.821C27.9242 103.721 27.128 103.597 26.338 103.44C26.382 103.378 26.421 103.309 26.448 103.226L29.051 95.2117C29.484 93.8787 29.918 92.5457 30.35 91.2124C30.7632 89.9367 31.1597 88.6559 31.3557 87.3259C31.414 86.9309 31.2575 86.5302 30.8385 86.4152C30.4897 86.3194 29.9865 86.5344 29.9277 86.9324C29.7317 88.2624 29.3355 89.5434 28.922 90.8189C28.4897 92.1522 28.056 93.4852 27.623 94.8182L25.02 102.833C24.985 102.94 24.9757 103.04 24.9845 103.131C23.9797 102.874 22.993 102.553 22.0452 102.138C21.6792 101.978 21.2505 102.03 21.0322 102.403C20.8485 102.717 20.9295 103.255 21.2977 103.416C25.2447 105.144 29.576 105.462 33.8235 105.758C38.4152 106.079 43.0185 106.233 47.6212 106.221C50.199 106.214 52.7762 106.154 55.3515 106.045C56.3012 106.004 56.3065 104.523 55.352 104.564Z" fill="#933B16"/>
<path d="M52.7124 127.863C43.7662 129.501 34.5529 129.715 25.5387 128.503C22.9749 128.158 20.4279 127.69 17.9057 127.117C16.9779 126.906 16.5817 128.333 17.5119 128.545C26.5784 130.605 35.9652 131.238 45.2244 130.378C47.8659 130.133 50.4967 129.768 53.1059 129.29C54.0422 129.119 53.6457 127.692 52.7124 127.863Z" fill="#FBDDB4"/>
<path d="M19.5117 64.0888C23.2122 68.0088 26.5262 72.294 29.3797 76.8678C30.846 79.2175 32.1887 81.6425 33.4075 84.1295C33.6172 84.5573 34.256 84.1825 34.0467 83.7558C30.4605 76.4375 25.767 69.6683 20.1882 63.7285C19.9702 63.8353 19.7785 63.933 19.623 64.019C19.5867 64.0393 19.5485 64.0668 19.5117 64.0888Z" fill="#933B16"/>
<path d="M40.9485 38.5406C41.3265 38.5406 42.8388 44.4637 43.469 47.6142C44.099 50.7647 41.4528 55.4274 40.8225 55.8054C40.1925 56.1834 54.8108 70.2976 55.693 69.6676C56.5753 69.0374 62.498 53.7892 62.498 53.7892C62.498 53.7892 59.3475 51.7729 58.3393 46.8581C57.331 41.9434 55.8188 36.6504 55.8188 36.6504L40.9485 38.5406Z" fill="#E99167"/>
<path d="M43.8971 45.2294C44.8653 47.6729 46.4518 49.9926 48.7561 51.3454C50.8248 52.5599 53.2686 52.8141 55.6153 52.5174C57.1788 52.3199 58.7098 51.8984 60.1898 51.3431C59.4566 50.2546 58.7341 48.7811 58.3396 46.8581C57.3313 41.9434 55.8191 36.6504 55.8191 36.6504L42.3203 38.3664C42.5686 40.7066 43.0298 43.0406 43.8971 45.2294Z" fill="#1A1A1A"/>
<path d="M62.4887 11.5009C62.328 7.36916 60.1215 3.22816 56.4682 1.16566C54.6937 0.16391 52.6407 -0.25559 50.632 0.15816C49.7225 0.34541 48.8237 0.712664 48.0582 1.24066C47.2597 1.79166 46.6692 2.48091 46.1292 3.27891C45.9105 3.60216 45.6842 3.96591 45.3602 4.19641C44.9415 4.49391 44.4427 4.35542 43.9765 4.26567C42.8477 4.04867 41.6932 3.91016 40.5422 3.94366C38.433 4.00491 36.348 4.64941 34.7975 6.12591C34.0943 6.79566 33.5422 7.61191 33.1985 8.52041C33.0375 8.94616 32.9452 9.38766 32.8952 9.83966C32.8637 10.1254 32.887 10.4517 32.8677 10.7649C32.6565 10.5267 32.422 10.3087 32.1615 10.1219C31.2457 9.46466 29.9355 9.31116 28.9747 9.96516C28.7272 10.1337 28.6167 10.4534 28.7755 10.7249C28.9192 10.9704 29.286 11.0937 29.5352 10.9242C30.204 10.4689 31.014 10.6214 31.655 11.1207C31.829 11.2562 31.9837 11.4137 32.1225 11.5854C32.0402 11.5537 31.9507 11.5197 31.8517 11.4987C31.2887 11.3789 30.7415 11.5644 30.2712 11.8734C29.463 12.4044 28.7812 13.1149 28.2152 13.8937C26.0137 16.9217 25.859 21.0669 26.621 24.6039C28.1965 31.9169 33.975 38.2279 41.1707 40.3252C42.318 40.6594 43.53 40.8767 44.7282 40.7819C45.86 40.6924 46.9443 40.3827 47.9825 39.9314C49.775 39.1524 51.3603 37.9109 52.6315 36.4334C55.503 33.0962 56.7237 28.7889 57.0522 24.4679C57.1092 23.7189 57.1373 22.9684 57.1478 22.2177C57.2153 22.2024 57.2807 22.1782 57.3387 22.1342C60.6245 19.6449 62.6505 15.6512 62.4887 11.5009Z" fill="#763128"/>
<path d="M65.8964 39.3294C65.3119 34.5181 63.8219 29.7889 62.2772 25.2119C61.8347 23.9006 61.4637 22.6294 61.1367 21.3319C60.9492 20.5881 59.3169 16.2079 58.1767 15.0559C57.8692 15.0236 57.5459 15.0581 57.2857 15.2194C56.8819 15.4696 56.5534 15.8524 56.2429 16.2054C55.9357 16.5546 55.6504 16.9266 55.3269 17.2614C54.9229 17.6791 54.4479 18.0466 53.9752 18.3834C52.9702 19.0991 51.8339 19.6491 50.6259 19.9169C49.2409 20.2241 47.8187 20.0746 46.4387 19.8091C45.6834 19.6636 44.9367 19.4789 44.1907 19.2926C43.9377 19.2294 43.0777 19.0011 42.8849 19.0479C42.3157 19.1864 42.4397 22.8779 40.6154 24.4969C40.3942 26.4934 41.6832 31.8634 38.9134 32.6189C38.5229 32.7254 36.9599 29.7836 33.4474 31.1991C31.0694 32.1574 30.9017 35.3231 31.2624 36.6431C33.6249 45.2901 40.3122 42.6206 40.3122 42.6206C45.2857 49.5271 48.8637 51.7554 56.8002 50.0129C59.3777 49.4471 64.5017 47.3891 65.6597 44.5324C66.3069 42.9354 66.0984 40.9926 65.8964 39.3294Z" fill="#E99167"/>
<path d="M62.152 37.4395C62.152 37.4395 57.3317 39.3297 54.7797 39.8025C52.2277 40.275 55.914 44.6227 59.033 44.0557C62.152 43.4885 62.152 37.4395 62.152 37.4395Z" fill="white"/>
<path d="M49.8074 31.2488C48.7392 31.3583 47.6624 32.2038 47.3362 33.295C47.2194 33.6858 47.2417 34.162 47.6962 33.9218C48.2084 33.651 48.5602 33.1273 49.0769 32.8568C49.5642 32.6018 50.1417 32.6035 50.6909 32.6333C50.8772 32.6435 51.0674 32.6558 51.2467 32.6045C51.4259 32.5533 51.5952 32.4243 51.6392 32.243C51.8174 31.5115 50.2654 31.2018 49.8074 31.2488Z" fill="#1A1A1A"/>
<path d="M58.2917 35.59C58.1275 35.2795 57.7197 35.15 57.4085 35.3185C57.1022 35.4845 56.7957 35.6505 56.4892 35.8165C56.179 35.9845 56.0517 36.3857 56.2177 36.6997C56.382 37.0102 56.7897 37.14 57.101 36.9712C57.4072 36.8052 57.7137 36.6392 58.0202 36.4732C58.3305 36.3052 58.4577 35.904 58.2917 35.59Z" fill="#D55B43"/>
<path d="M44.7179 30.8042C45.4334 30.2377 46.2306 29.7887 46.9156 29.1824C47.6109 28.5674 49.1909 27.0832 49.8614 26.4424C50.4664 25.8644 49.6181 24.8709 49.0079 25.4539C48.3376 26.0944 46.7591 27.5819 46.0621 28.1942C45.3749 28.7974 44.5796 29.2492 43.8641 29.8159C43.2056 30.3374 44.0586 31.3262 44.7179 30.8042ZM62.5596 24.1147C62.7384 24.2654 62.8254 24.5107 62.7624 24.7524C62.6751 25.0877 62.3326 25.2887 61.9976 25.2014C61.9181 25.1807 60.0361 24.6874 58.5339 23.3264C58.2764 23.0947 58.2559 22.6979 58.4879 22.4404C58.7196 22.1829 59.1191 22.1512 59.3739 22.3944C60.6536 23.5419 62.2971 23.9824 62.3134 23.9872C62.4071 24.0114 62.4901 24.0559 62.5596 24.1147Z" fill="#763128"/>
<path d="M60.0542 29.2094C60.0094 29.3619 59.9979 29.5786 60.2304 29.5581C60.3172 29.5506 60.3939 29.4999 60.4632 29.4469C60.7857 29.2001 61.0472 28.8639 61.4177 28.6981C61.7527 28.5486 62.1359 28.5579 62.5002 28.6014C62.6424 28.6184 62.7872 28.6399 62.9284 28.6154C63.9569 28.4366 62.5397 27.2899 62.0234 27.2814C61.2907 27.2694 60.7474 27.9906 60.3827 28.5501C60.2957 28.6834 60.1272 28.9606 60.0542 29.2094Z" fill="#1A1A1A"/>
<path d="M148.458 75.4025C148.458 75.4025 154.868 72.6057 159.884 75.114C164.901 77.6222 168.036 86.819 166.991 90.9992C165.946 95.1795 151.314 106.675 144.208 110.229C137.101 113.782 88.6094 95.8065 88.6094 95.8065L97.5971 72.3965C97.5971 72.3965 134.108 83.1315 135.605 83.4075C137.101 83.6837 148.458 75.4025 148.458 75.4025Z" fill="#B35A3C"/>
<path d="M150.618 52.6793C148.905 53.5128 146.808 52.8101 145.451 51.6138C145.02 51.2338 144.642 50.8088 144.296 50.3581C144.363 50.3713 144.428 50.3906 144.495 50.4011C145.924 50.6241 147.318 50.1628 148.331 49.1286C150.679 46.7318 150.089 43.1423 149.002 40.3031C147.93 37.5033 145.999 34.6601 142.823 34.1256C141.264 33.8631 139.666 34.2293 138.532 35.3728C138.119 35.7888 137.789 36.2828 137.566 36.8168C137.187 35.861 136.808 34.9053 136.428 33.9493C135.865 32.5298 135.307 31.09 134.503 29.7855C133.041 27.414 130.449 25.4568 127.518 26.0183C127.355 26.0496 127.198 26.0956 127.041 26.1451C124.372 23.7796 120.383 22.8958 117.019 24.2211C112.118 26.1513 109.562 31.6566 108.354 36.4456C107.643 39.2653 107.362 42.2048 107.551 45.1073C107.74 48.0143 108.541 51.0671 107.62 53.9253C107.182 55.2866 106.382 56.4918 105.785 57.7836C105.176 59.1038 104.831 60.4898 104.685 61.9348C104.398 64.7763 104.72 67.7851 105.404 70.5508C106.638 75.5406 109.76 80.2671 114.761 82.0761C114.871 82.1158 114.985 82.1448 115.096 82.1808C115.47 82.8611 115.917 83.5056 116.417 84.1033C118.104 86.1216 120.406 87.5181 122.757 88.6346C123.979 89.2146 125.229 89.7351 126.478 90.2521C127.765 90.7846 129.091 91.2738 130.5 91.3126C132.97 91.3806 135.489 90.1991 137.611 89.0338C141.554 86.8686 145.031 83.5668 146.717 79.3338C147.675 76.9301 147.847 74.3623 147.668 71.8018C147.463 68.8828 147.043 65.9651 146.562 63.0801C145.93 59.2928 145.102 55.5406 144.096 51.8366C144.406 52.1663 144.738 52.4763 145.104 52.7556C146.826 54.0683 149.173 54.6133 151.178 53.6378C151.821 53.3258 151.259 52.3678 150.618 52.6793Z" fill="#621406"/>
<path d="M86.8203 274.779C86.8203 274.779 86.9691 277.044 92.0468 277.343C97.1246 277.642 111.909 277.866 118.928 277.269C125.947 276.671 133.489 275.925 133.489 275.925C133.489 275.925 129.905 268.98 116.987 267.711C104.069 266.441 93.2416 268.01 92.1961 268.532C91.1506 269.055 86.8203 274.779 86.8203 274.779Z" fill="#1A1A1A"/>
<path d="M91.3568 232.436C91.3568 232.436 88.8048 251.717 89.939 258.239C91.0733 264.76 110.071 326.006 110.922 328.275C111.772 330.543 108.37 351.242 107.803 354.361C107.236 357.48 102.415 359.181 101.848 361.166C101.281 363.151 101.848 365.703 104.4 365.986C106.952 366.27 120.846 366.553 123.398 364.285C125.95 362.016 132.188 328.275 131.053 324.305C129.919 320.335 126.233 319.768 124.815 315.515C123.398 311.262 118.294 270.715 116.593 263.909C114.891 257.104 112.056 248.031 112.056 248.031C112.056 248.031 131.337 215.707 131.904 211.737C132.471 207.767 103.266 194.724 102.132 195.859C100.997 196.993 91.3568 232.436 91.3568 232.436Z" fill="#E38E6C"/>
<path d="M125.868 317.633C125.121 321.864 122.451 337.123 121.876 342.152C121.207 348.012 120.369 349.017 119.197 347.51C118.096 346.093 114.181 342.31 108.985 347.151C108.456 350.567 107.984 353.363 107.803 354.361C107.236 357.48 102.415 359.181 101.848 361.166C101.281 363.151 101.848 365.703 104.4 365.986C106.952 366.27 120.846 366.553 123.398 364.285C125.95 362.017 132.188 328.275 131.054 324.305C130.14 321.109 127.574 320.118 125.868 317.633Z" fill="#EDB24C"/>
<path d="M131.053 324.305C130.554 322.556 129.558 321.468 128.48 320.434C128.135 323.039 127.569 327.702 127.569 330.263C127.569 333.947 127.569 343.323 126.229 349.686C124.89 356.049 123.215 362.411 121.373 362.579C119.532 362.746 114.174 361.407 107.476 361.574C104.638 361.645 102.825 361.866 101.675 362.098C101.502 363.873 102.234 365.891 104.402 366.111C107.104 366.386 119.888 367.191 123.398 364.285C126.028 362.107 132.187 328.275 131.053 324.305Z" fill="#EFE4DA"/>
<path d="M161.482 349.826C161.207 348.322 160.783 346.837 160.329 345.362C159.562 342.381 158.694 338.797 158.143 335.254C158.437 331.332 158.47 323.842 158.642 317.877C160.108 266.895 155.939 245.986 155.939 245.986C155.939 245.986 133.144 241.003 130.166 245.98C130.166 245.98 139.413 298.599 141.395 314.671C142.381 322.674 144.873 335.7 144.482 340.827C144.237 343.998 142.473 347.409 140.59 350.635C140.336 351.066 140.081 351.493 139.827 351.917C137.288 355.284 134.095 358.559 132.858 359.487C131.226 360.711 131.09 364.927 131.906 365.743C132.722 366.559 157.609 366.695 160.737 365.607C163.804 364.541 162.557 354.327 161.482 349.826Z" fill="#E38E6C"/>
<path d="M160.737 365.609C163.804 364.542 162.557 354.329 161.482 349.828C161.401 349.384 161.304 348.941 161.2 348.5C158.731 351.295 154.521 354.791 151.848 355.213C148.667 355.715 147.997 353.203 143.309 352.869C141.504 352.74 139.951 352.984 138.719 353.332C136.425 356.163 133.921 358.692 132.858 359.489C131.226 360.713 131.09 364.929 131.906 365.745C132.722 366.561 157.609 366.697 160.737 365.609Z" fill="#EDB24C"/>
<path d="M150.173 364.086C147.327 363.919 141.466 361.407 137.783 361.575C135.396 361.683 132.94 362.143 131.505 362.453C131.305 363.871 131.465 365.303 131.905 365.744C132.721 366.56 157.609 366.696 160.737 365.608C162.239 365.086 162.705 362.368 162.664 359.203C160.782 360.824 158.466 363.005 157.54 363.417C156.033 364.086 153.019 364.254 150.173 364.086Z" fill="#EFE4DA"/>
<path d="M131.478 77.815C131.478 77.815 145.42 85.3703 150.146 90.4743C154.872 95.578 161.866 126.579 161.488 134.897C161.11 143.214 156.006 146.617 151.28 147.751C151.28 147.751 159.408 188.581 160.542 210.887C161.677 233.192 162.433 273.645 162.433 273.645C162.433 273.645 148.066 278.938 128.785 275.913C109.504 272.889 103.117 271.805 95.8548 272.191C87.4171 272.639 86.8203 274.779 86.8203 274.779C86.8203 274.779 86.8203 243.778 87.5766 204.46C88.3328 165.141 90.6826 131.263 90.6826 131.263C90.6826 131.263 85.4446 126.025 87.9388 117.295C90.4331 108.565 88.9366 109.563 90.9318 103.327C92.9271 97.0913 94.1743 87.613 95.4216 85.867C96.6688 84.121 110.741 77.6133 110.741 77.6133L131.478 77.815Z" fill="#E84551"/>
<path d="M149.627 89.9413C149.456 89.7728 149.276 89.602 149.089 89.4295C144.036 92.831 139.499 96.9345 136.063 102.048C134.516 104.35 133.237 106.823 132.276 109.426C132.11 109.874 132.826 110.067 132.99 109.623C136.058 101.312 142.373 94.818 149.627 89.9413ZM95.7391 85.5413C95.6093 90.9125 96.1676 96.2895 97.4108 101.519C97.5211 101.982 98.235 101.786 98.1248 101.322C96.8523 95.9698 96.313 90.4693 96.496 84.973C96.1855 85.183 95.9318 85.3733 95.7391 85.5413ZM135.09 79.8598C134.854 79.7225 134.627 79.5905 134.408 79.4648C130.916 82.3065 127.423 85.1483 123.93 87.99C121.537 89.937 119.06 92.3585 115.968 93.0985C114.39 93.4765 112.799 93.2978 111.537 92.2205C110.371 91.2245 109.719 89.7993 109.32 88.3468C108.442 85.1478 108.371 81.7158 108.965 78.4473C108.717 78.565 108.445 78.6943 108.158 78.8313C107.718 81.626 107.756 84.4873 108.309 87.27C108.885 90.168 110.373 93.5428 113.683 93.9833C116.934 94.416 119.865 92.228 122.243 90.3103C125.207 87.9195 128.152 85.5045 131.105 83.1013C132.434 82.0208 133.762 80.9403 135.09 79.8598Z" fill="#BC2328"/>
<path d="M98.2625 167.411L88.9985 161.66C88.7442 167.181 88.4905 173.254 88.2607 179.714L98.2625 167.411Z" fill="#1A1A1A"/>
<path d="M152.318 223.556C152.032 216.108 151.53 208.668 150.814 201.249C150.102 193.871 149.178 186.512 148.044 179.187C146.899 171.785 145.538 164.416 143.963 157.094C143.77 156.197 143.573 155.3 143.374 154.404C143.27 153.939 142.556 154.136 142.66 154.601C144.278 161.877 145.687 169.198 146.882 176.555C148.077 183.916 149.057 191.311 149.822 198.729C150.586 206.143 151.137 213.579 151.472 221.024C151.806 228.433 151.926 235.852 151.833 243.268C151.739 250.721 151.429 258.171 150.903 265.605C150.838 266.521 150.769 267.436 150.698 268.351C150.661 268.827 151.402 268.824 151.439 268.351C152.016 260.92 152.382 253.473 152.529 246.021C152.677 238.533 152.606 231.04 152.318 223.556Z" fill="#BC2328"/>
<path d="M138.668 50.1193C137.599 49.3493 136.172 49.8751 135.14 50.4531C134.59 50.7603 134.073 51.1304 133.587 51.5374C133.233 51.8369 132.879 52.8729 132.305 52.4573C132.024 52.2516 131.949 51.8714 131.901 51.5244C131.791 50.7071 131.716 49.8843 131.751 49.0613C131.774 48.4773 131.848 47.8953 131.757 47.3201C131.616 46.4488 131.091 45.6826 130.907 44.8174C130.776 44.2011 130.822 43.5436 130.615 42.9476C130.244 41.8728 129.153 41.2228 128.082 40.8446C127.011 40.4621 125.862 40.2488 124.913 39.6271C123.05 38.3996 122.377 36.2686 119.977 35.7648C117.41 35.2298 114.45 36.9923 112.991 39.0433C107.712 46.5226 101.765 57.2893 106.162 65.2981C109.339 69.6823 114.752 69.1066 115.72 68.9441L115.75 68.9386C115.775 68.9376 115.801 68.9324 115.818 68.9274C115.773 69.1411 115.726 69.3536 115.68 69.5661C115.455 70.5364 115.236 71.3788 115.072 71.8991C114.594 74.0218 113.174 75.1886 110.741 77.6138C110.741 77.6138 110.603 78.4133 110.518 79.6191C110.306 82.5623 110.421 87.9218 113.662 89.9056C116.542 91.6666 123.053 84.8489 124.896 83.4724C125.599 82.9473 126.229 82.4653 126.794 82.0233C130.086 79.4358 131.208 78.1523 131.478 77.8151C131.465 77.7773 131.452 77.7403 131.444 77.6983C130.742 73.9869 130.528 70.7356 131.022 66.5878C131.458 63.7676 132.178 60.8026 132.617 58.7316C132.855 58.8368 137.694 60.9023 139.542 55.8643C140.033 54.5171 140.701 51.5443 138.668 50.1193Z" fill="#E38E6C"/>
<path d="M111.061 52.4275C111.189 52.05 111.623 51.8317 112.003 51.9652C112.376 52.0967 112.749 52.228 113.122 52.3595C113.5 52.4925 113.714 52.9197 113.584 53.3015C113.455 53.679 113.021 53.8972 112.642 53.7637C112.269 53.6325 111.896 53.501 111.523 53.3695C111.145 53.2365 110.931 52.8092 111.061 52.4275Z" fill="#CE5C48"/>
<path d="M123.343 49.8742C123.88 50.1834 124.646 49.7676 124.596 49.1584C124.539 48.4684 123.573 47.7509 122.963 47.5239C122.044 47.1822 121.001 47.1691 120.536 47.4169C119.721 47.8519 119.622 48.8259 120.147 48.8162C122.328 48.7759 122.955 49.6502 123.343 49.8742ZM108.017 48.0959C107.622 47.2521 108.84 46.5722 109.425 46.3562C110.065 46.1194 110.715 46.0492 111.383 46.2709C111.543 46.3242 111.706 46.4129 111.777 46.5662C111.936 46.9122 111.897 47.2647 111.659 47.5684C111.177 48.1864 110.603 47.6834 109.993 47.7182C108.81 47.7859 108.206 48.5016 108.017 48.0959ZM125.595 65.5417C123.242 69.0419 119.853 71.8902 114.971 72.3294L115.817 68.9282C115.8 68.9332 115.775 68.9384 115.75 68.9394L115.876 68.9044C115.876 68.9044 115.91 68.8987 115.918 68.8984C119.531 68.4509 123.248 66.7814 125.595 65.5417Z" fill="#1A1A1A"/>
<path d="M109.259 56.7975C110.636 57.0705 113.186 57.5352 115.444 57.7227C115.935 57.7635 116.248 58.2687 116.053 58.7215C115.557 59.8705 114.423 61.7127 112.153 62.0907C109.698 62.5 108.742 59.3517 108.407 57.642C108.308 57.1377 108.754 56.6975 109.259 56.7975Z" fill="white"/>
<path d="M66.4793 127.436C66.4793 127.436 55.8193 121.665 56.1973 110.323C56.5753 98.9816 64.3256 79.3224 73.3991 73.0844C82.4726 66.8464 92.1131 68.5476 97.5951 70.2489C103.077 71.9501 113.141 75.4004 113.141 75.4004C113.141 75.4004 112.635 76.9811 109.158 78.5619C105.68 80.1426 96.8286 84.6316 95.6271 86.0859C94.4258 87.5401 92.7818 96.4551 92.3393 98.9211C91.8968 101.387 90.6953 106.003 90.6953 106.003C90.6953 106.003 90.0631 116.056 89.8733 118.522C89.6838 120.987 66.4793 127.436 66.4793 127.436Z" fill="white"/>
<path d="M65.8954 127.291C65.8954 127.291 61.5901 122.249 65.3969 115.111C68.4214 109.44 72.8311 107.163 79.9031 107.843C88.7119 108.69 103.703 116.275 106.559 124.707C109.415 133.139 102.479 142.659 95.9508 151.226C95.9508 151.226 94.7269 154.354 96.3589 157.89C97.9909 161.426 101.119 165.37 98.2629 167.41C95.4069 169.45 91.0549 168.09 89.4231 167.002C87.7911 165.914 81.3993 158.57 80.5833 154.762C79.7673 150.954 84.0194 147.689 84.9354 145.787C86.7034 142.115 85.2073 137.219 89.6953 132.187C89.6948 132.187 74.0551 133.683 65.8954 127.291Z" fill="#E38E6C"/>
<path d="M95.9507 151.226C96.8804 150.006 97.8179 148.766 98.7347 147.513C96.4392 146.906 94.2512 145.875 92.2889 144.547C90.0179 143.01 88.0077 141.062 86.4262 138.816C85.8939 141.388 85.9052 143.772 84.9349 145.786C84.0189 147.689 79.7669 150.954 80.5829 154.762C81.3989 158.57 87.7909 165.914 89.4227 167.002C91.0547 168.09 95.4067 169.45 98.2627 167.41C101.119 165.37 97.9907 161.426 96.3587 157.89C94.7267 154.354 95.9507 151.226 95.9507 151.226Z" fill="white"/>
<path d="M98.1332 164.031C97.383 163.745 96.5767 163.681 95.7892 163.836C95.0599 163.981 94.4685 164.441 93.762 164.632C93.0075 164.836 92.3549 164.26 91.7019 163.976C91.1257 163.724 90.5167 163.622 89.9344 163.821C88.0439 162.878 86.5102 161.389 85.5327 159.507C85.2032 158.873 84.2445 159.434 84.5737 160.068C85.1644 161.205 85.9559 162.244 86.9074 163.104C87.3649 163.518 87.8587 163.897 88.378 164.229C88.8047 164.503 89.6037 165.121 90.1234 164.939C90.4549 164.822 90.6497 164.783 90.9959 164.89C91.3402 164.995 91.6435 165.191 91.9617 165.355C92.5567 165.661 93.1719 165.877 93.8477 165.751C94.4859 165.633 95.0159 165.244 95.6197 165.032C96.3564 164.774 97.1165 164.827 97.838 165.103C98.5062 165.358 98.7952 164.284 98.1332 164.031Z" fill="#D5CABE"/>
<path d="M92.8105 132.884C92.8105 132.884 97.4845 132.269 101.051 130.977C104.618 129.686 106.648 128.456 108.062 128.579C109.477 128.702 109.477 130.362 108.862 131.654C108.862 131.654 112.613 131.223 114.766 130.67C116.918 130.116 117.533 131.961 116.303 133.191C116.303 133.191 118.456 133.499 118.148 135.036C117.841 136.574 117.103 136.574 117.103 136.574L114.643 137.496C114.643 137.496 117.902 137.066 117.533 139.341C117.164 141.617 111.568 142.539 111.568 142.539C111.568 142.539 112.367 143.831 110.215 145.245C108.062 146.66 103.819 147.275 98.7145 147.459C93.61 147.644 90.043 147.029 90.043 147.029L92.8105 132.884Z" fill="#E38E6C"/>
<path d="M117.877 138.148C117.396 137.742 116.702 138.126 116.831 138.757C117.001 139.591 115.799 140.373 115.171 140.719C114.22 141.244 113.154 141.507 112.098 141.726C110.816 141.991 109.517 142.15 108.213 142.257C106.897 142.364 105.562 142.365 104.267 142.636C103.876 142.717 103.85 143.393 104.267 143.453C105.773 143.668 107.321 143.562 108.835 143.452C109.499 143.404 110.164 143.338 110.827 143.253C110.659 144.789 108.469 145.384 107.227 145.742C105.479 146.246 103.66 146.497 101.855 146.687C98.0544 147.088 94.2292 147.063 90.4244 146.73C90.0072 146.694 89.9039 147.41 90.3244 147.469C93.5396 147.914 96.7981 148.049 100.042 147.898C103.151 147.754 106.431 147.518 109.336 146.315C110.724 145.74 112.146 144.693 112.135 143.054C112.558 142.977 112.979 142.891 113.395 142.788C114.576 142.494 115.747 142.051 116.714 141.297C117.462 140.714 118.975 139.074 117.877 138.148ZM118.624 135.305C118.508 134.722 117.785 134.781 117.496 135.158C117.401 135.281 117.367 135.395 117.24 135.49C117.112 135.585 116.951 135.64 116.803 135.695C116.339 135.866 115.87 136.023 115.398 136.171C114.426 136.476 113.442 136.741 112.447 136.959C110.48 137.39 108.466 137.612 106.464 137.792C105.878 137.845 105.864 138.683 106.464 138.715C108.787 138.837 111.108 138.545 113.381 138.05C114.49 137.808 115.584 137.505 116.661 137.143C117.493 136.863 118.852 136.445 118.624 135.305ZM102.824 129.791C101.586 130.169 100.385 130.648 99.1336 130.992C98.5099 131.164 97.8811 131.317 97.2509 131.463C96.6666 131.598 95.9209 131.643 95.4146 131.98C95.1124 132.182 95.1427 132.672 95.5182 132.773C96.1459 132.943 96.9354 132.706 97.5599 132.584C98.1954 132.461 98.8254 132.31 99.4514 132.145C100.74 131.805 102.069 131.437 103.277 130.866C103.883 130.58 103.455 129.597 102.824 129.791Z" fill="#DC815C"/>
<path d="M57.367 135.519C57.5227 143.926 62.5755 146.655 71.9592 148.423C81.343 150.191 86.5672 149.187 88.8792 149.187C91.1912 149.187 93.7752 143.611 94.7272 140.211C95.6792 136.811 95.4072 131.643 95.4072 131.643C95.4072 131.643 85.9162 132.806 77.6202 131.582C69.3245 130.358 66.2847 127.394 64.2412 125.734C63.0592 124.774 62.071 123.954 61.3695 123.256C59.1815 125.911 57.2825 130.962 57.367 135.519Z" fill="#E84551"/>
<path d="M83.8262 149.454C84.1352 149.446 84.4319 149.435 84.7169 149.423C87.7184 144.474 89.6127 138.877 90.2524 133.119C90.2924 132.76 90.3224 132.399 90.3522 132.039C90.1084 132.051 89.8599 132.062 89.6042 132.072C89.1782 137.09 87.7859 142.017 85.4979 146.512C84.9859 147.518 84.4242 148.497 83.8262 149.454Z" fill="#BC2328"/>
<path d="M84.2075 95.7993C84.877 95.2003 91.495 94.6601 97.5728 92.9043C103.651 91.1486 104.326 91.0136 105.677 94.1198C107.027 97.2263 108.783 103.439 107.703 105.6C106.622 107.761 95.817 110.732 89.7393 111.813C83.6615 112.893 77.7188 110.462 77.7188 110.462L84.2075 95.7993Z" fill="white"/>
<path d="M95.7905 92.4996C94.7553 92.5206 93.7102 92.9801 92.7192 93.2539C91.6967 93.5361 90.669 93.8029 89.6303 94.0186C89.0285 94.1436 88.423 94.2524 87.8147 94.3409C85.925 90.8774 85.0405 87.0371 83.5288 83.4154C82.763 81.5811 81.855 79.7186 80.4425 78.2884C79.2465 77.0774 77.6842 76.2239 76.0332 75.8246C74.1157 75.3609 72.1102 75.4761 70.2915 76.2471C69.565 76.5551 70.0838 77.7924 70.8318 77.5289C73.7673 76.4951 77.19 77.0589 79.4387 79.2919C80.7477 80.5916 81.6 82.3344 82.3112 84.0149C83.0345 85.7239 83.6015 87.4946 84.229 89.2396C84.8755 91.0376 85.5692 92.8456 86.552 94.4906C86.0452 94.5346 85.538 94.5616 85.0297 94.5791C84.5062 94.5969 83.9285 94.5536 83.422 94.6976C83.0763 94.7959 82.9532 95.3459 83.315 95.5169C84.222 95.9459 85.4475 95.8526 86.427 95.7984C87.5365 95.7371 88.6427 95.5924 89.7348 95.3876C90.8063 95.1866 91.8682 94.9344 92.9202 94.6479C93.9507 94.3671 95.176 94.1661 96.0865 93.5906C96.5617 93.2901 96.3908 92.4874 95.7905 92.4996Z" fill="#E3E8EA"/>
<path d="M73.3332 105.972C71.6682 105.045 70.4225 103.671 69.3562 102.111C68.2582 100.504 67.3497 98.7717 66.6672 96.9487C65.248 93.1582 64.7475 89.1052 65.0287 85.0749C65.199 82.6352 65.678 80.2119 66.231 77.8329C66.3957 77.1239 65.387 76.8567 65.149 77.5347C63.6527 81.7942 63.244 86.5159 63.816 90.9902C64.3385 95.0759 65.7157 99.0957 68.055 102.506C69.2942 104.313 70.8112 106.157 72.9187 106.955C73.494 107.173 73.8577 106.263 73.3332 105.972Z" fill="#B35A3C"/>
<path d="M103.831 92.5441C103.831 92.5441 105.166 91.7654 106.334 89.9856C107.502 88.2059 109.004 88.2059 109.671 89.5964C110.339 90.9869 109.838 91.5431 110.116 91.5986C110.394 91.6541 113.398 90.5974 114.788 90.8756C116.179 91.1536 116.179 92.4886 116.179 93.1004C116.179 93.7121 118.57 93.9346 118.403 95.7701C118.237 97.6056 117.013 98.2731 116.846 99.2186C116.679 100.164 116.179 100.72 115.289 101.332C114.399 101.944 114.844 102.556 113.898 103.168C112.953 103.779 109.171 104.892 105.611 104.391C102.051 103.89 101.551 92.6554 103.831 92.5441Z" fill="#E38E6C"/>
<path d="M91.6933 68.9384C91.6933 68.9384 91.0505 60.2209 90.33 60.0546C89.6095 59.8884 78.1365 58.8906 78.1365 58.8906C78.1365 58.8906 78.3582 64.1006 78.4137 64.5994C78.469 65.0981 78.5245 67.2044 77.9702 68.7009C77.416 70.1974 76.459 71.2834 76.459 71.2834C77.713 71.2584 79.5222 71.6969 80.7045 74.0614C82.669 77.9904 86.0202 79.4926 89.8335 77.8749C93.392 76.3654 93.7295 72.5416 91.6933 68.9384Z" fill="#E38E6C"/>
<path d="M79.0527 63.6477C79.211 65.5034 79.5502 67.4234 80.4525 69.0752C80.8755 69.8497 81.4284 70.5507 82.1207 71.1019C82.9387 71.7534 83.9369 72.1779 84.9462 72.4287C87.1624 72.9797 89.5225 72.6889 91.6842 72.0399C92.0485 71.9307 92.4092 71.8064 92.7677 71.6754C92.5702 70.7762 92.2082 69.8502 91.693 68.9382C91.693 68.9382 91.0502 60.2207 90.3297 60.0544C89.7255 59.9149 81.5624 59.1912 78.9422 58.9609C78.9302 60.5247 78.9195 62.0877 79.0527 63.6477Z" fill="#1A1A1A"/>
<path d="M73.8713 59.5213C73.8713 59.5213 68.7193 52.9953 68.7413 47.4693C68.763 41.9431 72.2108 43.0188 72.9268 42.3911C73.6428 41.7633 72.7745 38.9386 78.802 33.8676C84.8298 28.7966 89.7808 31.5711 89.5928 32.9313C89.4048 34.2913 93.6058 33.7106 96.3188 35.9286C99.0318 38.1466 98.975 44.0876 93.5848 47.4186C88.1945 50.7496 82.013 61.1636 78.9268 61.0518C75.8405 60.9396 73.8713 59.5213 73.8713 59.5213Z" fill="#804037"/>
<path d="M97.6871 65.828C98.9876 64.1085 101.153 60.553 98.7736 53.128C96.3943 45.7028 94.8816 43.6053 94.8816 43.6053C94.8816 43.6053 93.0408 44.2953 89.6253 42.507C86.2098 40.7188 84.9876 45.214 82.1291 46.8508C79.2703 48.4875 79.1026 49.7068 78.6508 51.733C78.1991 53.7595 79.1068 58.018 77.9973 58.5233C77.6321 58.6898 75.5028 54.5005 72.0741 57.0788C69.1986 59.2408 71.9836 63.8882 74.5768 65.265C77.0221 66.563 78.4441 65.0267 78.4441 65.0267C78.4441 65.0267 79.6868 67.4795 81.3461 68.461C89.0928 73.0425 96.3866 67.5475 97.6871 65.828Z" fill="#E38E6C"/>
<path d="M87.3418 56.1939C87.1853 55.9129 86.9438 55.7159 86.6473 55.5944C86.3823 55.4859 86.0796 55.4289 85.7936 55.4551C85.4813 55.4839 85.2031 55.6699 85.0158 55.9144C84.7366 56.2791 84.7068 56.7584 84.8408 57.1844C84.8411 57.1881 84.8411 57.1916 84.8413 57.1954C84.8631 57.4369 84.9901 57.6264 85.1283 57.8196C85.4741 58.3034 86.0893 58.5871 86.6676 58.3669C87.1868 58.1689 87.4016 57.5369 87.4718 57.0329C87.5103 56.7556 87.4798 56.4417 87.3418 56.1939ZM98.1891 52.5176C98.1133 52.3844 98.0368 52.2909 97.9298 52.1836C97.7643 52.0179 97.5486 51.9239 97.3371 51.8782C97.2608 51.8617 97.1813 51.8611 97.1033 51.8654C97.0733 51.8586 97.0438 51.8502 97.0136 51.8462C96.7631 51.8122 96.4868 51.8817 96.3078 52.0812C96.1341 52.2747 96.0366 52.5206 96.0201 52.8014C95.9933 53.2539 96.1083 53.7257 96.3411 54.1054C96.5801 54.4954 97.0536 54.7479 97.4598 54.6522C97.8778 54.5537 98.2198 54.1714 98.3293 53.7069C98.3871 53.4614 98.4118 53.1979 98.3506 52.9436C98.3123 52.7856 98.2668 52.6546 98.1891 52.5176Z" fill="#1A1A1A"/>
<path d="M93.8506 57.2805C93.7561 57.1758 93.6271 57.091 93.4821 57.082C93.4326 57.0833 93.3828 57.0848 93.3333 57.0863C93.2343 57.1025 93.1463 57.1425 93.0688 57.206C92.7958 57.3865 92.5231 57.5668 92.2501 57.7473C92.1918 57.7923 92.1481 57.8475 92.1193 57.9135C92.0796 57.9743 92.0568 58.0418 92.0516 58.1158C92.0368 58.2528 92.0816 58.4248 92.1756 58.529C92.2701 58.6338 92.3993 58.7185 92.5441 58.7275C92.5938 58.7263 92.6434 58.7248 92.6931 58.7235C92.7921 58.707 92.8801 58.6673 92.9573 58.6038C93.2303 58.4233 93.5031 58.243 93.7761 58.0625C93.8343 58.0178 93.8781 57.9623 93.9068 57.8963C93.9466 57.8355 93.9693 57.768 93.9746 57.694C93.9893 57.5568 93.9446 57.3848 93.8506 57.2805Z" fill="#CE5C48"/>
<path d="M85.8211 52.3745C85.6919 52.1222 85.3576 51.952 85.0846 52.1012C84.1799 52.5965 83.3859 53.2295 82.6924 53.991C82.4959 54.2067 82.5874 54.6142 82.8184 54.7662C83.0936 54.947 83.3839 54.8705 83.5934 54.6402C83.6074 54.6247 83.6214 54.6095 83.6356 54.5942C83.6391 54.5905 83.6374 54.5925 83.6421 54.5875C83.6819 54.5467 83.7214 54.5055 83.7614 54.465C83.8419 54.3842 83.9239 54.305 84.0076 54.2277C84.1696 54.0777 84.3379 53.9342 84.5114 53.7977C84.6849 53.6612 84.8639 53.5315 85.0479 53.4095C85.0951 53.378 85.1421 53.3447 85.1911 53.3165C85.0631 53.3902 85.2276 53.2947 85.2509 53.2807C85.3486 53.2222 85.4479 53.1657 85.5479 53.111C85.8021 52.9717 85.9646 52.6545 85.8211 52.3745ZM97.4944 48.355C96.7131 48.3065 95.9281 48.4485 95.2196 48.7837C94.9574 48.908 94.8084 49.251 94.9464 49.5202C95.0824 49.7852 95.4016 49.9265 95.6829 49.7935C95.8284 49.7245 95.9771 49.6635 96.1299 49.6122C96.1441 49.6075 96.1586 49.6027 96.1729 49.5982C96.2059 49.5892 96.2389 49.58 96.2721 49.5715C96.3501 49.5517 96.4286 49.534 96.5076 49.5187C96.6656 49.4882 96.8254 49.4675 96.9859 49.4562C96.9959 49.4555 97.0744 49.4532 97.1026 49.4507C97.1069 49.4507 97.1109 49.4507 97.1151 49.4507C97.2019 49.4507 97.2884 49.4542 97.3749 49.4595C97.6641 49.4775 97.9674 49.2757 97.9869 48.967C98.0051 48.678 97.8046 48.3742 97.4944 48.355Z" fill="#804037"/>
<path d="M95.9124 58.9395C95.9124 58.9395 91.5171 60.6222 91.2111 60.8427C90.9054 61.0632 92.3806 64.1827 94.3249 63.1835C96.2691 62.184 95.9124 58.9395 95.9124 58.9395Z" fill="white"/>
<path d="M127.01 43.9279C126.64 43.6972 126.277 43.4577 125.92 43.2087C125.741 43.0842 125.565 42.9572 125.39 42.8279C125.297 42.7597 125.204 42.6907 125.112 42.6209C125.079 42.5954 125.045 42.5697 125.011 42.5439C125.002 42.5367 124.944 42.4917 124.928 42.4787C124.233 41.9329 123.568 41.3499 122.933 40.7352C122.655 40.4654 122.16 40.4374 121.886 40.7352C121.619 41.0269 121.589 41.4942 121.886 41.7822C123.218 43.0729 124.69 44.2232 126.262 45.2067C126.591 45.4124 127.092 45.2874 127.275 44.9412C127.467 44.5772 127.361 44.1474 127.01 43.9279ZM114.461 40.5904C114.333 40.1929 113.956 39.9834 113.551 40.0734C112.627 40.2782 111.719 40.5434 110.831 40.8677C110.647 40.9349 110.491 41.0339 110.389 41.2079C110.296 41.3667 110.256 41.6004 110.314 41.7784C110.429 42.1347 110.835 42.4377 111.225 42.2954C112.113 41.9712 113.021 41.7059 113.944 41.5012C114.323 41.4172 114.58 40.9574 114.461 40.5904Z" fill="#621406"/>
<path d="M100.984 114.799C100.984 114.799 95.7001 109.298 94.3248 107.272C92.9498 105.245 91.9363 103.653 90.8508 104.449C89.7651 105.245 90.5614 108.647 90.5614 108.647C90.5614 108.647 87.2319 107.417 84.7711 105.39C82.3104 103.364 80.5731 102.712 79.5599 103.219C78.5466 103.726 78.4741 104.522 78.4741 104.522C78.4741 104.522 75.2171 103.364 74.5656 104.449C73.9141 105.535 75.9409 107.996 75.9409 107.996C75.9409 107.996 74.2761 108.937 74.9276 110.529C75.5791 112.121 78.8361 115.089 78.8361 115.089C78.8361 115.089 77.4608 115.668 77.6781 116.681C77.8953 117.694 80.7903 120.734 85.9291 123.268C91.0678 125.801 97.2923 127.683 97.2923 127.683L100.984 114.799Z" fill="#E38E6C"/>
<path d="M99.6181 112.21C98.2931 111.303 97.1613 110.087 96.1778 108.826C95.1838 107.552 94.3829 106.156 93.4534 104.839C93.0096 104.21 92.4371 103.651 91.6461 103.529C90.9003 103.414 90.2126 103.771 89.8083 104.396C89.3626 105.085 89.3696 105.911 89.5453 106.686C89.6443 107.123 89.7678 107.575 89.9106 108.022C88.8563 107.409 87.7968 106.805 86.7951 106.108C85.5263 105.225 84.4843 104.003 83.1461 103.227C82.0016 102.564 80.2636 102.027 79.0251 102.748C78.5428 103.029 78.2313 103.532 78.1446 104.056C77.7468 103.855 77.3203 103.711 76.8716 103.636C76.0426 103.497 74.9828 103.465 74.3801 104.156C73.3191 105.373 74.2543 106.868 75.2808 107.915C74.9726 108.087 74.7031 108.339 74.5201 108.64C74.0058 109.486 74.2568 110.521 74.6681 111.35C75.3756 112.776 76.4818 114.025 77.7321 115.036C77.5703 115.167 77.4281 115.324 77.3221 115.502C76.9051 116.199 77.1046 117.057 77.5093 117.71C78.4251 119.187 80.0336 120.243 81.4833 121.136C84.7116 123.123 88.1131 124.866 91.5958 126.361C92.5983 126.791 93.6073 127.207 94.6246 127.601C95.6526 127.999 96.6916 128.349 97.8011 128.405C98.5731 128.444 98.5568 127.276 97.8011 127.213C96.1963 127.081 94.6398 126.366 93.1621 125.769C91.6271 125.149 90.1133 124.475 88.6208 123.758C87.1611 123.058 85.7261 122.308 84.3153 121.514C82.9508 120.746 81.5551 119.973 80.3111 119.016C79.6688 118.523 79.0066 117.952 78.5441 117.281C78.3421 116.988 78.1048 116.579 78.2083 116.208C78.2913 115.911 78.5563 115.707 78.8508 115.827C79.4573 116.073 79.7613 115.149 79.2748 114.822C78.0553 114.001 76.9868 112.952 76.1653 111.732C75.7773 111.155 75.3161 110.471 75.3156 109.748C75.3153 109.198 75.7731 108.577 76.3696 108.822C76.8516 109.02 77.2951 108.255 76.8871 107.933C76.2083 107.399 74.3923 105.913 75.1236 104.884C75.4703 104.396 76.4026 104.5 76.9066 104.6C77.4218 104.703 77.9151 104.904 78.3556 105.189C78.4716 105.368 78.6316 105.528 78.8396 105.653C79.4513 106.022 80.0096 105.064 79.3986 104.697C79.1076 104.522 79.1901 104.065 79.3826 103.838C79.7218 103.437 80.4053 103.444 80.8751 103.517C82.1726 103.717 83.1756 104.463 84.1298 105.312C86.0178 106.993 88.1468 108.295 90.4228 109.379C90.4243 109.383 90.4258 109.386 90.4273 109.39C90.7013 110.003 91.5783 109.545 91.4581 108.955C91.2908 108.133 90.9291 107.352 90.7218 106.539C90.5816 105.988 90.4851 105.246 90.9571 104.813C91.9704 103.883 93.2718 106.48 93.6896 107.099C95.2081 109.346 96.8583 111.49 99.1858 112.948C99.6576 113.244 100.068 112.518 99.6181 112.21Z" fill="#DC815C"/>
<path d="M99.5404 132.852C99.1894 132.699 94.4294 130.169 93.7907 129.147C93.1517 128.125 95.8349 119.819 97.6239 115.475C99.4127 111.131 100.818 110.875 102.863 111.259C104.907 111.642 136.084 120.203 136.084 120.203C136.084 120.203 149.372 123.141 152.055 124.036C154.739 124.93 142.6 147.802 137.617 147.674C132.633 147.546 112.956 138.73 99.5404 132.852Z" fill="#E84551"/>
<path d="M108.927 113.461C105.786 118.245 103.864 123.785 103.333 129.481C103.179 131.126 103.148 132.78 103.232 134.431C103.256 134.905 103.996 134.908 103.972 134.431C103.687 128.796 104.804 123.112 107.218 118.011C107.902 116.565 108.689 115.172 109.566 113.835C109.828 113.435 109.188 113.064 108.927 113.461Z" fill="#BC2328"/>
<path d="M158.552 143.601C156.132 146.134 153.024 147.528 149.633 147.863C145.572 148.265 141.404 148.016 137.396 147.283C133.116 146.501 129.041 145.066 125.065 143.321C121.007 141.541 116.989 139.667 112.955 137.833C108.321 135.726 103.687 133.619 99.0535 131.513C98.6897 131.347 98.2567 131.409 98.0405 131.778C97.8545 132.096 97.9402 132.625 98.306 132.791C106.705 136.61 115.08 140.485 123.507 144.241C127.566 146.05 131.695 147.64 136.061 148.529C140.269 149.386 144.631 149.73 148.917 149.406C152.929 149.103 156.727 147.654 159.598 144.648C160.257 143.959 159.211 142.91 158.552 143.601Z" fill="#FBDDB4"/>
<path d="M140.591 120.623C139.273 120.365 137.958 120.096 136.644 119.821C136.657 119.765 136.663 119.707 136.656 119.647C136.349 117.062 136.043 114.476 135.736 111.891C135.689 111.494 135.43 111.151 134.996 111.151C134.632 111.151 134.208 111.491 134.256 111.891C134.556 114.428 134.857 116.964 135.158 119.501C127.04 117.758 118.991 115.699 111.038 113.312C108.292 112.488 105.558 111.626 102.837 110.727C101.93 110.427 101.541 111.857 102.443 112.154C112.083 115.338 121.877 118.053 131.783 120.281C134.579 120.909 137.385 121.499 140.198 122.051C141.128 122.234 141.526 120.807 140.591 120.623Z" fill="#BC2328"/>
<path d="M159.527 76.5605C159.527 76.5605 168.098 84.8663 164.193 90.7235C160.881 95.6925 150.943 89.0673 149.286 85.3403C147.63 81.6135 159.527 76.5605 159.527 76.5605Z" fill="#3A1714"/>
<path d="M160.467 77.4724C160.467 77.4724 163.366 81.6134 160.881 86.1684C160.22 87.3807 159.152 88.3722 158.116 89.2609C156.758 90.4257 155.29 91.4617 153.793 92.4387C152.32 93.4002 150.808 94.3024 149.27 95.1567C147.667 96.0474 146.105 96.9269 144.234 97.0769C143.893 97.1044 143.542 97.1094 143.216 97.0047C142.827 96.8799 142.503 96.6094 142.131 96.4412C141.405 96.1122 140.57 96.1959 139.773 96.1797C138.976 96.1634 138.089 95.9859 137.633 95.3322C137.455 95.0777 137.36 94.7719 137.176 94.5219C136.786 93.9922 136.183 93.8814 135.602 93.7017C135.055 93.5324 134.341 93.1802 133.971 92.7317C133.487 92.1462 133.533 91.2419 133.941 90.6012C134.324 89.9987 134.99 89.5539 135.152 88.8587C135.349 88.0104 134.714 87.2084 134.547 86.3534C134.34 85.2914 134.883 84.2129 135.606 83.4074C136.328 82.6022 137.233 81.9797 137.981 81.1972C137.981 81.1972 133.966 80.3712 133.552 77.8867C133.138 75.4022 135.208 76.2304 138.521 76.2304C141.833 76.2304 145.399 76.1672 148.459 75.4022C151.771 74.5739 157.568 73.3317 160.467 77.4724Z" fill="#E99167"/>
<path d="M137.512 80.6156C138.873 79.3621 140.248 78.8398 141.833 77.8868C142.636 77.4043 143.477 78.0781 142.686 78.5698C141.219 79.4823 139.86 80.5263 138.569 81.6723C137.854 82.3076 136.8 81.2708 137.512 80.6156Z" fill="#DC815C"/>
<path d="M53.5509 106.038C53.5509 106.038 52.1647 104.903 50.5264 107.424C48.8882 109.944 48.1319 121.916 50.2744 125.319C52.4167 128.721 54.1809 127.965 55.9454 126.831C57.7097 125.697 57.6012 121.019 57.8444 117.561C58.0877 114.103 55.5674 105.282 53.5509 106.038Z" fill="#3A1714"/>
<path d="M55.9616 122.458C55.9616 122.458 57.7958 122.626 60.2331 122.219C62.6703 121.813 61.9373 119.045 60.2033 118.847C57.9006 118.584 58.0368 118.576 58.0368 118.576L57.8443 117.561C57.8443 117.561 63.0453 117.355 63.6888 115.133C64.1801 113.436 62.3936 112.676 62.3936 112.676C62.3936 112.676 65.9223 112.408 65.2918 109.978C64.6376 107.457 58.1153 107.676 58.1153 107.676C58.1153 107.676 58.2828 106.294 58.4181 105.753C58.5536 105.211 61.4471 105.599 62.2593 103.162C63.0718 100.725 58.4763 100.938 56.0391 101.074C53.6018 101.209 51.8866 102.802 52.1573 104.02C52.4281 105.239 51.6383 106.447 50.6906 108.343C49.7428 110.239 51.8148 111.604 50.7798 112.631C48.6458 114.749 51.4801 116.748 51.2093 117.696C50.9391 118.644 49.5976 122.458 55.9616 122.458Z" fill="#E99167"/>
<path d="M62.3464 103.279C61.9771 103.063 61.7971 103.494 60.9989 104.068C60.6774 104.299 60.2911 104.509 59.9339 104.609C59.4146 104.755 58.8819 104.867 58.3451 104.923C57.2206 105.04 56.0906 104.981 54.9879 104.732C54.0599 104.523 53.6636 105.95 54.5941 106.16C55.9634 106.469 57.2784 106.426 58.6696 106.24C59.9246 106.071 61.2384 105.484 62.0121 104.377C62.2414 104.05 62.6719 103.469 62.3464 103.279ZM58.8964 118.243L55.0036 117.669C54.6166 117.636 54.2464 118.033 54.2631 118.409C54.2824 118.839 54.5891 119.114 55.0036 119.15L58.6959 119.278C59.0829 119.311 60.3166 119.187 60.2999 118.81C60.2806 118.381 59.3109 118.278 58.8964 118.243Z" fill="#DC815C"/>
</svg>
