<svg width="96" height="98" viewBox="0 0 96 98" fill="none" xmlns="http://www.w3.org/2000/svg">
<g clip-path="url(#clip0_121_3294)">
<rect y="0.542969" width="96" height="97.4545" rx="20.8831" fill="#EBF5FE"/>
<path d="M69.028 101.981C69.028 101.981 69.0439 126.309 68.5279 141.268C68.0121 156.228 65.4489 167.252 65.4489 167.252C65.4489 167.252 76.1015 208.277 80.4859 217.82C80.4859 217.82 82.1622 219.496 76.3595 223.623C70.5566 227.75 63.8183 230.636 62.529 229.346C61.2395 228.057 43.4473 178.191 40.6105 166.585C37.7734 154.979 30.358 140.237 28.6817 128.76C27.0054 117.282 29.649 100.84 29.649 100.84C29.649 100.84 59.0985 97.9838 69.028 101.981Z" fill="#953938"/>
<path d="M64.8702 66.9277C64.0309 68.6065 59.1289 82.7828 59.1289 82.7828C59.1289 82.7828 59.6616 95.3399 62.0795 97.5116C64.4974 99.6833 69.0613 96.1458 71.0328 89.9319C73.004 83.7179 76.4009 75.4437 76.7547 73.3351C77.1085 71.2264 76.5481 69.873 72.0011 67.5478C70.2845 66.6701 66.007 64.6541 64.8702 66.9277Z" fill="#B3AB76"/>
<path d="M37.7557 41.8281C37.7557 41.8281 22.0365 47.1885 18.7672 51.595C15.4978 56.0015 16.0866 89.4614 19.2138 92.873C22.341 96.2847 27.7599 96.5441 27.902 96.402C28.0442 96.2598 27.3616 102.197 27.237 104.089C26.375 117.194 28.5739 114.955 28.5739 114.955C28.5739 114.955 34.2704 112.475 40.9157 113.066C47.5609 113.657 54.206 115.724 60.556 116.167C66.9058 116.61 69.2557 116.066 69.5573 115.709C71.7994 113.059 68.1364 102.758 65.1961 75.6966C64.1939 66.4743 61.5239 53.6736 60.4902 52.9353C59.4566 52.197 47.0326 44.3891 47.0326 44.3891L37.7557 41.8281Z" fill="#B3AB76"/>
<path d="M69.5129 99.0839C69.2833 97.4869 68.803 95.9111 68.443 94.3393C68.0908 92.8015 67.7592 91.2591 67.4461 89.713C66.808 86.559 66.2507 83.3874 65.7733 80.2052C65.5042 78.4111 65.2381 76.6178 65.0215 74.8166C64.9931 74.5822 64.8422 74.3855 64.5877 74.3828C64.3727 74.3805 64.1287 74.5838 64.1542 74.8166C64.8538 81.2666 65.8777 87.6615 67.2805 93.9972C67.474 94.8716 67.6748 95.7443 67.8831 96.6152C68.1009 97.5242 68.3019 98.4504 68.6289 99.3277C68.8387 99.8894 69.5962 99.663 69.5129 99.0839Z" fill="white"/>
<path d="M57.7643 70.6056C55.9644 72.5657 54.2094 74.5612 52.3531 76.4693C50.4973 78.377 48.5806 80.2272 46.6154 82.022C42.6545 85.639 38.4636 89.0212 34.2279 92.3099C33.055 93.2206 31.8571 94.1006 30.6135 94.9128C29.3776 95.7198 28.0854 96.4385 26.7908 97.1461C26.4362 97.34 26.6808 97.9719 27.0728 97.8151C29.5176 96.8366 31.7064 95.274 33.7966 93.6942C35.9655 92.0552 38.0639 90.3212 40.1788 88.6135C44.3678 85.2309 48.401 81.6617 52.1619 77.8059C54.2672 75.6475 56.3547 73.4288 58.2007 71.0419C58.436 70.7376 58.0404 70.3049 57.7643 70.6056Z" fill="#694645"/>
<path d="M53.1727 73.8451C51.8623 72.0389 50.5679 70.2471 49.5019 68.2806C48.9628 67.2857 48.4483 66.265 48.0721 65.1961C47.8878 64.6725 47.7379 64.1361 47.6438 63.5888C47.5745 63.1855 47.5545 62.7843 47.5442 62.3808C47.9817 62.0172 48.4157 61.6496 48.8442 61.2755C49.6589 60.5644 50.5798 59.8594 51.2498 59.0067C51.4377 58.7677 51.1947 58.3357 50.8919 58.5429C50.0956 59.0886 49.4034 59.8075 48.6712 60.4358C47.9239 61.077 47.1671 61.7078 46.4033 62.3297C44.87 63.5781 43.3003 64.7809 41.7155 65.9628C38.5344 68.3349 35.2878 70.6176 32.112 72.997C31.9229 73.1388 31.7352 73.2826 31.5465 73.4251C31.2103 71.5632 30.7857 69.7188 30.4991 67.8468C30.448 67.5124 29.8614 67.5874 29.903 67.9274C30.1485 69.9382 30.3735 71.9819 30.846 73.9556C29.5022 74.9838 28.1793 76.0373 26.8992 77.1457C26.5631 77.4367 27.0449 77.8949 27.3805 77.6271C30.4739 75.1598 33.6438 72.7971 36.8468 70.4748C40.0352 68.1631 43.2333 65.8615 46.3042 63.394C46.5851 63.1684 46.863 62.9388 47.1414 62.7102C47.1502 63.536 47.3543 64.3797 47.6004 65.1405C47.9552 66.2381 48.4604 67.2841 48.9968 68.3027C50.0701 70.3402 51.3333 72.3595 52.9038 74.0532C53.0332 74.1923 53.2885 74.0046 53.1727 73.8451ZM31.9216 64.1163C32.0659 64.3125 32.3844 64.1417 32.2562 63.9207C31.5351 62.678 30.677 61.4935 29.8529 60.3174C29.0386 59.1552 28.1906 58.0159 27.2878 56.9204C25.6032 54.8764 23.7169 52.9861 21.549 51.4542C21.0138 51.0759 20.4615 50.7253 19.8935 50.4023C19.7979 50.485 19.7057 50.5675 19.6172 50.6497C23.5403 52.9857 26.6055 56.4503 29.2472 60.1784C30.1637 61.472 30.9828 62.8404 31.9216 64.1163ZM74.7149 78.4687C72.7559 78.6902 70.6557 78.1712 68.8996 77.3177C67.9055 76.8345 66.9869 76.207 66.1398 75.499C66.0002 75.3823 65.8048 75.5683 65.9369 75.7019C67.4049 77.1873 69.3513 78.1942 71.3762 78.6726C72.5242 78.944 73.7605 79.0891 74.9236 78.9083C74.9856 78.7384 75.0466 78.5706 75.1067 78.405C74.977 78.4317 74.8466 78.4539 74.7149 78.4687Z" fill="#948B54"/>
<path d="M75.6972 59.2235C75.6972 59.2235 81.3492 40.7706 81.4786 39.933C81.608 39.0953 73.6834 36.7276 73.2429 36.8025C72.8025 36.8775 71.9386 37.6588 71.9386 37.6588C71.9386 37.6588 65.3154 56.1674 65.5408 57.0543C65.7658 57.9411 75.1274 60.1361 75.6972 59.2235Z" fill="#333333"/>
<path d="M73.068 37.8465C72.5671 38.9837 72.1862 40.1724 71.7626 41.3401C71.3314 42.5289 70.9238 43.7268 70.5155 44.9235C69.7064 47.294 68.8515 49.6621 68.1466 52.0659C68.0022 52.5584 68.726 52.8445 68.9007 52.3502C69.7361 49.9865 70.4585 47.5797 71.2554 45.2024C71.6508 44.0232 72.0561 42.8472 72.4452 41.666C72.8412 40.4647 73.2929 39.2772 73.6245 38.0563C73.7241 37.6899 73.2244 37.4914 73.068 37.8465ZM80.1194 40.4413C80.1137 40.4252 80.107 40.4096 80.0993 40.3943C80.0766 40.3495 80.0471 40.3075 80.0196 40.2657C80.0102 40.2515 80.0006 40.2378 79.9895 40.2248C79.968 40.1994 79.9424 40.1777 79.9179 40.1551C79.8927 40.1319 79.8683 40.1071 79.8399 40.0877C79.7979 40.0591 79.7512 40.0363 79.7059 40.0142C79.6909 40.0069 79.6754 40.0004 79.6593 39.9956C79.5946 39.976 79.5245 39.9568 79.4556 39.9579C79.4022 39.9587 79.3462 39.957 79.293 39.967C79.2387 39.9773 79.1847 39.9963 79.1331 40.0148C79.0663 40.0391 79.0039 40.0829 78.9471 40.1232C78.8904 40.1637 78.843 40.2204 78.7985 40.2726C78.7526 40.3269 78.7198 40.3952 78.69 40.4582C78.6825 40.4741 78.6762 40.4904 78.6712 40.5068C78.6689 40.5146 78.667 40.5223 78.6649 40.53C78.6541 40.5732 78.6388 40.6179 78.6365 40.6626C78.6334 40.7162 78.6363 40.7717 78.6413 40.825C78.6432 40.8437 78.6474 40.8619 78.6528 40.8801C78.6606 40.9394 78.6823 40.9922 78.7178 41.0385C78.7395 41.0802 78.771 41.1141 78.8081 41.1429C78.8088 41.1437 78.8092 41.1447 78.8098 41.1456C78.8595 41.2234 78.9114 41.2817 78.9876 41.3391C79.029 41.3704 79.0782 41.3927 79.1241 41.4157C79.1408 41.424 79.158 41.4313 79.1759 41.4368C79.2414 41.4566 79.3124 41.476 79.3819 41.4766C79.4535 41.4775 79.5297 41.4775 79.5996 41.4579C79.651 41.4435 79.705 41.4293 79.7541 41.4073C79.8029 41.3854 79.8509 41.3514 79.8929 41.323C79.9503 41.2844 79.9983 41.2295 80.0407 41.1761C80.0509 41.1631 80.0595 41.1493 80.0676 41.1349C80.0924 41.0905 80.121 41.0448 80.1377 40.9957C80.154 40.9475 80.1649 40.8961 80.1738 40.8465C80.1766 40.8312 80.1784 40.816 80.1791 40.8005C80.1809 40.7481 80.1782 40.6949 80.1738 40.6427C80.1726 40.626 80.1699 40.6093 80.1661 40.5928C80.154 40.5417 80.1367 40.491 80.1194 40.4413ZM79.3179 42.8249C79.3108 42.8023 79.3045 42.7758 79.2938 42.7535C79.2755 42.7159 79.25 42.68 79.2264 42.6458C79.198 42.6042 79.1567 42.5721 79.1189 42.5393C79.1064 42.5287 79.093 42.5199 79.0788 42.5118C79.0444 42.4921 78.9947 42.4619 78.9513 42.4473C78.906 42.432 78.8576 42.4216 78.8104 42.4135C78.7478 42.4026 78.6812 42.4078 78.6188 42.4162C78.6048 42.418 78.5911 42.4212 78.5775 42.4249C78.5297 42.4383 78.4796 42.4512 78.4339 42.4717C78.427 42.4748 78.4205 42.4782 78.414 42.4819C78.3788 42.5024 78.342 42.5258 78.3086 42.5491C78.2971 42.5573 78.2859 42.5658 78.2759 42.5754C78.2408 42.6088 78.207 42.6445 78.1773 42.6832C78.1479 42.7216 78.1274 42.7679 78.1062 42.8105C78.0997 42.8232 78.094 42.8362 78.0901 42.8497C78.0782 42.8894 78.0694 42.9311 78.0611 42.9716C78.0596 42.9789 78.0582 42.9862 78.0571 42.9938C78.0506 43.0453 78.0563 43.0998 78.0596 43.1509C78.0607 43.167 78.0627 43.1827 78.0663 43.1983C78.0763 43.2411 78.0913 43.2831 78.1049 43.3248C78.1076 43.333 78.1103 43.3409 78.1135 43.3488C78.1195 43.3636 78.127 43.3778 78.1354 43.3916C78.1609 43.434 78.1863 43.4797 78.2189 43.5177C78.2243 43.5242 78.2304 43.5302 78.2362 43.5361C78.2659 43.5653 78.2972 43.5962 78.3299 43.6221C78.3681 43.6521 78.4249 43.6778 78.4629 43.6955C78.4783 43.7028 78.494 43.7083 78.5107 43.7122C78.5641 43.7348 78.619 43.7425 78.6754 43.7356C78.7334 43.7387 78.7889 43.7266 78.8417 43.6995C78.8943 43.6772 78.9375 43.644 78.972 43.5999C78.9789 43.5935 78.9807 43.5834 78.987 43.5765C79.0108 43.5617 79.0356 43.548 79.0584 43.5323C79.1137 43.4943 79.1586 43.4415 79.2024 43.3914C79.2141 43.3778 79.2249 43.3638 79.2348 43.3488C79.2613 43.3077 79.2849 43.2634 79.3045 43.2188C79.3466 43.123 79.3502 43.0255 79.3423 42.9236C79.3395 42.889 79.3285 42.8591 79.3179 42.8249ZM78.5115 45.0448C78.5005 45.0035 78.4881 44.9596 78.4714 44.9194C78.4696 44.915 78.4675 44.9106 78.4652 44.9064C78.4474 44.8745 78.4251 44.8407 78.4044 44.8108C78.3988 44.8027 78.3925 44.7956 78.3854 44.7887C78.3587 44.7628 78.3312 44.7357 78.3022 44.7125C78.2988 44.7098 78.2953 44.7073 78.2917 44.705C78.2554 44.6812 78.2166 44.6612 78.1769 44.6438C78.173 44.6422 78.169 44.6405 78.1646 44.6392C78.1279 44.628 78.0888 44.6205 78.0513 44.6123C78.0417 44.6102 78.0319 44.6085 78.0221 44.6079C78.0177 44.6077 78.0135 44.6075 78.0091 44.6077C77.9694 44.6079 77.9271 44.609 77.8876 44.6121C77.8778 44.6129 77.8682 44.6146 77.8588 44.6171C77.8154 44.629 77.7688 44.6386 77.7281 44.6593C77.7123 44.6674 77.6733 44.6941 77.6778 44.6912C77.6649 44.6996 77.6436 44.7121 77.6275 44.7234C77.6236 44.7261 77.6196 44.7292 77.6159 44.7323C77.582 44.7613 77.5522 44.7956 77.5248 44.8306C77.5213 44.835 77.518 44.8398 77.5153 44.8446C77.495 44.8787 77.4754 44.916 77.4583 44.9517C77.4535 44.9615 77.4503 44.9716 77.4476 44.982C77.4378 45.0206 77.4265 45.0605 77.4205 45.0999C77.4196 45.1056 77.419 45.1112 77.4188 45.1168C77.4186 45.12 77.4188 45.1231 77.4188 45.1262C77.419 45.1648 77.4205 45.207 77.4232 45.2454C77.4234 45.251 77.4242 45.2565 77.4253 45.2621C77.4257 45.2646 77.4263 45.2669 77.4269 45.2694C77.4368 45.3074 77.4499 45.3481 77.4628 45.3851C77.4649 45.3909 77.4672 45.3967 77.47 45.4024C77.5104 45.4838 77.5718 45.5631 77.6488 45.6132C77.6509 45.6145 77.653 45.6157 77.6549 45.617C77.6716 45.6264 77.6887 45.6353 77.7058 45.6441C77.7227 45.6533 77.7398 45.6623 77.757 45.6712C77.7624 45.6735 77.768 45.675 77.7737 45.6767C77.807 45.6852 77.8501 45.6963 77.8839 45.7025C77.8868 45.703 77.8897 45.7036 77.8926 45.704C77.8979 45.7046 77.9031 45.7049 77.9085 45.7051C77.9502 45.7059 77.9932 45.7055 78.035 45.7003C78.0373 45.6998 78.0396 45.6996 78.0419 45.6992C78.0611 45.694 78.0799 45.6882 78.0986 45.6817C78.1178 45.6767 78.1368 45.6708 78.1552 45.6639C78.1606 45.6618 78.1656 45.6591 78.1704 45.6564C78.1773 45.6525 78.1811 45.6502 78.1872 45.6466C78.1966 45.6431 78.2068 45.6414 78.216 45.6378C78.2201 45.6362 78.2241 45.6343 78.2281 45.6322C78.2299 45.6312 78.2318 45.6301 78.2337 45.6291C78.2623 45.6124 78.2972 45.5907 78.3241 45.5715C78.331 45.5665 78.3374 45.561 78.3433 45.555C78.3681 45.5297 78.3946 45.502 78.4172 45.4746C78.4205 45.4704 78.4236 45.4661 78.4266 45.4617C78.4531 45.4203 78.4808 45.3746 78.4934 45.326C78.5009 45.2965 78.5174 45.2427 78.5205 45.2028C78.5238 45.1592 78.5205 45.1147 78.5165 45.0713C78.5153 45.0615 78.5136 45.0532 78.5115 45.0448ZM44.6705 50.4455C44.6786 50.185 44.5724 49.9345 44.4021 49.7416C44.2244 49.5404 43.9591 49.4473 43.6984 49.4279C43.4803 49.4116 43.2315 49.4801 43.0547 49.6091C42.9289 49.7009 42.822 49.8034 42.7441 49.9412C42.689 50.0389 42.6433 50.151 42.6258 50.2627C42.6141 50.3359 42.6018 50.4113 42.6016 50.486C42.6016 50.5649 42.6145 50.6449 42.6277 50.7221C42.6341 50.7611 42.6441 50.7995 42.6579 50.8367C42.6846 50.9087 42.7135 50.9828 42.7531 51.0492C42.8867 51.2744 43.1038 51.4401 43.3561 51.5103C43.606 51.5798 43.8813 51.5533 44.1088 51.4272C44.2355 51.3569 44.3376 51.251 44.415 51.13C44.4305 51.1058 44.4419 51.0803 44.4542 51.0552C44.5889 50.8805 44.6636 50.6666 44.6705 50.4455ZM48.5314 49.4968C48.4018 49.2876 48.206 49.1463 47.976 49.0662C47.7451 48.9856 47.4748 49.0136 47.2627 49.1327C47.0365 49.2599 46.8899 49.4841 46.811 49.7256C46.7382 49.9489 46.7369 50.1917 46.777 50.4209C46.829 50.7169 47.0511 50.9594 47.3349 51.0481C47.4863 51.0953 47.6466 51.0853 47.8 51.0465C47.9927 51.0154 48.1724 50.9183 48.3166 50.782C48.3441 50.7559 48.3694 50.7256 48.3947 50.6956C48.3991 50.6908 48.4032 50.6862 48.4074 50.6814C48.4272 50.6572 48.4448 50.6317 48.4627 50.6056C48.5151 50.5338 48.5587 50.457 48.588 50.3741C48.588 50.3737 48.5884 50.3735 48.5884 50.3731C48.5923 50.3618 48.5994 50.3518 48.6028 50.3403C48.6109 50.3132 48.6161 50.2856 48.6209 50.2581C48.6241 50.2445 48.6299 50.2311 48.6324 50.2176C48.679 49.9706 48.6673 49.7162 48.5314 49.4968Z" fill="#1A1A1A"/>
<path d="M44.5632 50.9008C44.5419 49.8888 42.967 49.8852 42.9885 50.9008C43.0507 53.8575 43.1459 56.8133 43.2741 59.768C43.3179 60.7774 44.8927 60.7829 44.8487 59.768C44.7205 56.8133 44.6254 53.8575 44.5632 50.9008ZM48.5426 50.6215C48.4266 49.6268 46.8504 49.6151 46.968 50.6215C47.2276 52.8454 47.3535 55.0728 47.3459 57.3117C47.3426 58.3252 48.9173 58.3266 48.9206 57.3117C48.9281 55.0728 48.8023 52.8454 48.5426 50.6215Z" fill="white"/>
<path d="M72.5145 68.3265C72.5145 68.3265 76.1314 70.2383 76.2347 71.9435C76.338 73.6487 71.4811 72.7185 71.4811 72.7185L72.5145 68.3265ZM55.1133 66.8093C55.1133 66.8093 57.8802 70.307 59.1672 69.7891C60.4543 69.2712 58.118 64.0859 58.118 64.0859L55.1133 66.8093Z" fill="#1A1A1A"/>
<path d="M67.0629 63.0989C67.0629 63.0989 65.4824 66.9478 65.4368 67.5005C65.1256 71.2808 71.4811 72.7276 71.4811 72.7276C71.4811 72.7276 72.3594 70.1956 72.699 68.7283C73.053 67.1991 75.2695 64.6139 75.8022 63.7956C76.3346 62.9774 76.3591 62.1335 77.0375 61.5141C77.7158 60.895 78.0586 60.2767 77.9544 59.007C77.8504 57.737 77.7162 55.6325 77.7162 55.6325C77.7162 55.6325 74.3359 48.594 73.7988 48.0697C73.2617 47.5451 72.3924 48.029 72.2581 48.5556C72.1237 49.0823 72.6827 50.7226 72.6827 50.7226L68.9018 54.1649C68.9018 54.1649 69.8692 55.9037 70.324 56.2742C70.7789 56.6447 69.5031 57.7013 69.6327 58.463C69.7624 59.2247 71.0018 60.9171 71.312 61.4242C71.6221 61.9312 70.1811 62.3443 69.3649 62.4831C68.5492 62.6221 67.0629 63.0989 67.0629 63.0989Z" fill="#EB966B"/>
<path d="M57.6477 65.2047L55.1143 66.8314C55.1143 66.8314 52.3 62.9349 52.2149 60.7386C52.1297 58.5422 54.8348 56.9285 56.2026 55.9267C57.5702 54.925 64.6706 49.1993 66.3185 48.15C67.9665 47.1006 71.3435 45.5172 72.2628 45.5353C73.1818 45.5535 72.8975 47.2157 72.8975 47.2157C72.8975 47.2157 72.2147 48.0734 70.7751 48.8417C69.3355 49.6101 66.1599 51.1971 65.7936 51.6083C65.4273 52.0196 66.5304 52.0937 67.8229 51.743C69.1153 51.3923 71.0707 50.5799 72.6627 50.9633C74.2545 51.3468 74.5548 52.3427 73.843 53.0307C73.1313 53.7189 70.3535 53.7988 68.6444 54.2639C66.9353 54.7292 65.9205 55.6869 65.9205 55.6869C65.9205 55.6869 66.6943 56.6458 68.7993 56.2004C70.9043 55.7551 74.2371 54.5774 74.7961 54.7876C75.3553 54.9978 75.4931 56.0649 74.8446 56.6114C74.196 57.1579 69.1028 58.2425 67.8744 58.713C66.646 59.1835 66.903 59.9251 66.903 59.9251C66.903 59.9251 68.0654 60.8615 69.614 60.9905C71.1625 61.1195 71.8551 61.089 72.0265 61.5833C72.1978 62.0776 71.2517 62.4131 69.7607 62.6231C68.2697 62.8331 64.1354 63.1437 62.3487 63.6657C60.562 64.188 57.6477 65.2047 57.6477 65.2047Z" fill="#EB966B"/>
<path d="M76.4621 51.8833C76.0221 51.065 75.5745 50.2503 75.113 49.444C74.8822 49.0405 74.6459 48.6401 74.4088 48.2402C74.2049 47.8966 74.0124 47.5242 73.6031 47.4025C73.525 47.3793 73.4495 47.3689 73.3752 47.3643C73.7352 46.8385 73.8838 46.2444 73.4198 45.7238C73.031 45.2878 72.4087 45.2061 71.865 45.3295C71.1835 45.484 70.5147 45.7896 69.8733 46.0611C68.3498 46.7063 66.8749 47.4505 65.4488 48.2888C65.1259 48.4785 65.3649 49.0119 65.6991 48.8238C66.8452 48.1786 68.0296 47.5891 69.2423 47.0798C69.8407 46.8285 70.4465 46.5963 71.0553 46.372C71.5329 46.196 72.3012 45.7948 72.7778 46.159C73.2257 46.5016 72.5914 47.1576 72.3198 47.4144C71.9322 47.7811 71.4776 48.0598 71.0082 48.3082C69.8589 48.9163 68.6741 49.4642 67.5055 50.0341C66.4747 50.5365 65.2485 51.0435 64.8201 52.2041C64.6413 52.689 65.3864 52.9693 65.5703 52.4869C65.5816 52.4575 65.596 52.4308 65.6085 52.4024C66.8098 52.6888 68.0851 52.1237 69.2302 51.8135C70.4602 51.4804 71.8717 51.1339 73.1403 51.4595C73.5311 51.5597 74.2003 51.9745 73.8128 52.441C73.5179 52.7959 72.9233 52.8731 72.5029 52.9616C71.1207 53.2528 69.7274 53.5127 68.3537 53.8414C67.1782 54.1228 66.0038 54.5829 65.4227 55.7151C65.313 55.9286 65.4758 56.2037 65.6797 56.2833C65.8174 56.3369 65.9444 56.3135 66.0493 56.2467C66.3958 56.5298 66.8469 56.64 67.2999 56.6736C68.0321 56.7281 68.7737 56.6615 69.4949 56.5325C70.9706 56.2687 72.3789 55.727 73.8306 55.3655C74.0631 55.3076 74.447 55.1594 74.6845 55.2659C74.8795 55.3533 74.8682 55.6245 74.7985 55.7952C74.582 56.3265 73.7601 56.5828 73.2839 56.7915C71.9134 57.3923 70.4767 57.7945 68.9993 58.025C68.2801 58.1373 67.495 58.2688 66.9356 58.7767C66.4102 59.2536 66.1224 59.9247 66.4461 60.5939C66.5954 60.9024 66.9611 60.824 67.0803 60.5766C67.6048 61.1469 68.595 61.3289 69.3062 61.4485C69.6335 61.5036 69.9628 61.5456 70.2935 61.575C70.6193 61.604 70.967 61.5852 71.2877 61.6543C71.426 61.6842 71.6915 61.7921 71.5805 61.9401C71.4189 62.1555 70.9518 62.2467 70.7061 62.2985C70.047 62.4373 69.3596 62.4342 68.6891 62.4655C67.9615 62.4993 67.2335 62.535 66.5075 62.5961C65.0856 62.7162 63.6884 62.9568 62.336 63.4196C60.8317 63.9342 59.3819 64.6416 57.7684 64.7247C57.5231 64.7374 57.3643 65.0246 57.3994 65.245C57.4417 65.5114 57.6772 65.6237 57.9197 65.6141C59.4399 65.5546 60.8449 64.9288 62.2526 64.4126C63.6999 63.882 65.1913 63.6161 66.7244 63.4883C67.5144 63.4226 68.3066 63.3862 69.0985 63.3487C69.7973 63.3155 70.5101 63.3088 71.1858 63.1067C71.2225 63.0957 71.2613 63.0821 71.2993 63.0698C71.4886 63.1291 71.262 63.356 71.2382 63.3745C71.0463 63.524 70.8658 63.6868 70.7312 63.8918C70.6583 64.0026 70.5978 64.1212 70.5519 64.2456C70.4913 64.4095 70.4168 64.6169 70.5101 64.7798C70.6366 65.0004 70.8635 65.038 71.0704 64.9037C71.195 64.823 71.1033 64.498 71.8074 63.9231C72.0435 63.7304 72.1967 63.4624 72.1516 63.1474C72.1305 63.0009 72.0601 62.8734 71.9558 62.7721C72.2536 62.5834 72.4901 62.3242 72.5164 61.9566C72.5584 61.3704 72.09 60.9703 71.5776 60.8183C71.3194 60.4522 71.0326 60.1065 70.7522 59.7575C70.4968 59.4398 70.2072 59.129 70.0686 58.7447C70.125 58.7341 70.1818 58.7236 70.2375 58.7115C70.779 58.5942 71.3206 58.4533 71.8558 58.2874C71.8963 58.3356 71.9414 58.3805 71.9827 58.4262C72.0535 58.5045 72.1259 58.58 72.201 58.6541C72.3672 58.8182 72.5386 58.9781 72.7103 59.1363C72.8619 59.2757 73.0136 59.4154 73.1652 59.5548C73.2432 59.6266 73.3205 59.6993 73.401 59.7682C73.5158 59.8663 73.6367 59.98 73.7987 59.9765C74.0564 59.9708 74.2257 59.8051 74.2053 59.5413C74.1927 59.3832 74.0821 59.2766 73.9744 59.1741C73.8809 59.085 73.7849 58.9992 73.688 58.9136C73.5294 58.7733 73.3706 58.633 73.2119 58.4928C73.0581 58.3569 72.9022 58.2231 72.7444 58.092C72.7133 58.0661 72.6805 58.0425 72.649 58.0175C73.2743 57.7895 73.8859 57.5263 74.4697 57.2201C75.0001 56.9418 75.5249 56.555 75.682 55.9464C75.8286 55.3782 75.6363 54.7311 75.0786 54.47C74.4743 54.1869 73.7381 54.4729 73.1409 54.6415C72.397 54.8515 71.6625 55.0926 70.9198 55.3062C70.6842 55.374 70.3861 55.4636 70.1478 55.5245C70.0645 55.4498 69.7385 55.0626 69.6873 55.0047C69.5907 54.8956 69.3298 54.5806 69.2937 54.5345C70.0096 54.3825 70.7257 54.2308 71.4417 54.0788C72.1178 53.9354 72.8158 53.83 73.4733 53.6139C73.97 53.4507 74.4848 53.1572 74.6901 52.6477C74.9248 52.0655 74.6757 51.4211 74.2017 51.0416C73.9331 50.8266 73.6091 50.7031 73.2716 50.6296C73.2599 50.6008 73.2453 50.5716 73.224 50.5425C72.8727 50.0622 72.6089 49.4759 72.7316 48.8678C72.7855 48.6011 72.9339 48.279 73.2046 48.1725C73.5223 48.0475 73.6832 48.5835 73.807 48.8002C74.6424 50.2607 75.471 51.7282 76.2414 53.2242C76.9778 54.6536 77.6642 56.224 77.407 57.868C77.3515 58.2235 77.2705 58.5721 77.2753 58.9338C77.2799 59.2791 77.3611 59.6083 77.4153 59.9473C77.4564 60.2025 77.497 60.4785 77.3204 60.6914C77.13 60.9212 76.8301 61.0335 76.6476 61.2788C76.3928 61.6211 76.4886 61.9274 76.4621 62.316C76.4406 62.6325 76.0705 62.8228 75.8624 63.0226C75.3076 63.5547 75.1274 64.0243 74.5822 64.886C74.3002 65.3319 74.4608 65.579 74.8283 65.2025C75.4099 64.6071 75.8417 64.4084 76.0292 64.1039C76.2356 63.7682 76.5243 63.5518 76.8027 63.2848C77.057 63.0408 77.2509 62.7577 77.2769 62.3981C77.2893 62.2242 77.1981 61.9808 77.2703 61.8182C77.3291 61.6856 77.5189 61.5873 77.627 61.5057C78.2741 61.0175 78.3325 60.3745 78.1941 59.6204C78.1238 59.2369 78.0776 58.9011 78.1334 58.5107C78.2002 58.0434 78.2939 57.5941 78.2895 57.1184C78.2717 55.225 77.336 53.5085 76.4621 51.8833ZM70.2738 50.7388C69.488 50.9068 68.7207 51.1523 67.9544 51.3921C67.3341 51.5862 66.7167 51.7749 66.0759 51.7716C66.2554 51.6077 66.4597 51.467 66.673 51.3431C67.2552 51.0047 67.8749 50.726 68.4786 50.4288C69.6618 49.8458 70.9149 49.3233 72.0272 48.6073C72.0101 48.6699 71.9952 48.7322 71.9854 48.7929C71.8909 49.3747 72.0495 50.0205 72.3758 50.53C71.6698 50.506 70.9635 50.5914 70.2738 50.7388ZM68.5017 55.8268C67.9578 55.8873 67.0114 56.0297 66.5054 55.6604C67.0158 55.093 67.7582 54.8778 68.5195 54.7081C68.5232 54.7269 68.9678 55.3755 69.0812 55.5126C69.1377 55.5813 69.2006 55.6443 69.2613 55.7094C69.0094 55.7566 68.7566 55.7984 68.5017 55.8268ZM70.594 60.7142C70.4813 60.71 70.3688 60.7052 70.2573 60.696C69.8443 60.6616 69.4322 60.6096 69.0237 60.5397C68.4948 60.4491 67.5871 60.313 67.4234 59.6878C67.4159 59.6596 67.4013 59.6396 67.39 59.6158C67.5864 59.3847 67.8645 59.2127 68.1469 59.1179C68.5289 58.99 68.9336 58.9242 69.3387 58.8635C69.4128 59.3438 69.7944 59.7521 70.0977 60.1159C70.2632 60.3144 70.4271 60.5157 70.594 60.7142Z" fill="#D97E56"/>
<path d="M42.8236 35.2563C42.8236 35.2563 41.3496 33.5142 37.128 33.3131C32.9066 33.1121 28.8861 33.5142 27.613 35.1893C26.3398 36.8646 33.3756 39.2098 36.994 42.6945C40.6123 46.1789 43.9626 39.344 43.9626 39.344L42.8236 35.2563Z" fill="#67602B"/>
<path d="M48.9624 45.8778C48.9624 45.8778 50.6598 43.8227 50.3025 41.8573C49.9451 39.8916 44.3165 34.7096 40.0279 33.4586C35.7396 32.2079 29.1282 33.4586 27.252 34.4414C25.3757 35.4241 28.8949 36.1282 28.8949 36.1282C28.8949 36.1282 27.1942 34.9259 29.5171 34.3005C31.8401 33.6751 35.918 33.4586 39.2237 33.9947C42.5293 34.5307 46.7284 42.2146 46.4604 43.5547C46.1928 44.8948 48.6051 45.5202 48.9624 45.8778Z" fill="#B3AB76"/>
<path d="M60.3241 15.4163C59.7834 14.534 59.09 13.7491 58.2864 13.0983C57.8961 12.782 57.3357 13.3358 57.7297 13.655C58.7955 14.5183 59.6747 15.6424 60.2053 16.909C60.0381 16.5919 59.8488 16.2867 59.6327 16.0014C58.2555 14.1822 55.9478 13.2166 53.6806 13.4759C53.1041 13.5418 52.542 13.6723 52.0038 13.8919C51.4261 14.1278 50.9028 14.4812 50.3213 14.7058C49.6498 14.965 48.9585 14.9556 48.2845 14.7131C47.7078 14.5054 47.173 14.2033 46.566 14.0843C44.5367 13.6865 42.2967 14.7179 41.3797 16.5942C41.1102 17.1453 40.9405 17.7429 40.6329 18.2752C40.3348 18.791 39.8743 19.1189 39.3905 19.446C38.9158 19.7668 38.4512 20.0969 38.1068 20.5623C37.767 21.0218 37.5631 21.5714 37.4439 22.1266C37.1686 23.4106 37.136 24.8039 37.1579 26.1121C37.1805 27.4396 37.3644 28.7779 37.8749 30.0111C38.3356 31.1235 39.0419 32.1014 40.0169 32.8168C40.9677 33.5141 42.1148 33.9047 43.2771 34.0527C45.8317 34.3783 48.3461 33.4033 50.4862 32.0809C52.4942 30.8404 54.356 29.2098 55.5107 27.1236C55.5971 26.9675 55.6775 26.808 55.7549 26.6473C55.8222 26.6715 55.9009 26.6759 55.9887 26.6504C56.965 26.3667 58.0328 25.8804 58.9391 25.1229C60.3019 23.9838 61.2172 22.3564 61.4625 20.6076C61.7163 18.8004 61.2734 16.966 60.3241 15.4163Z" fill="#3A1714"/>
<path d="M37.3027 42.5192C38.2042 43.7212 44.2263 48.7637 45.1261 48.8064C45.687 48.8332 47.1402 46.1068 47.357 44.9101C47.2364 44.4246 47.2836 43.4903 47.3675 42.6267C47.4226 42.0625 47.4961 41.5271 47.5487 41.1649C47.5906 40.8867 41.2147 29.2812 41.2147 29.2812C41.2147 29.2812 39.2473 39.648 37.3027 42.5192Z" fill="#EB966B"/>
<path d="M41.0072 31.2371C40.9053 32.0702 40.6805 32.8762 40.5613 33.7061C40.3493 35.1833 40.5104 36.675 40.9531 38.0965C41.322 39.2811 41.9112 40.4454 42.8457 41.2844C43.36 41.7463 43.9701 42.0419 44.6034 42.3059C45.34 42.6128 46.1048 42.8534 46.8859 43.0171C47.0337 43.048 47.1825 43.073 47.3311 43.0981C47.343 42.9426 47.3561 42.7869 47.3712 42.6328C47.4263 42.0686 47.4998 41.5332 47.5524 41.171C47.5862 40.9464 43.0406 32.8442 41.2879 29.7305C41.1257 30.2133 41.0686 30.7366 41.0072 31.2371Z" fill="#1A1A1A"/>
<path d="M56.8149 23.6532C56.5897 23.4747 54.751 24.9862 47.3981 22.5352C46.5901 24.1575 46.4521 23.8682 45.5921 24.6422C45.4009 24.8142 44.6109 25.1081 44.56 25.3556C44.508 25.6084 44.1335 27.6937 43.8722 28.0392C43.5626 28.5936 42.8085 27.7736 42.8085 27.7736C42.8085 27.7736 42.639 26.6187 42.0779 26.0359C41.3284 25.2573 40.0341 25.1028 38.9971 26.2655C36.3349 29.2505 40.0543 32.1344 40.0543 32.1344C39.9779 35.8832 41.8164 39.6841 46.5055 41.1626C48.0286 41.6427 51.3372 42.1077 52.8061 40.958C55.5855 38.7821 56.5229 29.6859 56.803 28.5339C57.0804 27.3946 56.9909 25.0751 56.8149 23.6532Z" fill="#EB966B"/>
<path d="M45.1291 48.8173C45.1291 48.8173 39.0459 42.6793 34.4597 39.418C29.8734 36.1566 27.0199 35.8508 27.7333 34.7297C28.4467 33.6086 25.2874 35.1374 25.0835 36.6662C24.8798 38.195 27.5294 40.7428 26.6122 42.2716C25.6951 43.8004 25.1855 45.2271 26.1027 47.0618C27.0201 48.8961 45.1291 48.8173 45.1291 48.8173Z" fill="#B3AB76"/>
<path d="M42.232 48.0359C38.708 44.1813 34.5461 40.8974 30.0058 38.3195C28.7445 37.6033 27.4651 36.9863 26.39 35.9936C26.1163 35.7408 25.7615 36.1155 25.9884 36.3952C26.7705 37.3585 27.9671 37.9225 29.0317 38.5093C30.1866 39.1461 31.3187 39.8243 32.4219 40.5474C34.6056 41.9785 36.677 43.5793 38.6138 45.3302C39.7197 46.3299 40.7821 47.3786 41.8028 48.4649C42.0712 48.7508 42.4948 48.3235 42.232 48.0359ZM48.0255 43.243C47.9002 43.5194 47.813 43.8169 47.7041 44.1001C47.6083 44.3489 47.5158 44.5973 47.4054 44.8403C47.1691 45.3619 46.9136 45.8794 46.6211 46.372C46.5443 46.5017 46.5917 46.6778 46.7211 46.7536C46.8631 46.8367 47.0127 46.7749 47.1027 46.6536C47.4573 46.1754 47.7706 45.6776 48.0207 45.1363C48.272 44.5923 48.5306 43.9999 48.6079 43.4011C48.6473 43.0967 48.1495 42.969 48.0255 43.243ZM34.7033 44.7353C32.5755 43.8906 30.2596 43.5382 27.9765 43.5653C27.5864 43.5699 27.5852 44.1721 27.9765 44.1721C29.3788 44.1726 30.757 44.3379 32.1125 44.6318C31.8646 44.6948 31.6195 44.7647 31.3828 44.8261C30.7948 44.9785 30.212 45.1515 29.6362 45.3446C28.4668 45.7362 27.3301 46.2117 26.2528 46.8121C26.0917 46.9018 26.2334 47.1212 26.3935 47.0529C27.5146 46.5747 28.6486 46.1186 29.8092 45.7444C30.368 45.5642 30.9328 45.4027 31.5024 45.2601C32.0437 45.1246 32.6246 45.0562 33.157 44.8875C33.6233 45.0117 34.0873 45.1476 34.5482 45.2991C34.9118 45.4185 35.0448 44.871 34.7033 44.7353Z" fill="#948B54"/>
<path d="M48.2493 29.4754C48.2115 29.4134 48.1689 29.3547 48.1178 29.3051C47.9606 29.1523 47.7278 29.0836 47.5168 29.1608C47.3265 29.2307 47.1724 29.3685 47.0914 29.5562C47.0148 29.7336 46.981 29.9233 46.9702 30.1162C46.9591 30.3156 47.0115 30.5347 47.162 30.6752C47.4502 30.9443 47.9291 30.8885 48.1712 30.5857C48.4093 30.2884 48.5123 29.7895 48.2493 29.4754ZM55.5865 30.5811C55.5488 30.5191 55.5062 30.4604 55.455 30.4108C55.2979 30.258 55.0651 30.1893 54.8541 30.2665C54.6638 30.3364 54.5097 30.4742 54.4287 30.6619C54.3523 30.8393 54.3183 31.029 54.3075 31.2217C54.2964 31.421 54.3488 31.6402 54.4993 31.7807C54.7875 32.0496 55.2664 31.994 55.5085 31.6912C55.7467 31.3941 55.8495 30.8952 55.5865 30.5811Z" fill="#1A1A1A"/>
<path d="M51.7185 34.9086C51.6438 34.8399 51.5447 34.7879 51.4401 34.7934C51.161 34.8076 50.8822 34.8215 50.6029 34.8357C50.4989 34.8409 50.3996 34.876 50.3246 34.9509C50.2564 35.0192 50.205 35.1313 50.2092 35.2292C50.2138 35.3311 50.2472 35.4367 50.3246 35.5077C50.3996 35.5763 50.4985 35.6283 50.6029 35.6229C50.882 35.6087 51.161 35.5947 51.4401 35.5805C51.5443 35.5753 51.6434 35.5402 51.7185 35.4653C51.7868 35.397 51.8381 35.2849 51.8338 35.187C51.8292 35.0852 51.7958 34.9795 51.7185 34.9086Z" fill="#D95E56"/>
<path d="M48.8583 26.9907C47.895 26.8675 46.9137 26.933 45.9717 27.1681C45.7655 27.2196 45.6413 27.4509 45.6968 27.6524C45.7545 27.8619 45.9741 27.979 46.1811 27.9273C47.0582 27.7083 47.962 27.6632 48.8583 27.7778C49.0695 27.8047 49.252 27.5774 49.252 27.3841C49.252 27.1491 49.0701 27.0178 48.8583 26.9907ZM56.3999 28.4163C55.8693 28.3191 55.3441 28.1936 54.8267 28.0408C54.6295 27.9824 54.389 28.1112 54.3427 28.3157C54.2944 28.5272 54.4061 28.7376 54.6176 28.8C55.135 28.953 55.66 29.0782 56.1908 29.1755C56.3926 29.2125 56.6249 29.1202 56.675 28.9006C56.7189 28.7077 56.6164 28.456 56.3999 28.4163Z" fill="#3A1714"/>
<path d="M52.6809 37.0809C52.6809 37.0809 48.3925 35.6402 48.1243 35.9082C47.8563 36.1763 48.0239 39.5267 49.5649 39.4597C51.1062 39.3929 52.6809 37.0809 52.6809 37.0809Z" fill="white"/>
</g>
<defs>
<clipPath id="clip0_121_3294">
<rect y="0.542969" width="96" height="97.4545" rx="20.8831" fill="white"/>
</clipPath>
</defs>
</svg>
