<svg width="96" height="98" viewBox="0 0 96 98" fill="none" xmlns="http://www.w3.org/2000/svg">
<g clip-path="url(#clip0_121_3362)">
<rect y="0.542969" width="96" height="97.4545" rx="20.8831" fill="#DDF7E8"/>
<path d="M88.1599 37.8277L87.2312 39.0234C87.1744 39.0961 87.0825 39.131 86.992 39.1141L85.8443 38.898C85.5974 38.8513 85.4484 39.1635 85.6391 39.3279L86.5411 40.1067C86.6071 40.1637 86.6381 40.2512 86.623 40.3373L86.3965 41.6213C86.354 41.8629 86.6496 42.0122 86.8173 41.8339L87.7439 40.847C87.7983 40.789 87.8772 40.7609 87.9555 40.7719L89.0282 40.9185C89.2698 40.9517 89.4063 40.6489 89.2227 40.4878L88.4254 39.7882C88.3612 39.7321 88.3307 39.6466 88.3443 39.5623L88.5959 38.0196C88.637 37.7674 88.3163 37.6264 88.1599 37.8277ZM43.5997 8.55475L44.6992 9.31409C44.895 9.44932 44.8024 9.75622 44.5644 9.76027L43.2594 9.78241C43.1804 9.78377 43.1071 9.8231 43.0622 9.88808L42.2506 11.0633C42.1199 11.2525 41.8239 11.1734 41.8053 10.9442L41.6874 9.50541C41.6817 9.43546 41.6463 9.37133 41.5901 9.32932L40.3196 8.37993C40.131 8.2389 40.2309 7.93889 40.4666 7.93907L41.9534 7.9401C42.0259 7.94016 42.0945 7.90814 42.1412 7.85265L43.1807 6.61328C43.3336 6.431 43.6301 6.55193 43.6121 6.78917L43.4947 8.33472C43.4879 8.42153 43.5278 8.50529 43.5997 8.55475ZM29.3148 16.7969L29.5301 17.1709C29.6489 17.3771 29.4332 17.6144 29.2166 17.5158L28.8354 17.3423C28.7635 17.3096 28.6803 17.3135 28.6119 17.3529L28.1583 17.6141C27.959 17.7288 27.7258 17.5302 27.8073 17.3151L27.9983 16.8114C28.0232 16.7457 28.0187 16.6726 27.9859 16.6105L27.7051 16.0773C27.5953 15.869 27.8143 15.6409 28.027 15.7423L28.5163 15.9755C28.5816 16.0067 28.6575 16.0073 28.7233 15.9772L29.2782 15.7235C29.4946 15.6246 29.7107 15.8613 29.5924 16.0678L29.3145 16.5531C29.2713 16.6286 29.2714 16.7214 29.3148 16.7969Z" fill="#F4AD5E"/>
<path d="M80.4985 52.7806C80.4985 69.9495 66.5804 83.868 49.4115 83.868C32.2424 83.868 18.3242 69.9495 18.3242 52.7806C18.3242 35.6118 32.2424 21.6935 49.4115 21.6935C66.5804 21.6935 80.4985 35.6118 80.4985 52.7806Z" fill="#032068"/>
<path d="M73.3989 52.7787C73.3989 66.0271 62.6588 76.7672 49.4104 76.7672C36.1619 76.7672 25.4219 66.0271 25.4219 52.7787C25.4219 39.5302 36.1619 28.7902 49.4104 28.7902C62.6588 28.7902 73.3989 39.5302 73.3989 52.7787Z" fill="white"/>
<path fill-rule="evenodd" clip-rule="evenodd" d="M49.4123 29.4551C36.5275 29.4551 26.0823 39.9003 26.0823 52.7851C26.0823 65.6699 36.5275 76.1152 49.4123 76.1152C62.2971 76.1152 72.7424 65.6699 72.7424 52.7851C72.7424 39.9003 62.2971 29.4551 49.4123 29.4551ZM24.6895 52.7851C24.6895 39.131 35.7583 28.0623 49.4123 28.0623C63.0664 28.0623 74.1353 39.131 74.1353 52.7851C74.1353 66.4392 63.0664 77.5081 49.4123 77.5081C35.7583 77.5081 24.6895 66.4392 24.6895 52.7851Z" fill="#032068"/>
<path d="M65.8125 52.7853C65.8125 61.8431 58.4698 69.1858 49.412 69.1858C40.3545 69.1858 33.0117 61.8431 33.0117 52.7853C33.0117 43.7278 40.3545 36.3851 49.412 36.3851C58.4698 36.3851 65.8125 43.7278 65.8125 52.7853Z" fill="#032068"/>
<path d="M59.447 52.7858C59.447 58.3285 54.9535 62.8219 49.4108 62.8219C43.8681 62.8219 39.375 58.3285 39.375 52.7858C39.375 47.2431 43.8681 42.7496 49.4108 42.7496C54.9535 42.7496 59.447 47.2431 59.447 52.7858Z" fill="white"/>
<path fill-rule="evenodd" clip-rule="evenodd" d="M49.4115 43.1917C44.113 43.1917 39.8177 47.4871 39.8177 52.7856C39.8177 58.0841 44.113 62.3794 49.4115 62.3794C54.71 62.3794 59.0054 58.0841 59.0054 52.7856C59.0054 47.4871 54.71 43.1917 49.4115 43.1917ZM38.3965 52.7856C38.3965 46.7021 43.3281 41.7705 49.4115 41.7705C55.495 41.7705 60.4266 46.7021 60.4266 52.7856C60.4266 58.869 55.495 63.8006 49.4115 63.8006C43.3281 63.8006 38.3965 58.869 38.3965 52.7856Z" fill="#032068"/>
<path d="M53.3273 52.7839C53.3273 54.9469 51.5738 56.7005 49.4107 56.7005C47.2477 56.7005 45.4941 54.9469 45.4941 52.7839C45.4941 50.6209 47.2477 48.8673 49.4107 48.8673C51.5738 48.8673 53.3273 50.6209 53.3273 52.7839Z" fill="#032068"/>
<path d="M69.5866 30.2141L48.453 51.3477C48.3554 51.4453 48.2847 51.5695 48.2753 51.707C48.2011 52.7979 49.2258 53.8227 50.3165 53.7482C50.4543 53.739 50.5782 53.6684 50.6757 53.5708L71.8354 32.4111C71.951 32.2955 72.1033 32.2242 72.2662 32.2095L74.4792 32.0081C74.6418 31.9933 74.7944 31.9221 74.91 31.8065L77.6552 29.0613C78.0694 28.6471 77.8204 27.9377 77.2383 27.873L74.7926 27.6012C74.4677 27.5652 74.2113 27.3088 74.1753 26.9841L73.9036 24.5384C73.8388 23.9562 73.1295 23.7073 72.7153 24.1215L69.9958 26.8409C69.8649 26.972 69.7912 27.1496 69.7912 27.3349V29.72C69.7912 29.9053 69.7176 30.083 69.5866 30.2141Z" fill="#F4AD5E"/>
<path fill-rule="evenodd" clip-rule="evenodd" d="M19.7963 71.7519C19.7427 71.0727 20.3367 70.5411 21.0033 70.6097L22.808 70.7957C23.2391 70.84 23.6044 71.128 23.743 71.5325L25.0647 75.3882C25.3073 76.096 24.7728 76.8295 24.0143 76.8295H22.1148C21.7126 76.8295 21.3362 76.6143 21.1444 76.2583C20.3246 74.7362 19.9417 73.592 19.7963 71.7519ZM20.9264 71.3338C20.6977 71.3101 20.5171 71.4905 20.5332 71.6954C20.6699 73.4259 21.02 74.4743 21.7973 75.9171C21.8576 76.0289 21.979 76.1013 22.1148 76.1013H24.0143C24.2671 76.1013 24.4453 75.8571 24.3644 75.6208L23.0427 71.7655C22.9965 71.6306 22.8747 71.5345 22.731 71.5198L20.9264 71.3338ZM33.9869 71.7519C34.0405 71.0727 33.4465 70.5411 32.7799 70.6097L30.9753 70.7957C30.5442 70.84 30.1789 71.128 30.0402 71.5325L28.7185 75.3882C28.4759 76.096 29.0104 76.8295 29.769 76.8295H31.6684C32.0706 76.8295 32.447 76.6143 32.6388 76.2583C33.4587 74.7362 33.8415 73.592 33.9869 71.7519ZM32.8568 71.3338C33.0855 71.3101 33.2662 71.4905 33.25 71.6954C33.1133 73.4259 32.7632 74.4743 31.9859 75.9171C31.9256 76.0289 31.8042 76.1013 31.6684 76.1013H29.769C29.5161 76.1013 29.3379 75.8571 29.4188 75.6208L30.7405 71.7655C30.7867 71.6306 30.9085 71.5345 31.0522 71.5198L32.8568 71.3338Z" fill="#F4AD5E"/>
<path d="M25.4138 78.8879V80.713C25.4138 81.1151 25.7447 81.4409 26.153 81.4409H27.3848C27.793 81.4409 28.1239 81.1151 28.1239 80.713V78.9568C28.1239 78.6319 28.3442 78.3513 28.6583 78.2517C29.4727 77.993 30.4361 77.5489 30.7109 76.4665C31.0551 75.1106 31.3617 72.2377 31.4339 70.3999C31.4497 69.9981 31.1191 69.6722 30.7109 69.6722H23.0895C22.675 69.6722 22.3413 70.0072 22.3559 70.4152C22.428 72.4316 22.639 75.6111 23.0733 76.4665C23.4634 77.2352 24.3428 77.8516 24.9774 78.1955C25.2364 78.3356 25.4138 78.5967 25.4138 78.8879Z" fill="#F4AD5E"/>
<path d="M24.0412 83.3996L23.8328 80.7304C23.8217 80.5893 23.9349 80.469 24.0784 80.469H29.5825C29.726 80.469 29.8391 80.5893 29.8281 80.7304L29.6196 83.3996C29.6098 83.5258 29.5027 83.6237 29.374 83.6237H24.2869C24.1581 83.6237 24.0511 83.5258 24.0412 83.3996Z" fill="#032068"/>
</g>
<defs>
<clipPath id="clip0_121_3362">
<rect y="0.542969" width="96" height="97.4545" rx="20.8831" fill="white"/>
</clipPath>
</defs>
</svg>
