<svg width="96" height="98" viewBox="0 0 96 98" fill="none" xmlns="http://www.w3.org/2000/svg">
<rect y="0.542969" width="96" height="97.4545" rx="20.8831" fill="#FED7D7"/>
<path d="M69.2693 28.0781H18.4346C15.9854 28.0781 14 30.0636 14 32.5129V71.5964C14 74.0456 15.9854 76.0311 18.4346 76.0311H69.2693C71.7185 76.0311 73.7039 74.0456 73.7039 71.5964V32.5129C73.7039 30.0636 71.7185 28.0781 69.2693 28.0781Z" fill="white"/>
<path d="M58.3926 72.5742L63.8549 83.5753C63.9712 83.8092 64.1519 84.0051 64.3757 84.1399C64.5995 84.2746 64.8571 84.3427 65.1183 84.3361C65.3795 84.3294 65.6333 84.2483 65.85 84.1024C66.0666 83.9564 66.2371 83.7516 66.3414 83.512L71.0125 72.7639L58.3926 72.5742Z" fill="white"/>
<path d="M33.8708 37.0419L22.9933 39.4775C22.0801 39.6819 21.5056 40.5879 21.71 41.5011L23.7755 50.7266C23.9799 51.6398 24.8859 52.2143 25.7991 52.0099L36.6766 49.5743C37.5898 49.3699 38.1643 48.4639 37.9599 47.5507L35.8944 38.3252C35.69 37.412 34.784 36.8375 33.8708 37.0419Z" fill="#3C5969"/>
<path d="M77.7477 54.3443C64.5382 49.6484 50.3136 48.5695 36.547 51.2192L33.0391 35.5495C46.2011 31.0883 58.3962 24.1679 68.9761 15.156L77.7477 54.3443Z" fill="#95AFD7"/>
<path d="M77.75 54.3421C80.0971 53.8165 80.0358 44.6179 77.6131 33.7964C75.1903 22.9749 71.3236 14.6284 68.9764 15.1539C66.6293 15.6794 66.6906 24.878 69.1134 35.6995C71.5361 46.521 75.4029 54.8676 77.75 54.3421Z" fill="#3C5969"/>
<path d="M74.396 38.3728L63.4171 42.1636L61.207 32.2879L72.7531 31.0352L74.396 38.3728Z" fill="#95AFD7"/>
<path d="M74.395 38.3616C74.7907 38.273 74.7445 36.5619 74.2918 34.5399C73.8391 32.5178 73.1513 30.9504 72.7556 31.039C72.3599 31.1276 72.4061 32.8387 72.8588 34.8607C73.3115 36.8828 73.9993 38.4502 74.395 38.3616Z" fill="white"/>
<path d="M52.9745 68.7532L46.3425 70.2381C46.0755 70.2979 45.7993 70.3044 45.5297 70.2574C45.2601 70.2104 45.0025 70.1107 44.7714 69.9641C44.5404 69.8175 44.3404 69.6268 44.1831 69.4029C44.0257 69.1791 43.914 68.9264 43.8543 68.6593L38.7144 45.6989C38.5937 45.1597 38.6921 44.5946 38.988 44.128C39.2839 43.6614 39.753 43.3314 40.2922 43.2106L44.8487 42.1909C45.3561 42.0774 45.8876 42.1577 46.3388 42.4161C46.7899 42.6744 47.1283 43.0922 47.2872 43.5872L54.5035 66.0834C54.5918 66.359 54.6217 66.65 54.5914 66.9378C54.561 67.2257 54.471 67.504 54.3272 67.7552C54.1834 68.0063 53.9888 68.2248 53.7559 68.3966C53.523 68.5685 53.2569 68.6899 52.9745 68.7532Z" fill="#95AFD7"/>
<path d="M28.3173 36.1829L36.1921 34.4197L39.9149 51.048L32.048 52.8094C31.7675 52.8722 31.4735 52.821 31.2308 52.667C30.988 52.5131 30.8164 52.269 30.7536 51.9885L27.5026 37.4677C27.4405 37.1893 27.4914 36.8977 27.6442 36.6568C27.7969 36.4159 28.039 36.2455 28.3173 36.1829Z" fill="#3C5969"/>
</svg>
