<svg width="105" height="30" viewBox="0 0 105 30" fill="none" xmlns="http://www.w3.org/2000/svg">
<path d="M49.9286 29.2049C49.1781 29.2049 48.4089 29.1392 47.6208 29.0079C46.8328 28.8766 46.0823 28.6795 45.3693 28.4169C44.6751 28.1729 44.0747 27.8446 43.5681 27.4318L44.6657 23.4072C45.3224 24.0264 46.1104 24.4861 47.0298 24.7863C47.9679 25.0865 48.8685 25.2366 49.7316 25.2366C50.726 25.2366 51.5422 25.0396 52.1801 24.6455C52.8368 24.2703 53.334 23.6886 53.6718 22.9006C54.0282 22.0938 54.2346 21.0994 54.2909 19.9173L54.4316 17.4688H53.7562C53.5873 18.6884 53.2871 19.6828 52.8556 20.4521C52.4428 21.2213 51.9081 21.7936 51.2514 22.1689C50.6135 22.5254 49.8536 22.7036 48.9717 22.7036C47.8835 22.7036 46.9735 22.4315 46.2418 21.8874C45.51 21.3433 44.9565 20.5271 44.5813 19.4389C44.2248 18.3319 44.0466 16.9622 44.0466 15.3298V9.16626H48.6059V14.2041C48.6059 15.9302 48.7747 17.1686 49.1125 17.9191C49.4689 18.6508 50.0224 19.0167 50.7729 19.0167C51.167 19.0167 51.5234 18.9041 51.8424 18.679C52.1614 18.4538 52.4334 18.1349 52.6586 17.7221C52.8837 17.3093 53.0526 16.8121 53.1652 16.2304C53.2965 15.63 53.3622 14.964 53.3622 14.2322V9.16626H57.8933V20.0862C57.8933 21.2682 57.7808 22.3471 57.5556 23.3228C57.3492 24.2984 57.0303 25.1521 56.5987 25.8839C56.1859 26.6156 55.6606 27.2254 55.0227 27.7133C54.3847 28.2199 53.6436 28.5951 52.7993 28.839C51.955 29.0829 50.9981 29.2049 49.9286 29.2049Z" fill="#FFD43B"/>
<path d="M18.7546 2.57429C18.7524 2.62039 18.6747 3.67015 18.6749 4.15538C18.6807 4.42369 18.622 5.46515 18.4779 5.95708C18.3 6.57673 18.6074 7.72877 19.8369 8.33043C19.9631 8.41063 20.0998 8.46362 20.2366 8.51662C20.7836 8.7286 21.7991 8.94995 22.7467 8.25296C23.2759 7.86331 23.6181 7.79248 24.3644 7.81564C24.8792 7.82731 25.2858 7.67188 25.4326 7.41576C25.534 7.23594 25.526 7.01373 25.4231 6.83303C25.2647 6.55252 24.809 6.46984 24.367 6.39247C24.2144 6.38027 24.0587 6.33558 23.9083 6.27729L23.8368 6.21829C23.6749 6.10859 23.5403 6.00949 23.971 5.34693C24.5221 4.49626 25.0563 3.60778 25.1017 3.53147C25.2812 3.27235 25.2334 2.90953 24.9969 2.70834C24.8266 2.57974 24.5351 2.56065 24.2639 2.89379L23.1053 4.41673C23.0166 4.52325 22.8702 4.57606 22.8482 4.55186C22.8261 4.52766 22.8115 4.44375 22.8825 4.22084L23.584 2.25469C23.6813 1.96377 23.5388 1.64246 23.2569 1.51757C23.0076 1.38968 22.7011 1.49 22.5733 1.73782L21.5855 3.67128C21.5295 3.77479 21.4589 3.7944 21.4452 3.7891C21.4316 3.7838 21.3927 3.7218 21.4152 3.54269L21.6501 1.72438C21.7011 1.43116 21.5206 1.12645 21.2365 1.04766C21.0345 1.00067 20.7522 1.07909 20.6178 1.46522L20.6125 1.47882L20.1131 3.49196C20.0633 3.66047 19.9588 3.80778 19.8322 3.9309C19.8208 3.8795 19.804 3.8417 19.8062 3.79559L19.8093 2.65433C19.8489 2.30971 19.6031 2.01101 19.2568 1.97073C19.02 1.97284 18.7743 2.15937 18.7546 2.57429Z" fill="#FE871A"/>
<path d="M18.1201 27.1584V12.9631C18.1201 11.7118 19.1345 10.6975 20.3857 10.6975C21.6369 10.6975 22.6513 11.7118 22.6513 12.9631V27.1584H18.1201Z" fill="#FE871A"/>
<path d="M100.053 24.2142V5.66675H104.5V24.2142H100.053Z" fill="#FE871A"/>
<path d="M5.90362 24.2148V5.63965H10.4629V24.2148H5.90362ZM0.5 9.41097V5.63965H15.9228V9.41097H0.5Z" fill="#D3ADEF"/>
<path d="M26.1943 24.2148V9.35471H29.853L29.9093 13.7171H30.4722C30.7161 12.6663 31.0632 11.7845 31.5135 11.0715C31.9638 10.3585 32.5361 9.83316 33.2303 9.49543C33.9245 9.13894 34.7407 8.96069 35.6788 8.96069C37.4237 8.96069 38.7465 9.57048 39.6471 10.7901C40.5665 12.0096 41.0261 13.9516 41.0261 16.6159V24.2148H36.4668V17.1225C36.4668 15.584 36.2417 14.4676 35.7914 13.7733C35.3598 13.0604 34.7125 12.7039 33.8495 12.7039C33.1365 12.7039 32.5455 12.9196 32.0764 13.3512C31.6261 13.7827 31.2884 14.355 31.0632 15.068C30.8381 15.781 30.7255 16.5784 30.7255 17.4602V24.2148H26.1943Z" fill="#9FDEDC"/>
<path d="M86.8329 24.6201C86.0074 24.6201 85.2756 24.4606 84.6377 24.1416C83.9998 23.8039 83.5026 23.3254 83.1461 22.7063C82.7896 22.0683 82.6113 21.2991 82.6113 20.3984C82.6113 19.5541 82.7708 18.8599 83.0898 18.3158C83.4275 17.7529 83.9059 17.312 84.5251 16.993C85.163 16.6553 85.9229 16.3832 86.8048 16.1768C87.6866 15.9517 88.6904 15.7547 89.8162 15.5858C90.3603 15.492 90.8106 15.4076 91.1671 15.3325C91.5423 15.2387 91.8237 15.098 92.0114 14.9103C92.199 14.7227 92.2928 14.4507 92.2928 14.0942C92.2928 13.6251 92.1239 13.2217 91.7862 12.884C91.4485 12.5462 90.9044 12.3774 90.1539 12.3774C89.6285 12.3774 89.1501 12.4712 88.7185 12.6588C88.3058 12.8464 87.9493 13.1185 87.6491 13.475C87.3489 13.8315 87.1237 14.263 86.9736 14.7696L82.9772 13.5876C83.2211 12.7995 83.5588 12.1147 83.9904 11.533C84.4407 10.9514 84.9754 10.4729 85.5946 10.0977C86.2137 9.70367 86.9173 9.42223 87.7054 9.25337C88.5122 9.06574 89.3659 8.97192 90.2665 8.97192C91.7675 8.97192 92.987 9.21584 93.9252 9.70367C94.882 10.1727 95.5856 10.9139 96.0359 11.9271C96.505 12.9215 96.7395 14.2067 96.7395 15.7828V18.0625C96.7395 18.7379 96.7489 19.4228 96.7677 20.117C96.8052 20.7925 96.8427 21.4773 96.8803 22.1715C96.9365 22.847 97.0022 23.5318 97.0773 24.2261H93.0808C93.0058 23.7945 92.9307 23.2785 92.8557 22.6781C92.7806 22.059 92.7244 21.4304 92.6868 20.7925H92.1521C91.8894 21.5055 91.5048 22.1621 90.9982 22.7626C90.5104 23.3442 89.91 23.8039 89.197 24.1416C88.5028 24.4606 87.7147 24.6201 86.8329 24.6201ZM88.8874 21.4116C89.2251 21.4116 89.5629 21.3554 89.9006 21.2428C90.2571 21.1114 90.5948 20.9426 90.9138 20.7362C91.2327 20.511 91.5235 20.239 91.7862 19.92C92.0489 19.601 92.2459 19.2539 92.3772 18.8787L92.321 16.6553L92.9401 16.796C92.5836 17.0212 92.1896 17.1994 91.7581 17.3307C91.3265 17.4621 90.8856 17.5653 90.4353 17.6403C90.0038 17.7154 89.5722 17.7998 89.1407 17.8936C88.7279 17.9687 88.3527 18.0719 88.0149 18.2032C87.696 18.3345 87.4427 18.5128 87.2551 18.7379C87.0674 18.9631 86.9736 19.2727 86.9736 19.6667C86.9736 20.1921 87.1519 20.6142 87.5084 20.9332C87.8648 21.2522 88.3245 21.4116 88.8874 21.4116Z" fill="#FE871A"/>
<path d="M65.3782 27.1567V19.147H69.9093V27.1567H65.3782Z" fill="#FE871A"/>
<path fill-rule="evenodd" clip-rule="evenodd" d="M65.403 19.148V15.6582V5.66699H73.1505C74.3513 5.66699 75.4302 5.80771 76.387 6.08915C77.3627 6.3706 78.1976 6.79276 78.8919 7.35564C79.5861 7.89976 80.1114 8.60337 80.4679 9.46645C80.8432 10.3108 81.0308 11.3052 81.0308 12.4497C81.0308 13.9132 80.6931 15.1422 80.0176 16.1366C79.3609 17.131 78.3759 17.8816 77.0625 18.3881C75.7679 18.8947 74.1449 19.148 72.1936 19.148H65.403ZM75.731 9.97847C75.7257 9.93421 75.7223 9.90633 75.7216 9.89964C75.6805 9.48629 75.4256 9.31272 75.1889 9.32285C74.8452 9.38098 74.6152 9.692 74.6725 10.0341L74.7346 11.1737C74.7379 11.2059 74.7315 11.2345 74.7244 11.2667C74.7214 11.2803 74.7182 11.2947 74.7156 11.3102C74.5829 11.1937 74.4709 11.052 74.4125 10.8863L73.8096 8.9017L73.8036 8.8884C73.6494 8.50973 73.3635 8.44601 73.1641 8.50339C72.8845 8.59676 72.72 8.91039 72.7861 9.20057L73.1147 11.0043C73.1464 11.182 73.1108 11.2459 73.0974 11.2519C73.0841 11.2579 73.0126 11.242 72.9513 11.1415L71.8649 9.26174C71.7244 9.02086 71.4131 8.93652 71.1708 9.07713C70.8957 9.21643 70.7699 9.54468 70.8822 9.83018L71.6845 11.7574C71.7668 11.9764 71.7566 12.0609 71.7358 12.0862C71.715 12.1115 71.5661 12.0664 71.4721 11.9646L70.2363 10.5036C69.9482 10.1849 69.6581 10.219 69.4946 10.3563C69.2689 10.5694 69.2399 10.9342 69.4325 11.1837C69.4818 11.2576 70.0613 12.1172 70.6556 12.9383C71.12 13.5777 70.9907 13.6836 70.8347 13.8015L70.7664 13.8642C70.6191 13.9302 70.4659 13.9828 70.3142 14.0029C69.8768 14.103 69.426 14.2092 69.2822 14.4975C69.1889 14.6833 69.1924 14.9056 69.3029 15.0799C69.4628 15.3281 69.8769 15.4623 70.3903 15.424C71.1345 15.3623 71.4799 15.4154 72.0285 15.7771C73.0109 16.4242 74.0136 16.1506 74.5489 15.9106C74.6828 15.8507 74.8166 15.7907 74.9384 15.704C76.1352 15.0396 76.3826 13.8732 76.1729 13.2636C76.0036 12.7798 75.891 11.7427 75.883 11.4745C75.8617 11.0605 75.7624 10.238 75.731 9.97847Z" fill="#FE871A"/>
</svg>
