<svg width="331" height="330" viewBox="0 0 331 330" fill="none" xmlns="http://www.w3.org/2000/svg">
<mask id="mask0_1_3580" style="mask-type:luminance" maskUnits="userSpaceOnUse" x="0" y="0" width="331" height="330">
<path d="M330.375 0H0.375V330H330.375V0Z" fill="white"/>
</mask>
<g mask="url(#mask0_1_3580)">
<path d="M43.938 268.655C46.0779 267.153 48.823 266.887 51.4309 266.677C63.026 265.756 74.6536 265.248 86.297 264.997C106.419 264.561 126.904 264.141 147.001 265.458C154.68 265.958 161.39 264.198 169.012 263.197C178.411 261.961 187.907 261.759 197.37 261.565C222.926 261.032 248.481 260.5 274.037 259.967C276.032 259.927 278.688 260.435 278.85 262.429C272.115 264.085 265.575 266.532 259.406 269.705C258.074 270.399 256.597 271.327 256.386 272.813C255.999 275.502 259.681 276.657 262.402 276.721C273.488 276.98 285.35 276.899 294.579 283.044C288.402 292.257 275.507 293.323 264.421 293.46C246.697 293.686 228.966 293.912 211.242 294.138C210.313 294.155 209.304 294.195 208.602 294.8C207.463 295.785 207.777 297.562 207.681 299.064C207.398 303.634 202.594 306.645 198.072 307.372C188.205 308.955 178.621 303.569 168.673 302.56C162.577 301.946 156.448 302.996 150.368 303.739C128.09 306.468 105.328 305.144 83.519 299.855C72.0773 297.077 60.5714 293.193 48.8471 294.251C46.6426 294.445 43.9943 294.647 42.6459 292.887C40.797 290.456 43.2599 287.154 45.5448 285.135C56.8736 286.249 68.444 284.812 79.1588 280.969C78.5695 277.779 74.4598 276.923 71.2137 276.778C61.5001 276.342 51.7781 275.906 42.0645 275.47C40.5786 273.314 41.7903 270.157 43.938 268.655Z" fill="#C8CEFF"/>
<path d="M74.1632 69.5314L89.9971 66.8426L82.4801 27.9877C81.729 24.0798 77.9902 21.4797 74.0581 22.1258C70.0856 22.7797 67.3805 26.5018 67.9782 30.4827L73.703 68.5461" fill="#774730"/>
<path d="M74.1632 69.5314L89.9971 66.8426L82.4801 27.9877C81.729 24.0798 77.9902 21.4797 74.0581 22.1258C70.0856 22.7797 67.3805 26.5018 67.9782 30.4827L73.703 68.5461" stroke="#422B1C" stroke-width="0.464789"/>
<path d="M56.3413 273.776L79.7978 170.777L97.8525 168.848L78.4011 272.839L56.3413 273.776Z" fill="#5E3526"/>
<path d="M56.3413 273.776L79.7978 170.777L97.8525 168.848L78.4011 272.839L56.3413 273.776Z" stroke="#422B1C" stroke-width="0.464789"/>
<path d="M131.863 223.574L78.4019 226.062L80.0328 239.054L135.61 237.689L131.863 223.574Z" fill="#774730"/>
<path d="M131.863 223.574L78.4019 226.062L80.0328 239.054L135.61 237.689L131.863 223.574Z" stroke="#422B1C" stroke-width="0.464789"/>
<path d="M69.9443 281.032L72.0517 145.882L81.2001 140.689C81.2001 140.689 86.126 279.627 86.8283 281.032C87.5305 282.438 69.9443 281.032 69.9443 281.032Z" fill="#774730"/>
<path d="M69.9443 281.032L72.0517 145.882L81.2001 140.689C81.2001 140.689 86.126 279.627 86.8283 281.032C87.5305 282.438 69.9443 281.032 69.9443 281.032Z" stroke="#422B1C" stroke-width="0.464789"/>
<path d="M138.659 281.673L106.531 139.82L118.699 138.213L159.015 281.673H138.659Z" fill="#774730"/>
<path d="M138.659 281.673L106.531 139.82L118.699 138.213L159.015 281.673H138.659Z" stroke="#422B1C" stroke-width="0.464789"/>
<path d="M143.81 178.094C143.94 179.071 139.119 181.437 139.119 181.437L52.8186 190.755L36.1689 72.5525L40.1578 68.5391" fill="#F7ECE4"/>
<path d="M143.81 178.094C143.94 179.071 139.119 181.437 139.119 181.437L52.8186 190.755L36.1689 72.5525L40.1578 68.5391" stroke="#D3BEAE" stroke-width="0.464789"/>
<path d="M128.34 63.6387L40.1582 68.5399L57.05 187.114L143.819 178.087L128.34 63.6387Z" fill="#F7ECE4"/>
<path d="M128.34 63.6387L40.1582 68.5399L57.05 187.114L143.819 178.087L128.34 63.6387Z" stroke="#D3BEAE" stroke-width="0.464789"/>
<path d="M87.8462 187.118L88.4681 188.717L114.565 185.802L117.076 183.816L114.565 170.775L87.8462 174.021L89.4609 183.751L87.8462 187.118Z" fill="#774730"/>
<path d="M87.8462 187.118L88.4681 188.717L114.565 185.802L117.076 183.816L114.565 170.775L87.8462 174.021L89.4609 183.751L87.8462 187.118Z" stroke="#422B1C" stroke-width="0.464789"/>
<path d="M70.0512 66.8724L71.9001 74.422L99.5713 72.2338L97.0684 59.2578L62.6792 61.7612L63.9225 66.8724H70.0512Z" fill="#774730"/>
<path d="M70.0512 66.8724L71.9001 74.422L99.5713 72.2338L97.0684 59.2578L62.6792 61.7612L63.9225 66.8724H70.0512Z" stroke="#422B1C" stroke-width="0.464789"/>
<path d="M106.184 129.901C106.241 128.714 106.579 127.462 107.475 126.679C108.485 125.815 110.116 125.428 111.295 124.854C112.595 124.217 113.903 124.241 115.227 125.008C116.43 125.71 117.302 126.913 117.722 128.238C117.859 128.674 117.948 129.118 118.134 129.538C118.336 129.998 118.651 130.394 118.877 130.846C119.612 132.324 119.232 134.181 118.279 135.529C117.319 136.878 115.873 137.798 114.395 138.533C114.008 138.727 113.612 138.904 113.192 138.985C112.159 139.179 111.117 138.719 110.253 138.129C107.613 136.321 106.014 133.091 106.184 129.901Z" fill="#AD00AC"/>
<mask id="mask1_1_3580" style="mask-type:luminance" maskUnits="userSpaceOnUse" x="114" y="55" width="175" height="230">
<path d="M114.598 55.4375H288.894V284.578H114.598V55.4375Z" fill="white"/>
</mask>
<g mask="url(#mask1_1_3580)">
<path d="M122.226 146.271L151.283 152.695L156.45 156.029C156.45 156.029 155.867 158.874 155.543 160.182C155.219 161.491 152.319 160.157 152.319 160.157L121.739 148.459L122.226 146.271Z" fill="#594833"/>
<path d="M122.226 146.271L151.283 152.695L156.45 156.029C156.45 156.029 155.867 158.874 155.543 160.182C155.219 161.491 152.319 160.157 152.319 160.157L121.739 148.459L122.226 146.271Z" stroke="#332518" stroke-width="0.464789"/>
<path d="M248.638 176.3C245.311 175.008 224.066 178.876 221.37 177.705C219.553 176.914 217.308 173.2 216.041 170.866L221.37 167.039L225.237 172.788C225.237 172.788 245.876 168.8 250.212 169.914C253.151 170.665 256.51 175.792 257.035 179.215C253.668 178.085 250.156 176.89 248.638 176.3Z" fill="#F7BD98"/>
<path d="M221.365 177.695C224.062 178.866 245.298 174.998 248.633 176.29C250.159 176.879 253.663 178.083 257.038 179.197C257.289 180.828 256.901 182.079 255.496 182.265C251.16 182.855 248.108 181.797 248.108 181.797C248.108 181.797 229.464 185.777 224.183 187.069C218.902 188.361 211.635 178.979 211.635 178.979L209.762 175.345L216.036 170.848C217.303 173.189 219.548 176.904 221.365 177.695Z" fill="#CE8861"/>
<path d="M250.209 169.907C253.148 170.659 256.507 175.786 257.032 179.209C257.282 180.84 256.894 182.092 255.497 182.278C251.161 182.867 248.109 181.809 248.109 181.809C248.109 181.809 229.457 185.79 224.185 187.082C218.904 188.374 211.637 178.991 211.637 178.991L209.763 175.358L216.037 170.86L221.367 167.033L225.234 172.782C225.234 172.782 245.873 168.793 250.209 169.907Z" stroke="#8E5332" stroke-width="0.464789"/>
<path d="M152.026 161.496C152.332 161.821 152.653 162.191 152.656 162.631C152.653 163.194 152.144 163.632 152.032 164.177C152.018 164.252 152.019 164.326 152.022 164.399C150.388 163.786 148.74 162.547 148.152 161.365C147.753 160.548 146.631 160.101 145.513 159.563C145.957 159.176 146.502 158.937 147.075 159.012C147.324 159.043 147.565 159.132 147.796 159.214C148.458 159.456 149.118 159.691 149.779 159.933C150.062 160.032 150.346 160.14 150.61 160.282C151.157 160.581 151.596 161.042 152.026 161.496Z" fill="#ACC800"/>
<path d="M171.297 175.955C173.7 175.173 178.184 171.656 180.212 169.997L181.875 173.582C181.875 173.582 176.247 182.89 167.189 181.303C161.95 180.383 154.322 164.78 154.322 164.78C153.658 164.872 152.846 164.716 152.037 164.412C152.035 164.34 152.033 164.266 152.047 164.191C152.151 163.647 152.669 163.208 152.664 162.646C152.66 162.207 152.34 161.836 152.034 161.511C151.604 161.057 151.165 160.596 150.618 160.297C150.353 160.155 150.07 160.047 149.787 159.948C149.125 159.706 148.466 159.471 147.804 159.229C147.565 159.148 147.332 159.058 147.083 159.027C146.511 158.96 145.966 159.199 145.521 159.578C144.953 159.307 144.391 159.018 143.924 158.643C148.363 158.442 155.033 158.804 156.699 161.173C159.206 164.729 168.123 176.991 171.297 175.955Z" fill="#CE8861"/>
<path d="M156.537 154.891C156.282 154.584 156.11 154.168 156.202 153.772C156.264 153.511 156.43 153.3 156.553 153.071C156.568 153.061 156.574 153.044 156.58 153.027C158.605 154.751 160.565 156.72 162.253 158.54C162.108 158.788 161.945 159.024 161.726 159.209C161.383 159.493 160.862 159.614 160.479 159.382C160.202 159.209 160.051 158.887 159.905 158.597C159.324 157.464 158.483 156.455 157.461 155.676C157.141 155.427 156.8 155.197 156.537 154.891Z" fill="#FF6DCB"/>
<path d="M169.782 164.203L176.034 160.971L180.221 169.992C178.192 171.644 173.709 175.168 171.307 175.95C168.141 176.984 159.216 164.725 156.708 161.168C155.043 158.807 148.373 158.445 143.933 158.638C143.31 158.146 142.847 157.508 142.769 156.598C142.52 153.633 153.796 159.803 154.062 157.198C154.336 154.593 144.795 155.216 142.587 154.113C140.381 153.017 141.271 151.442 141.271 151.442C141.271 151.442 139.807 151.173 139.439 149.642C139.064 148.113 141.125 147.044 148.573 148.374C151.014 148.809 153.867 150.688 156.604 153.022C156.597 153.031 156.583 153.05 156.578 153.067C156.437 153.29 156.272 153.509 156.21 153.762C156.11 154.159 156.282 154.575 156.544 154.881C156.8 155.196 157.148 155.417 157.468 155.666C158.489 156.437 159.33 157.445 159.912 158.587C160.059 158.885 160.209 159.198 160.486 159.371C160.87 159.611 161.39 159.482 161.733 159.198C161.952 159.013 162.115 158.778 162.26 158.53C165.262 161.773 167.382 164.536 167.382 164.536L169.782 164.203Z" fill="#F7BD98"/>
<path d="M176.035 160.969L180.214 169.991L181.86 173.57C181.86 173.57 176.232 182.878 167.175 181.291C161.936 180.372 154.307 164.768 154.307 164.768C153.643 164.86 152.831 164.704 152.022 164.401C150.388 163.788 148.741 162.55 148.153 161.368C147.754 160.551 146.633 160.103 145.515 159.566C144.947 159.294 144.385 159.005 143.917 158.63C143.295 158.138 142.831 157.501 142.753 156.59C142.504 153.625 153.779 159.795 154.046 157.191C154.319 154.585 144.778 155.201 142.571 154.105C140.365 153.009 141.255 151.434 141.255 151.434C141.255 151.434 139.791 151.165 139.423 149.634C139.048 148.105 141.109 147.036 148.557 148.366C150.998 148.801 153.851 150.68 156.588 153.015C158.613 154.739 160.573 156.708 162.261 158.528C165.263 161.771 167.383 164.534 167.383 164.534L169.783 164.201L176.035 160.969Z" stroke="#8E5332" stroke-width="0.464789"/>
<path d="M179.353 223.676L195.357 227.648C195.841 231.048 196.746 237.418 197.674 244.306H184.214C181.929 234.019 179.668 224.297 179.668 224.297L179.353 223.676Z" fill="#F7BD98"/>
<path d="M203.894 229.772C203.894 229.772 204.499 236.142 205.226 244.314V244.306H197.66C196.748 237.418 195.844 231.048 195.351 227.648L203.894 229.772Z" fill="#CE8861"/>
<path d="M195.908 230.121L204.45 232.245C204.45 232.245 205.048 238.615 205.782 246.779H198.225H184.765C182.48 236.492 180.219 226.77 180.219 226.77L179.904 226.148L195.908 230.121Z" stroke="#8E5332" stroke-width="0.464789"/>
<path d="M197.67 244.303C199.221 255.946 200.804 269.068 200.464 271.821C199.98 275.762 196.58 280.073 192.834 283.061C192.333 283.117 191.849 283.174 191.38 283.23C185.131 284.014 176.531 283.699 176.531 280.106C176.531 276.512 188.57 270.884 188.885 268.066C189.047 266.621 185.51 255.147 183.104 244.303H184.21H197.67Z" fill="#51002F"/>
<path d="M205.227 244.303H206.632C207.867 258.159 208.045 277.199 207.649 279.169C207.068 282.06 199.001 282.415 192.841 283.069C196.579 280.074 199.979 275.762 200.463 271.821C200.802 269.068 199.22 255.946 197.669 244.303H205.227Z" fill="#350322"/>
<path d="M205.228 244.303H206.633C207.868 258.159 208.046 277.199 207.642 279.161C207.061 282.051 198.995 282.407 192.834 283.061C192.333 283.117 191.849 283.174 191.38 283.23C185.131 284.014 176.531 283.699 176.531 280.106C176.531 276.512 188.57 270.884 188.885 268.066C189.046 266.621 185.51 255.147 183.104 244.303H184.21H197.67H205.228Z" stroke="#350322" stroke-width="0.464789"/>
<path d="M207.834 233.051L215.157 230.871C215.997 233.931 217.216 238.389 218.492 243.168L212.114 245.453L208.125 233.891L207.834 233.051Z" fill="#CE8861"/>
<path d="M226.719 227.426C226.719 227.426 227.728 233.005 228.94 239.424L218.491 243.163C217.215 238.391 215.997 233.934 215.157 230.874L226.719 227.426Z" fill="#F7BD98"/>
<path d="M215.745 232.218L227.308 228.77C227.308 228.77 228.317 234.349 229.529 240.768L219.08 244.515L212.701 246.8L208.713 235.237L208.422 234.397L215.745 232.218Z" stroke="#8E5332" stroke-width="0.464789"/>
<path d="M235.87 265.564C237.194 268.067 247.981 276.352 248.296 280.575C248.514 283.441 242.911 284.652 238.252 284.733C221.36 278.128 224.089 270.982 224.42 268.221C224.501 267.526 223.952 264.797 223.072 261.058C221.901 256.1 220.149 249.359 218.494 243.158L228.942 239.411L229.693 239.145C229.693 239.145 234.538 263.061 235.87 265.564Z" fill="#51002F"/>
<path d="M223.069 261.061C223.957 264.8 224.498 267.529 224.418 268.223C224.087 270.985 221.357 278.131 238.257 284.736C236.053 284.776 234.059 284.575 233.001 284.171C229.698 282.919 219.226 279.948 218.128 277.913C217.029 275.886 219.847 268.845 219.064 266.504C218.281 264.154 210.933 245.865 210.933 245.865L212.112 245.446L218.491 243.16C220.146 249.361 221.898 256.104 223.069 261.061Z" fill="#350322"/>
<path d="M235.868 265.565C237.193 268.067 247.98 276.352 248.295 280.575C248.513 283.441 242.91 284.645 238.259 284.733C236.054 284.774 234.06 284.572 233.002 284.168C229.7 282.916 219.227 279.937 218.129 277.91C217.03 275.884 219.849 268.843 219.065 266.501C218.282 264.152 210.934 245.863 210.934 245.863L212.113 245.443L218.492 243.158L228.941 239.411L229.691 239.145C229.691 239.145 234.536 263.062 235.868 265.565Z" stroke="#350322" stroke-width="0.464789"/>
<path d="M214.456 156.766C215.708 158.018 217.25 159.85 218.736 161.74C207.916 167.917 185.767 162.571 176.999 160.076L189.442 154.263C189.442 154.263 210.702 153.011 214.456 156.766Z" fill="#6B0740"/>
<path d="M212.882 176.924L216.168 191.619L235.854 225.234C218.034 245.557 168.626 232.113 168.626 232.113C173.01 215.383 184.42 194.123 184.42 194.123L182.231 173.952L179.89 177.546L170.354 163.165L176.991 160.064C185.768 162.567 207.917 167.913 218.728 161.736C221.684 165.482 224.453 169.423 224.453 169.423L212.882 176.924Z" fill="#A30056"/>
<path d="M212.883 176.93L216.169 191.625L235.855 225.247C218.034 245.571 168.627 232.127 168.627 232.127C173.011 215.397 184.42 194.136 184.42 194.136L182.232 173.966L179.891 177.56L170.354 163.179L176.992 160.078L189.434 154.264C189.434 154.264 210.695 153.013 214.449 156.768C215.701 158.019 217.243 159.852 218.729 161.741C221.684 165.488 224.454 169.429 224.454 169.429L212.883 176.93Z" stroke="#590D38" stroke-width="0.464789"/>
<path d="M221.14 68.6899C225.08 69.1186 235.821 71.4443 243.916 83.9057C242.248 85.9284 240.692 88.4282 239.337 91.5095L235.708 96.6125C233.058 93.3603 229.532 89.1375 229.532 89.1375C229.532 89.1375 212.341 85.497 217.68 74.1C218.5 72.3497 219.683 70.5113 221.14 68.6899Z" fill="#FFC200"/>
<path d="M235.697 96.6062L239.327 91.5032C240.69 88.4299 242.246 85.9301 243.914 83.9074C246.867 88.444 249.47 94.3281 251.261 101.963C244.94 101.593 238.652 100.529 238.564 100.254C238.508 100.084 237.252 98.5154 235.697 96.6062Z" fill="#F59700"/>
<path d="M221.14 68.6899C225.08 69.1186 235.821 71.4443 243.916 83.9057C246.869 88.4502 249.472 94.3344 251.271 101.969C244.949 101.599 238.662 100.536 238.574 100.261C238.517 100.091 237.262 98.5217 235.708 96.6125C233.058 93.3603 229.531 89.1375 229.531 89.1375C229.531 89.1375 212.341 85.497 217.68 74.1C218.5 72.3497 219.683 70.5113 221.14 68.6899Z" stroke="#EC7500" stroke-width="0.464789"/>
<path d="M263.741 75.9821C258.405 75.4127 250.304 76.1773 243.915 83.9061C235.821 71.4447 225.079 69.119 221.14 68.6819C229.197 58.6395 245.666 49.3511 255.7 60.8883C259.461 65.2087 262.082 70.5845 263.741 75.9821Z" fill="#5C1D4C"/>
<path d="M251.262 101.961C249.462 94.3344 246.868 88.4503 243.915 83.9058C250.311 76.177 258.404 75.4123 263.74 75.9818C267.322 87.6172 266.44 99.3878 262.802 101.091C260.547 102.144 255.896 102.238 251.262 101.961Z" fill="#441239"/>
<path d="M255.646 61.0797C259.407 65.4002 262.027 70.7754 263.686 76.1731C267.269 87.8085 266.386 99.5791 262.748 101.275C260.493 102.327 255.842 102.421 251.208 102.144C249.409 94.5178 246.814 88.6336 243.861 84.0891C235.766 71.6277 225.025 69.302 221.085 68.8733C229.143 58.8309 245.611 49.5425 255.646 61.0797Z" stroke="#330D2C" stroke-width="0.464789"/>
<path d="M208.191 67.1728C220.821 70.1164 232.245 77.6117 239.725 86.9306C233.807 94.1279 226.366 106.254 223.661 123.843L207.899 149.266C207.059 149.151 206.244 148.996 205.437 148.784C193.235 145.591 164.784 126.526 164.784 126.526C164.784 126.526 159.185 113.853 164.851 97.3293C170.517 80.8055 180.768 60.7797 208.191 67.1728Z" fill="#5C1D4C"/>
<path d="M223.663 123.838C226.368 106.25 233.808 94.1232 239.727 86.926C248.487 97.8383 251.831 111.266 245.353 122.838C234.132 142.853 219.701 150.887 207.9 149.261L223.663 123.838Z" fill="#441239"/>
<path d="M208.192 67.0674C220.822 70.0109 232.246 77.5062 239.726 86.8252C248.486 97.7459 251.831 111.173 245.353 122.737C234.132 142.753 219.7 150.787 207.899 149.161C207.059 149.046 206.244 148.891 205.437 148.679C193.236 145.486 164.784 126.421 164.784 126.421C164.784 126.421 159.185 113.748 164.851 97.2238C170.517 80.7 180.769 60.6742 208.192 67.0674Z" stroke="#330D2C" stroke-width="0.464789"/>
<path d="M241.28 105.888C248.219 111.686 257.94 105.143 257.94 105.143C253.782 108.614 244.56 104.984 241.971 103.855C241.535 103.668 241.285 103.547 241.285 103.547" fill="#441239"/>
<path d="M227.094 59.4189C219.575 63.4714 213.762 77.136 213.762 77.136C213.762 77.136 210.777 83.1445 212.835 73.145C214.893 63.1456 227.094 59.4189 227.094 59.4189Z" fill="#5C1D4C"/>
<path d="M226.298 101.323C226.298 101.323 226.167 101.864 225.875 102.639C225.989 102.162 226.128 101.727 226.298 101.323Z" fill="#CE8861"/>
<path d="M218.957 108.206C217.698 118.797 215.366 132.147 211.274 138.654C206.079 146.902 200.337 154.705 192.813 157.223C188.446 156.761 184.024 155.313 179.743 152.534C156.797 137.657 165.312 107.518 172.359 101.438C179.405 95.3492 179.915 77.0618 179.915 77.0618C179.915 77.0618 192.078 90.2269 200.744 96.5771C209.401 102.927 203.354 81.5727 203.354 81.5727C203.354 81.5727 211.043 105.515 217.602 107.871C218.078 108.042 218.529 108.148 218.957 108.206Z" fill="#F7BD98"/>
<path d="M228.116 125.025C229.051 125.73 232.361 115.184 232.361 115.184C232.361 115.184 246.896 114.983 244.299 124.126C241.694 133.268 230.201 134.881 230.201 134.881C229.804 142.511 211.848 159.248 192.813 157.227C200.336 154.716 206.078 146.914 211.273 138.665C215.374 132.158 217.697 118.809 218.957 108.218C223.001 108.784 225.069 104.8 225.874 102.646C224.13 109.699 227.237 124.361 228.116 125.025Z" fill="#CE8861"/>
<path d="M241.249 120.119C233.512 117.283 231.466 129.164 231.466 129.164" stroke="#8E5332" stroke-width="0.464789"/>
<path d="M219.521 104.462L229.687 104.485L232.009 113.17L234.02 105.884L241.758 104.513L235.437 100.631L239.325 91.4911L233.109 94.7629L228.433 87.7195L227.943 97.327L219.521 104.462Z" fill="#FFC200"/>
<path d="M219.521 104.462L229.687 104.485L232.009 113.17L234.02 105.884L241.758 104.513L235.437 100.631L239.325 91.4911L233.109 94.7629L228.433 87.7195L227.943 97.327L219.521 104.462Z" stroke="#EC7500" stroke-width="0.464789"/>
<path d="M215.858 110.988L208.219 104.132C217.483 102.829 215.866 110.988 215.858 110.988Z" fill="#5C1D4C"/>
<path d="M193.007 94.5211L182.627 93.1974C189.552 87.23 193.007 94.5211 193.007 94.5211Z" fill="#5C1D4C"/>
<path d="M211.415 120.904C214.119 114.698 212.648 108.071 208.13 106.103C203.613 104.135 197.758 107.571 195.055 113.777C192.352 119.983 193.822 126.609 198.34 128.577C202.858 130.545 208.712 127.11 211.415 120.904Z" fill="white"/>
<path d="M190.697 111.156C193.401 104.95 191.93 98.3232 187.412 96.3552C182.895 94.3873 177.04 97.8229 174.337 104.029C171.634 110.235 173.104 116.861 177.622 118.829C182.14 120.797 187.994 117.362 190.697 111.156Z" fill="white"/>
<path d="M188.684 119.305C188.684 119.305 182.473 116.981 185.301 112.418C188.129 107.854 193.513 111.968 193.513 111.968" fill="#F7BD98"/>
<path d="M188.684 119.305C188.684 119.305 182.473 116.981 185.301 112.418C188.129 107.854 193.513 111.968 193.513 111.968" stroke="#8E5332" stroke-width="0.464789"/>
<path d="M178.18 116.762C180.338 116.767 182.093 114.392 182.1 111.458C182.106 108.524 180.362 106.141 178.204 106.136C176.045 106.131 174.291 108.506 174.284 111.44C174.277 114.374 176.021 116.757 178.18 116.762Z" fill="black"/>
<path d="M198.408 125.449C200.566 125.454 202.321 123.08 202.328 120.145C202.334 117.211 200.59 114.828 198.432 114.823C196.273 114.818 194.518 117.193 194.512 120.127C194.505 123.062 196.249 125.444 198.408 125.449Z" fill="black"/>
<path d="M206.904 139.928C206.864 140.041 206.799 140.145 206.726 140.25C206.783 140.145 206.847 140.041 206.904 139.928Z" fill="black"/>
<path d="M197.01 136.701C198.618 135.266 200.09 133.701 200.98 132.156C203.895 127.096 211.104 132.341 206.897 139.986C206.84 140.098 206.775 140.203 206.718 140.307C205.218 142.373 197.38 143.324 190.082 141.817C191.623 140.841 194.493 138.938 197.01 136.701Z" fill="#A83F3F"/>
<path d="M192.089 138.585C191.207 139.116 186.46 138.927 185.406 137.342C184.996 136.728 184.998 135.767 185.153 134.815C187.961 135.717 190.964 136.2 192.933 136.439C192.762 137.4 192.493 138.344 192.089 138.585Z" fill="white"/>
<path d="M192.926 136.444C194.274 136.608 195.138 136.667 195.138 136.667C195.138 136.667 195.881 136.66 196.987 136.703C194.471 138.958 191.616 140.874 190.08 141.847C189.531 141.733 188.975 141.602 188.434 141.464C179.759 139.215 175.679 129.468 180.597 132.766C181.879 133.625 183.476 134.298 185.138 134.827C184.991 135.772 184.989 136.733 185.399 137.347C186.453 138.932 191.2 139.112 192.082 138.589C192.486 138.356 192.755 137.404 192.926 136.444Z" fill="#561C1C"/>
<path d="M185.016 155.286H185.217C185.104 155.197 184.87 155.286 185.016 155.286Z" fill="#A9FF7F"/>
<path d="M176.004 224.23C184.951 226.006 214.632 230.576 225.816 215.703L228.262 223.043C216.514 239.458 175.593 226.951 175.593 226.951L176.004 224.23Z" fill="#74C14C"/>
<path d="M212.884 176.927L225.819 215.709C214.636 230.582 184.962 226.012 176 224.227L182.782 178.954L185.011 155.296C185.487 155.699 187.7 156.143 187.7 156.143V170.831L206.869 169.426L207.886 155.198L210.034 154.98L212.884 176.927Z" fill="#A9FF7F"/>
<path d="M212.887 176.853L225.823 215.635L228.261 222.966C216.513 239.382 175.591 226.874 175.591 226.874L176.003 224.154L182.786 178.88L185.014 155.294C185.483 155.698 187.703 156.069 187.703 156.069V170.757L206.872 169.352L207.89 155.124L210.037 154.906L212.887 176.853Z" stroke="#5E993F" stroke-width="0.464789"/>
<path d="M209.135 199.974C208.513 199.167 208.546 198.045 208.667 197.035C208.78 196.05 209.006 194.976 209.587 194.145C210.258 193.151 211.033 193.192 211.953 192.627C213.342 191.771 213.964 189.816 215.934 191.528C216.742 192.231 217.04 193.369 217.072 194.443C217.105 195.517 216.903 196.583 216.903 197.657C216.903 199.385 217.436 201.104 218.405 202.533C218.752 203.042 219.156 203.535 219.334 204.124C219.552 204.867 219.374 205.658 219.18 206.409C218.938 207.305 218.663 208.226 218.13 208.985C217.597 209.744 216.742 210.341 215.805 210.334C214.998 210.334 214.263 209.898 213.617 209.413C212.866 208.856 212.147 208.17 211.864 207.273C211.307 205.53 212.511 203.39 211.445 201.904C210.855 201.081 209.749 200.774 209.135 199.974Z" fill="white"/>
<path d="M193.462 188.862C193.227 186.843 193.849 184.736 195.141 183.169C195.682 182.507 196.95 180.884 197.935 181.465C198.161 181.595 198.306 181.821 198.516 181.974C198.718 182.128 198.968 182.2 199.178 182.354C199.557 182.636 199.719 183.113 199.865 183.557C200.01 184.009 200.155 184.461 200.301 184.913C200.373 185.147 200.446 185.382 200.462 185.624C200.486 185.987 200.373 186.35 200.26 186.697C200.05 187.351 199.84 188.014 199.63 188.668C199.517 189.031 199.388 189.411 199.13 189.694C198.879 189.96 198.532 190.113 198.177 190.226C196.837 190.646 195.327 190.493 194.091 189.823C193.922 189.726 193.752 189.621 193.639 189.459C193.526 189.29 193.486 189.072 193.462 188.862Z" fill="#DA4C00"/>
<path d="M189.425 193.603C188.9 192.917 188.125 192.464 187.366 192.028C186.09 191.294 183.846 189.178 182.53 190.551C181.383 191.746 181.197 194.725 181.092 196.276C181.028 197.245 181.052 198.221 181.084 199.19C181.125 200.692 181.173 202.194 181.213 203.696C181.262 205.319 181.31 206.966 181.738 208.533C182.005 209.502 182.425 210.447 183.159 211.125C183.894 211.803 184.984 212.151 185.921 211.811C187.398 211.27 187.843 209.461 188.311 207.96C189.167 205.206 190.814 202.622 190.871 199.74C190.895 198.609 190.668 197.487 190.443 196.381C190.241 195.404 190.031 194.394 189.425 193.603Z" fill="#C87B00"/>
<path d="M215.192 127.312C215.282 127.022 215.436 126.747 215.678 126.57C216.139 126.224 217.294 126.194 217.859 126.414C218.214 126.56 218.141 126.551 218.383 126.762C218.584 126.948 218.454 127.336 218.866 127.369C219.285 127.402 219.456 126.862 219.667 126.499C220.081 125.797 221.091 125.622 221.825 125.971C222.559 126.328 223.033 127.08 223.249 127.863C223.682 129.407 223.266 131.069 222.609 132.529C221.351 135.312 219.189 137.681 216.521 139.176C216.222 139.345 215.859 139.498 215.56 139.344C215.262 139.182 215.174 138.802 215.158 138.463C215.027 135.903 216.68 133.549 216.734 130.99C216.734 130.747 216.727 130.505 216.606 130.295C216.454 130.028 216.171 129.882 215.93 129.696C215.229 129.153 214.924 128.159 215.192 127.312Z" fill="#6DDAFF"/>
<path d="M169.511 125.282C169.947 125.202 170.399 125.123 170.827 125.229C171.255 125.335 171.666 125.667 171.713 126.103C171.745 126.41 171.607 126.708 171.469 126.982C171.242 127.442 171.023 127.894 170.796 128.345C170.714 128.507 170.625 128.676 170.48 128.781C170.278 128.918 170.019 128.917 169.785 128.9C168.816 128.826 167.864 128.622 166.953 128.28C166.791 128.223 166.622 128.15 166.501 128.021C166.38 127.884 166.331 127.705 166.3 127.528C166.165 126.696 166.522 125.8 167.193 125.293C167.865 124.786 168.818 124.684 169.584 125.032" fill="#FF6DCB"/>
<path d="M150.067 150.876C143.088 149.4 141.25 151.432 141.25 151.432" stroke="#8E5332" stroke-width="0.464789"/>
<path d="M228.116 124.941C229.051 125.646 232.361 115.1 232.361 115.1C232.361 115.1 246.896 114.899 244.299 124.05C241.694 133.192 230.2 134.805 230.2 134.805C229.804 142.434 211.848 159.172 192.813 157.15C188.446 156.688 184.024 155.241 179.742 152.461C156.796 137.584 165.311 107.445 172.358 101.365C179.405 95.2767 179.915 76.9893 179.915 76.9893C179.915 76.9893 192.078 90.1544 200.743 96.5046C209.401 102.855 203.353 81.5002 203.353 81.5002C203.353 81.5002 211.042 105.442 217.601 107.799C218.077 107.97 218.529 108.075 218.957 108.133C223.001 108.7 225.069 104.715 225.874 102.562C224.129 109.615 227.237 124.277 228.116 124.941Z" stroke="#8E5332" stroke-width="0.464789"/>
<path d="M236.298 163.88C240.433 155.434 251.349 155.79 256.428 156.024C261.588 156.258 263.113 158.955 264.413 162.128C265.706 165.293 268.516 165.641 273.441 164.615C278.366 163.59 286.336 172.092 288.799 180.651C291.262 189.21 267.692 196.017 255.144 193.667C242.596 191.318 232.156 172.327 236.298 163.88Z" fill="#E2C6A8"/>
<path d="M236.298 163.88C240.433 155.434 251.349 155.79 256.428 156.024C261.588 156.258 263.113 158.955 264.413 162.128C265.706 165.293 268.516 165.641 273.441 164.615C278.366 163.59 286.336 172.092 288.799 180.651C291.262 189.21 267.692 196.017 255.144 193.667C242.596 191.318 232.156 172.327 236.298 163.88Z" stroke="#A38A52" stroke-width="0.464789"/>
<path d="M250.557 164.114C250.533 163.791 250.694 163.484 250.848 163.202C251.994 161.126 253.529 159.035 256.161 158.882C258.309 158.761 259.286 160.852 258.995 162.766C258.963 162.943 258.938 163.145 259.043 163.291C259.149 163.428 259.327 163.468 259.488 163.525C260.223 163.783 260.707 164.534 260.828 165.301C260.95 166.068 260.772 166.851 260.521 167.594C260.125 168.765 259.439 169.976 258.277 170.388C258.107 170.445 257.905 170.485 257.76 170.388C257.558 170.259 257.558 169.976 257.518 169.742C257.413 169.079 256.847 168.571 256.242 168.273C255.628 167.974 254.958 167.836 254.336 167.57C253.084 167.045 252.107 166.06 251.155 165.099C250.88 164.816 250.589 164.502 250.557 164.114Z" fill="#4DAD00"/>
<path d="M240.892 167.912C241.029 167.589 241.167 167.275 241.304 166.952C242.249 164.755 243.864 164.585 246.06 164.513C247.465 164.465 250.476 164.101 250.339 166.12C250.299 166.717 250.194 167.315 250.041 167.888C249.976 168.147 249.887 168.405 249.734 168.615C249.605 168.793 249.427 168.93 249.249 169.051C247.271 170.408 244.655 170.383 242.281 170.028C241.635 169.931 240.86 169.705 240.682 169.075C240.577 168.688 240.731 168.284 240.892 167.912Z" fill="#FFFE48"/>
<path d="M266.989 171.365C267.336 170.541 267.796 169.734 268.547 169.257C269.807 168.45 270.921 169.403 272.205 169.435C273.933 169.484 275.322 169.306 276.928 170.194C277.34 170.429 277.736 170.695 278.18 170.856C278.753 171.066 279.383 171.066 279.981 171.195C280.812 171.381 281.563 171.817 282.298 172.245C283.098 172.713 283.945 173.23 284.325 174.078C284.817 175.201 284.341 176.492 283.816 177.598C283.308 178.673 282.718 179.762 281.733 180.424C280.748 181.087 279.262 181.143 278.487 180.247C278.164 179.875 278.002 179.399 277.695 179.028C277.364 178.624 276.888 178.366 276.42 178.131C274.482 177.171 272.431 176.444 270.323 175.975C268.918 175.669 267.264 175.289 266.73 173.957C266.4 173.125 266.642 172.188 266.989 171.365Z" fill="#127EFF"/>
<path d="M255.787 179.916C255.327 179.358 254.899 178.753 254.673 178.067C254.092 176.282 254.964 173.069 257.095 172.794C258.048 172.673 259.138 173.036 260.099 173.077C261.593 173.133 263.095 172.948 264.596 173.093C264.855 173.125 265.146 173.173 265.299 173.384C265.404 173.529 265.42 173.707 265.436 173.876C265.541 175.063 265.477 176.266 265.259 177.437C265.097 178.301 264.839 179.173 264.29 179.867C263.523 180.844 262.279 181.337 261.044 181.474C260.292 181.555 259.526 181.523 258.767 181.482C258.323 181.458 257.878 181.434 257.459 181.289C256.772 181.038 256.247 180.481 255.787 179.916Z" fill="white"/>
<path d="M246.768 183.207C245.08 182.294 243.562 180.897 242.956 179.073C242.383 177.353 242.811 175.293 244.2 174.074C245.363 173.073 246.566 173.38 247.955 173.097C250.062 172.677 251.758 171.507 250.7 174.486C249.973 176.537 249.925 178.814 250.603 180.881C250.724 181.236 250.869 181.608 251.168 181.842C251.483 182.093 251.903 182.141 252.299 182.214C253.51 182.424 254.681 182.884 255.706 183.562C255.916 183.699 256.126 183.853 256.247 184.079C256.465 184.491 256.32 184.991 256.166 185.427C255.706 186.751 255.246 188.068 254.786 189.384C254.664 189.723 254.519 190.086 254.204 190.247C253.744 190.473 253.211 190.142 252.816 189.811C251.435 188.641 250.256 187.236 249.351 185.669C249.045 185.145 248.77 184.603 248.334 184.184C247.89 183.756 247.309 183.497 246.768 183.207Z" fill="#AD00AC"/>
<path d="M260.576 186.266C262.021 185.902 263.515 185.741 264.944 185.297C267.254 184.578 267.924 183.31 269.264 181.526C270.313 180.113 271.993 179.492 273.535 180.428C275.183 181.421 276.515 182.842 275.796 184.78C275.198 186.387 273.778 187.631 272.219 188.268C270.531 188.955 268.553 189.092 267.189 190.295C266.979 190.481 266.785 190.691 266.535 190.82C266.147 191.03 265.687 191.022 265.251 191.006C264.427 190.974 263.604 190.949 262.78 190.925C261.682 190.893 260.527 190.844 259.591 190.279C258.654 189.714 258.041 188.446 258.565 187.485C258.953 186.774 259.793 186.46 260.576 186.266Z" fill="#FF6DCB"/>
<path d="M117.104 145.472C117.512 146.296 120.241 147.164 118.817 147.599C117.402 148.032 115.614 146.544 115.779 147.792C115.827 148.194 115.938 148.643 116.062 149.066C115.666 148.974 115.274 148.849 114.892 148.682C111.739 147.286 110.235 140.744 110.235 140.744C111.603 142.136 114.194 143.537 117.213 143.379C118.416 143.945 119.568 144.609 118.971 144.83C117.839 145.248 116.695 144.64 117.104 145.472Z" fill="#AD00AC"/>
<path d="M117.202 143.385C117.234 143.38 117.259 143.385 117.283 143.382C120.339 143.194 122.227 146.282 122.21 146.276L121.723 148.464C121.723 148.464 118.863 149.708 116.035 149.066C115.911 148.643 115.801 148.202 115.752 147.793C115.603 146.55 117.384 148.039 118.807 147.605C120.231 147.171 117.502 146.311 117.093 145.479C116.685 144.647 117.838 145.261 118.961 144.837C119.558 144.615 118.414 143.95 117.202 143.385Z" fill="#F4CEAE"/>
<path d="M117.202 143.379C117.234 143.374 117.26 143.379 117.283 143.375C120.339 143.188 122.227 146.276 122.227 146.276L121.74 148.463C121.74 148.463 118.88 149.708 116.052 149.065C115.656 148.973 115.264 148.849 114.882 148.682C111.729 147.285 110.225 140.744 110.225 140.744C111.593 142.136 114.184 143.537 117.202 143.379Z" stroke="#50266B" stroke-width="0.464789"/>
</g>
<path d="M114.229 150.104C114.455 146.519 114.31 142.909 113.801 139.357C113.64 138.258 113.438 137.136 112.856 136.199" stroke="#F8FF00" stroke-width="0.464789"/>
<path d="M103.145 140.038C102.297 144.713 103.896 149.461 105.68 153.87C107.085 157.35 108.741 162.405 112.73 163.672C117.356 165.142 116.501 159.013 115.903 156.139C115.539 154.386 114.667 152.796 113.803 151.237C112.786 149.396 111.769 147.555 110.751 145.714C109.209 142.921 107.215 139.812 104.049 139.432C103.791 139.4 103.492 139.408 103.315 139.602C103.21 139.715 103.177 139.885 103.145 140.038Z" fill="#C87B00"/>
<path d="M120.548 142.461C119.353 142.315 118.481 143.551 117.972 144.641C116.236 148.347 113.322 156.261 116.212 160.233C118.99 164.061 121.695 150.414 122.099 148.84C122.551 147.087 122.971 145.101 122.034 143.551C121.703 143.01 121.178 142.533 120.548 142.461Z" fill="#DA4C00"/>
<path d="M72.0623 132.031C72.4741 132.814 72.7246 133.678 72.9668 134.526C74.0005 138.103 75.0258 141.672 76.0432 145.257C76.4388 146.606 77.5854 149.004 77.0365 150.175C76.6814 150.942 74.937 152.363 74.0567 152.129C73.6612 152.016 73.3461 151.709 73.0635 151.41C67.5404 145.621 63.6971 138.467 59.9262 131.409C58.715 129.14 57.4796 126.799 57.2133 124.239C56.9469 121.68 57.8914 118.821 60.1363 117.562C60.8632 117.15 61.7352 116.932 62.5425 117.142C63.3336 117.343 63.9634 117.933 64.5207 118.539C65.9903 120.129 67.1937 121.962 68.0656 123.941C68.9055 125.854 69.4544 127.913 70.5527 129.69C71.0454 130.481 71.6343 131.208 72.0623 132.031Z" fill="#4DAD00"/>
<path d="M89.1221 126.386C85.6984 130.948 82.7349 135.858 80.2967 141.018C79.2871 143.149 76.4533 150.61 81.4191 149.504C84.1321 148.898 86.5062 147.3 88.8074 145.741C91.5529 143.876 94.5805 141.559 94.7985 138.248C94.871 137.231 94.653 136.213 94.4351 135.212C93.7811 132.192 93.1192 129.148 91.8917 126.314C91.7305 125.935 91.5283 125.539 91.1648 125.353C90.4221 124.982 89.6226 125.724 89.1221 126.386Z" fill="#4DAD00"/>
<path d="M77.3418 150.559C78.5935 148.645 78.7794 146.207 78.4806 143.938C78.1817 141.668 77.4385 139.481 76.9946 137.236C76.6553 135.532 76.4783 133.796 76.2277 132.068C75.4283 126.586 73.8294 121.224 71.4957 116.193" stroke="#AD00AC" stroke-width="0.464789"/>
<path d="M79.9533 146.034C80.1309 138.364 80.3084 130.669 79.4848 123.046C79.4202 122.441 79.2427 121.706 78.6533 121.561" stroke="#AD00AC" stroke-width="0.464789"/>
<path d="M64.9164 110.641C65.0456 110.107 65.0214 109.55 65.0535 109.009C65.126 107.637 65.6512 105.36 66.8299 104.463C68.0574 103.527 68.7114 104.31 69.9226 104.899C71.4002 105.618 72.498 105.538 73.5559 106.934C74.4199 108.081 74.9614 109.486 75.0985 110.907C75.2114 112.005 75.0743 113.151 74.5816 114.145C74.0811 115.129 73.2008 115.954 72.135 116.252C71.6665 116.382 71.1738 116.406 70.6895 116.389C68.9698 116.317 67.2821 115.655 65.9659 114.541C65.1423 113.846 64.4321 112.837 64.5933 111.771C64.65 111.383 64.8276 111.02 64.9164 110.641Z" fill="#DA4C00"/>
<path d="M76.5108 122.949C75.0091 121.35 74.3714 119.114 74.1372 116.926C73.7821 113.518 76.0828 109.893 79.4985 108.851C82.2277 108.036 87.2902 110.466 89.0666 112.485C90.0274 113.575 89.9144 115.206 89.7531 116.651C89.5997 117.968 89.438 119.323 88.7599 120.462C88.3402 121.165 87.7508 121.746 87.1694 122.32C86.58 122.901 85.9907 123.482 85.3042 123.943C82.6395 125.735 78.707 125.291 76.5108 122.949Z" fill="white"/>
</g>
</svg>
