<svg width="101" height="101" viewBox="0 0 101 101" fill="none" xmlns="http://www.w3.org/2000/svg">
<g clip-path="url(#clip0_201_2336)">
<path d="M7.47513 78.4319C7.47513 78.4319 10.7259 84.9613 21.5322 85.883C32.3384 86.8047 37.5067 78.3204 38.8971 72.64C40.2876 66.9596 29.2148 56.2289 29.2148 56.2289L35.959 51.1935L47.7133 67.2387L52.1019 73.9412L54.3996 77.1385L60.409 77.7285L60.5273 73.4355C60.5273 73.4355 62.2501 77.3184 67.6168 80.8617C72.9835 84.4052 78.6815 84.7476 78.6815 84.7476C78.6815 84.7476 67.2268 78.3886 66.4074 72.1161C65.5879 65.8435 68.0922 59.9351 68.0922 59.9351L71.7736 55.5265L65.2521 45.489L64.7674 46.8066L67.2463 55.2345C67.2463 55.2345 63.7511 61.4036 63.3058 64.0476C62.8605 66.6916 59.8817 58.6562 59.8817 58.6562C59.8817 58.6562 51.3593 64.9258 50.8441 64.3929C50.3289 63.8602 36.7426 39.4288 36.7426 39.4288L42.8273 31.4533L38.6883 28.2389C38.6883 28.2389 39.1665 25.4722 40.2891 24.7202C41.4116 23.9683 44.387 23.2851 44.387 23.2851L38.2043 22.1878L34.315 22.4615L33.9966 28.5607L38.8305 32.6193L30.3838 50.8836L27.93 55.6212C27.93 55.6212 33.5904 60.0328 35.3198 65.365C37.0491 70.6971 34.7197 76.2512 28.932 80.3649C18.0416 88.1058 7.47513 78.4319 7.47513 78.4319Z" fill="#58944A"/>
<path d="M54.0757 74.8275C54.1225 74.9107 53.8067 76.7725 54.4051 77.1382C55.0035 77.5039 60.2317 78.0275 60.4145 77.7282C60.5973 77.4289 60.3978 76.0742 60.3978 76.0742L54.0757 74.8275Z" fill="#4A3333"/>
<path d="M68.766 37.6078C68.6529 37.8373 64.589 47.7033 64.589 47.7033C64.589 47.7033 62.9854 47.4836 62.869 47.1409C62.7526 46.7982 66.799 36.8717 66.799 36.8717L68.766 37.6078Z" fill="#B0C1D3"/>
<path d="M62.3622 37.596C62.3622 37.596 67.1253 37.4865 68.9457 38.142C70.766 38.7975 72.3485 39.4648 73.1385 38.5571C73.9285 37.6494 75.3773 35.5922 74.5145 35.0139C73.6517 34.4356 61.4711 34.7459 60.6054 36.1732C59.7397 37.6004 62.3622 37.596 62.3622 37.596Z" fill="#ED4450"/>
<path opacity="0.2" d="M87.7272 80.7991C94.9832 76.6097 97.4691 67.3313 93.2797 60.0753C89.0903 52.8192 79.812 50.3333 72.5561 54.5227C65.3001 58.7122 62.8141 67.9906 67.0035 75.2466C71.1929 82.5026 80.4712 84.9886 87.7272 80.7991Z" fill="white"/>
<path d="M89.9879 79.9056C90.2017 79.7331 90.4098 79.5552 90.6145 79.3713C91.0327 78.9929 91.4329 78.5907 91.8099 78.1663C92.1496 77.7845 92.4707 77.3848 92.7726 76.967C93.8655 75.4568 94.7014 73.722 95.1997 71.8098C97.3496 63.5585 92.4041 55.1277 84.1528 52.9778C82.1286 52.4504 80.0935 52.3502 78.1437 52.6211C78.1064 52.6254 78.0688 52.6307 78.032 52.6371C75.3063 53.0354 72.7494 54.159 70.6253 55.8547C70.5939 55.8786 70.5635 55.9029 70.5337 55.9283C68.0618 57.9292 66.1844 60.7103 65.3208 64.0247C63.1709 72.2759 68.1165 80.7067 76.3676 82.8567C81.3055 84.1433 86.3073 82.889 89.9879 79.9056ZM92.0125 70.9794C91.6294 72.4497 90.9925 73.7864 90.1615 74.955C89.9175 75.2986 89.6568 75.6277 89.3801 75.9404C89.0658 76.2981 88.732 76.6348 88.3794 76.951C88.1898 77.1209 87.9943 77.2856 87.7942 77.4426C84.9104 79.7215 81.0294 80.668 77.198 79.6698C70.7075 77.9787 66.8167 71.3457 68.5077 64.8552C70.1989 58.3647 76.8317 54.4738 83.3221 56.1649C89.8129 57.8559 93.7037 64.4888 92.0125 70.9794Z" fill="white"/>
<path d="M90.8578 80.8288C91.0694 80.6568 91.2745 80.4791 91.4768 80.2966C91.9186 79.8972 92.3407 79.4726 92.7386 79.0254C93.099 78.6219 93.44 78.2002 93.7604 77.7611C94.9601 76.115 95.8777 74.2206 96.4223 72.1305C98.748 63.2045 93.3969 54.082 84.4709 51.7563C76.9142 49.7875 69.2161 53.3209 65.6218 59.8684C64.9702 61.0544 64.4535 62.3387 64.0968 63.708C63.6981 65.2381 63.5251 66.7739 63.5567 68.2806C63.7108 75.5614 68.6525 82.1552 76.0484 84.0823C81.4228 85.4825 86.8682 84.0995 90.8578 80.8288ZM83.7072 54.6877C91.0149 56.5919 95.3951 64.0589 93.4911 71.3667C93.0545 73.042 92.326 74.5631 91.3739 75.8893C91.1031 76.2673 90.8141 76.6302 90.5073 76.9758C90.1636 77.3638 89.7993 77.7311 89.4157 78.0759C89.2195 78.253 89.0177 78.4247 88.8111 78.5895C85.5559 81.1941 81.1562 82.2825 76.8121 81.1506C69.5045 79.2465 65.1243 71.7793 67.0282 64.4716C68.9322 57.1639 76.3994 52.7837 83.7072 54.6877Z" fill="#2E333A"/>
<path d="M76.3024 58.5303C80.0534 56.3889 84.7827 57.137 87.7053 60.3145C87.8908 60.5162 88.1879 60.2153 88.0049 60.014C84.9565 56.6618 79.9966 55.8819 76.0604 58.1176C75.7921 58.2699 76.0347 58.6831 76.3024 58.5303Z" fill="#E5EAEC"/>
<path d="M87.6761 63.3608C86.822 61.6103 85.4054 60.1198 83.4767 59.6175C83.1956 59.5443 83.0817 59.9797 83.3628 60.0542C85.1761 60.5354 86.4696 61.957 87.2684 63.5999C87.4016 63.8739 87.809 63.6331 87.6761 63.3608ZM79.2666 78.2193C79.5444 78.2554 79.6598 77.8294 79.3779 77.7918C75.9052 77.3304 72.8705 75.1855 71.2136 72.107C71.0798 71.8586 70.7106 72.0791 70.8376 72.3276C72.4745 75.5298 75.7082 77.7571 79.2666 78.2193Z" fill="#E5EAEC"/>
<path d="M81.6262 70.6356C82.8821 69.9105 83.3123 68.3046 82.5873 67.0487C81.8622 65.7929 80.2563 65.3626 79.0005 66.0877C77.7446 66.8128 77.3144 68.4187 78.0395 69.6746C78.7645 70.9304 80.3704 71.3607 81.6262 70.6356Z" fill="#6C4E4E"/>
<path d="M66.6992 44.3018C66.6978 44.0539 67.1866 42.8113 67.1866 42.8113C67.1866 42.8113 64.8246 41.7088 64.3301 41.9597C64.1607 42.045 62.9839 44.8302 61.4946 48.4616C61.2695 49.0072 61.0384 49.5725 60.8025 50.1505C58.0219 56.962 54.5859 65.5588 54.3606 65.6358C54.0697 65.7341 48.8201 60.4774 42.8187 49.3072C41.855 47.5137 40.8707 45.5666 39.8854 43.4645C39.1613 41.92 38.4353 40.2913 37.7164 38.5782L35.076 42.9947C35.076 42.9947 37.3008 47.6537 40.164 53.1572C41.2923 55.3243 42.5191 57.6233 43.7492 59.8195C46.9057 65.4614 50.0796 70.4312 51.6327 70.7906C55.3249 71.6436 80.6068 69.7635 80.9752 69.1414C81.3436 68.5193 66.7006 44.5498 66.6992 44.3018ZM78.9228 67.9751C78.8002 68.2238 56.8523 67.7292 56.8523 67.7292C56.8523 67.7292 61.0078 57.6763 63.6516 51.4397C63.9122 50.8257 64.1568 50.2491 64.382 49.7221C65.1773 47.8639 65.7232 46.6309 65.7825 46.6008C66.0297 46.4754 79.0453 67.7265 78.9228 67.9751Z" fill="#FC9081"/>
<path d="M80.3517 69.7508C81.0471 69.7469 81.6077 69.1799 81.6038 68.4844C81.5998 67.789 81.0328 67.2284 80.3374 67.2323C79.6419 67.2363 79.0813 67.8033 79.0853 68.4987C79.0892 69.1942 79.6562 69.7548 80.3517 69.7508Z" fill="#FC9081"/>
<path d="M58.189 76.3891C57.8082 75.488 57.1599 74.668 56.671 73.8187C56.1604 72.9316 55.6835 72.0262 55.2341 71.1065C54.9196 70.4633 53.9947 71.061 54.2954 71.6975C54.7332 72.6239 55.1985 73.5365 55.6979 74.4313C56.1684 75.2741 56.6264 76.2464 57.2922 76.9513C57.6556 77.3359 58.4023 76.8937 58.189 76.3891Z" fill="#4A3333"/>
<path d="M56.3149 69.7177C57.3332 67.8553 56.6489 65.5199 54.7864 64.5016C52.924 63.4833 50.5887 64.1676 49.5704 66.0301C48.5521 67.8925 49.2364 70.2278 51.0988 71.2462C52.9613 72.2645 55.2966 71.5802 56.3149 69.7177Z" fill="#4A3333"/>
<path d="M52.8405 73.7821L52.7988 73.288C53.0401 73.2675 76.9386 71.2511 78.6471 71.0724C78.831 71.0531 79.0204 71.0365 79.2128 71.0196C80.8055 70.8798 82.4525 70.7352 82.695 69.0346C82.9812 67.0295 81.5283 66.226 80.6247 66.0673C79.5931 65.8862 54.5945 64.0739 54.3422 64.0557L54.378 63.561C55.4095 63.6358 79.6543 65.3934 80.7103 65.5789C82.11 65.8246 83.4817 67.0327 83.1861 69.1047C82.8877 71.1947 80.8741 71.3716 79.2561 71.5137C79.0667 71.5303 78.88 71.5467 78.6987 71.5657C76.9853 71.745 53.0817 73.7618 52.8405 73.7821Z" fill="#4A3333"/>
<path d="M79.123 64.6848C78.4871 64.2095 52.6908 62.1262 52.6908 62.1262C49.3375 62.2367 46.7086 65.0447 46.819 68.3981C46.9294 71.7515 49.7374 74.3804 53.0908 74.27C56.4441 74.1596 59.3826 71.8674 59.2722 68.5139C59.2311 67.2664 58.9382 66.1153 58.2613 65.1721C58.879 64.7965 79.554 66.2812 79.9154 66.1473C80.283 66.0111 79.7588 65.16 79.123 64.6848ZM52.9866 71.11C51.3784 71.163 50.0317 69.9022 49.9788 68.2939C49.9259 66.6857 51.1867 65.339 52.7949 65.2861C54.4031 65.233 55.7498 66.4939 55.8027 68.1022C55.8558 69.7103 54.595 71.057 52.9866 71.11Z" fill="#ED4450"/>
<path d="M52.8702 66.9784C51.5509 64.4541 49.542 60.9249 48.0654 58.4894C47.6968 57.8813 46.8427 58.4537 47.1472 59.0674C48.4141 61.6206 50.4443 65.14 51.87 67.6081C52.254 68.2727 53.2189 67.6455 52.8702 66.9784Z" fill="#4A3333"/>
<path d="M59.4752 56.7351C60.2577 54.8915 61.0763 53.063 61.9292 51.2509C62.1132 50.86 61.5287 50.521 61.3451 50.914C60.4852 52.7554 59.6708 54.616 58.8975 56.4955C58.7629 56.8227 59.3357 57.0637 59.4752 56.7351ZM62.2227 49.5743C62.3897 49.6114 62.5405 49.5221 62.5933 49.3612C62.6227 49.2711 62.6522 49.1812 62.6815 49.0911C62.7307 48.9408 62.6218 48.7547 62.4684 48.7207C62.3013 48.6836 62.1505 48.7729 62.0978 48.9338C62.0684 49.0237 62.0389 49.1138 62.0094 49.2038C61.9604 49.3542 62.0692 49.5403 62.2227 49.5743Z" fill="white"/>
<path d="M44.4273 56.487C44.4538 56.5786 43.7198 58.3186 44.2186 58.8116C44.7173 59.3047 49.6865 61.0122 49.9329 60.7628C50.1795 60.5134 50.2957 59.1489 50.2957 59.1489L44.4273 56.487Z" fill="#4A3333"/>
<path d="M37.8981 32.1861C37.7384 32.0673 34.5086 30.9698 33.5076 29.3638C32.5066 27.7578 34.0857 22.0455 34.5802 21.7946C35.0747 21.5438 39.2893 21.3958 39.2893 21.3958L39.0485 22.637C39.0485 22.637 35.9483 22.5307 35.4546 22.9055C34.9608 23.2802 34.1191 27.8724 34.6186 28.4895C35.118 29.1066 37.5452 30.7665 37.5452 30.7665L37.8981 32.1861Z" fill="#B0C1D3"/>
<path d="M38.6821 23.0474C38.6813 22.913 43.8729 23.5552 44.3901 23.2835C44.9074 23.0119 44.8688 20.8997 44.8688 20.8997L39.0604 21.1642L38.6821 23.0474Z" fill="#4A3333"/>
<path d="M38.1389 36.2778C38.1389 36.2778 41.0882 31.6736 40.9629 31.4263C40.8375 31.179 39.7167 30.3175 39.4695 30.443C39.2223 30.5684 38.7306 31.3151 38.7306 31.3151C38.7306 31.3151 36.8617 29.7139 36.7334 28.9708C36.6053 28.2275 39.2967 21.889 40.0398 21.7608C40.7829 21.6326 43.2605 21.2464 43.2605 21.2464L43.7472 19.6319C43.7472 19.6319 39.7841 20.3985 39.1656 20.65C38.5471 20.9015 34.7468 28.4863 35.2485 29.4752C35.75 30.4642 37.8676 32.188 37.869 32.4359C37.8704 32.6839 36.029 35.918 36.029 35.918L38.1389 36.2778Z" fill="#B0C1D3"/>
<path d="M46.7366 18.809C46.0398 18.9708 41.6823 19.784 41.3922 20.0189C40.7751 20.5183 41.2626 21.5982 41.5273 21.7286C41.7919 21.859 46.0632 21.0629 46.9081 20.9651C47.7531 20.8672 47.4333 18.6472 46.7366 18.809Z" fill="#6C4E4E"/>
<path d="M20.4741 66.9924C20.4741 66.9924 27.5771 50.6137 28.4424 48.8583C29.3075 47.1028 31.1447 45.2446 31.8261 45.3379C32.5074 45.4312 31.9538 50.686 31.9538 50.686L21.1604 67.9609L20.4741 66.9924Z" fill="#E86F64"/>
<path opacity="0.2" d="M28.2389 81.566C35.4949 77.3765 37.9808 68.0981 33.7914 60.8421C29.602 53.5861 20.3237 51.1001 13.0678 55.2896C5.81181 59.479 3.32586 68.7574 7.51526 76.0134C11.7047 83.2695 20.9829 85.7554 28.2389 81.566Z" fill="white"/>
<path d="M29.9494 55.771C29.7277 55.6089 29.5022 55.4536 29.2718 55.3032C28.7984 54.9966 28.3067 54.7135 27.7995 54.4587C27.343 54.2289 26.874 54.0215 26.3926 53.8375C24.6519 53.1706 22.7602 52.8098 20.7842 52.8212C12.2577 52.8698 5.38578 59.8207 5.43454 68.3474C5.44642 70.4392 5.87411 72.4313 6.63812 74.2456C6.65198 74.2805 6.66676 74.3155 6.68252 74.3493C7.76963 76.8804 9.51409 79.0614 11.6998 80.677C11.731 80.7012 11.7623 80.7243 11.7946 80.7464C14.3649 82.6194 17.5356 83.7167 20.9607 83.6972C29.4872 83.6485 36.3591 76.6977 36.3104 68.171C36.2812 63.0685 33.7804 58.5587 29.9494 55.771ZM20.8037 56.2181C22.3101 56.2096 23.7534 56.4782 25.0851 56.9758C25.4766 57.1218 25.8584 57.2875 26.2287 57.4726C26.6516 57.6824 27.0595 57.9162 27.4524 58.1731C27.6637 58.3113 27.8713 58.4566 28.0728 58.6081C30.9926 60.7887 32.8909 64.2648 32.9133 68.1904C32.9513 74.8402 27.5909 80.2621 20.9411 80.3002C14.2912 80.3383 8.8694 74.9779 8.83138 68.3279C8.7935 61.6781 14.1539 56.2562 20.8037 56.2181Z" fill="white"/>
<path d="M30.6148 54.6864C30.3941 54.5262 30.1695 54.3738 29.9411 54.2253C29.4413 53.9014 28.9223 53.6029 28.3877 53.3336C27.9049 53.0894 27.4097 52.8685 26.9029 52.6721C25.0033 51.937 22.9364 51.5384 20.7765 51.5507C11.5527 51.6034 4.11709 59.1244 4.16974 68.3483C4.21435 76.1573 9.61195 82.6851 16.8644 84.4709C18.1781 84.795 19.5523 84.9632 20.9672 84.9551C22.5484 84.9461 24.0768 84.7176 25.5245 84.2989C32.5197 82.274 37.6176 75.8001 37.574 68.1575C37.5423 62.6039 34.803 57.6986 30.6148 54.6864ZM7.19905 68.3311C7.15595 60.7795 13.2424 54.6231 20.794 54.58C22.5251 54.5701 24.1825 54.882 25.7092 55.4603C26.1444 55.6246 26.5694 55.8105 26.9825 56.0177C27.4459 56.2499 27.8946 56.5073 28.3267 56.789C28.5484 56.9331 28.7663 57.0838 28.9787 57.2409C32.334 59.7152 34.5192 63.6859 34.5449 68.175C34.588 75.7266 28.5016 81.883 20.95 81.9261C13.3984 81.9692 7.24215 75.8827 7.19905 68.3311Z" fill="#2E333A"/>
<path d="M12.8147 74.4997C9.77914 71.4271 9.28355 66.6645 11.6006 63.0221C11.7477 62.7908 11.3804 62.5813 11.2331 62.8101C8.77958 66.6193 9.3039 71.6128 12.4783 74.8401C12.6946 75.0598 13.0313 74.7189 12.8147 74.4997Z" fill="#E5EAEC"/>
<path d="M14.5607 62.2638C13.0895 63.5401 12.0142 65.293 12.0259 67.2861C12.0276 67.5766 12.4777 67.5744 12.4773 67.2835C12.4751 65.4075 13.5152 63.7914 14.8969 62.5961C15.1272 62.3969 14.7897 62.0654 14.5607 62.2638ZM31.0842 66.5611C31.0476 66.2835 30.6062 66.2817 30.6426 66.5637C31.0915 70.0382 29.8009 73.5231 27.2535 75.9173C27.048 76.1105 27.3561 76.4105 27.5634 76.2238C30.2356 73.817 31.5545 70.1186 31.0842 66.5611Z" fill="#E5EAEC"/>
<path d="M23.147 69.9132C24.1664 68.8819 24.1569 67.2194 23.1256 66.1999C22.0943 65.1804 20.4318 65.19 19.4123 66.2213C18.3929 67.2526 18.4024 68.9151 19.4337 69.9346C20.465 70.954 22.1275 70.9445 23.147 69.9132Z" fill="#6C4E4E"/>
<path d="M33.3204 46.4268C33.4377 46.4847 33.7216 48.5641 32.1856 52.0739C31.8811 52.7696 22.4891 67.7478 22.1095 68.207C21.9728 68.3723 21.7292 68.7431 21.486 68.7648C20.8552 68.8209 20.6744 68.2895 20.784 67.7329C20.8527 67.3833 21.0286 67.0657 21.1991 66.7528C22.3879 64.5709 26.7762 56.3893 27.9189 54.2377C30.613 49.1652 31.261 46.945 31.2588 46.3886C31.2581 46.1932 30.9108 45.4075 30.7516 45.2492C30.5564 45.055 35.5103 34.8073 35.8993 34.8051C36.8911 34.7995 38.8821 36.0644 38.8855 36.6479C38.8888 37.2313 34.2928 46.4213 34.0017 46.5203C33.7106 46.619 33.3208 46.4269 33.3204 46.4268Z" fill="#FC9081"/>
<path d="M33.3287 46.2165C32.6431 45.9241 31.9596 45.5892 31.2531 45.3504C30.9904 45.2615 30.8264 45.6667 31.0677 45.7972C31.7028 46.1409 32.3911 46.4048 33.0506 46.6983C33.3769 46.8434 33.6555 46.3559 33.3287 46.2165ZM37.3922 39.6715C36.9833 40.6139 35.8488 42.9288 35.453 43.8768C35.3676 44.0812 35.6723 44.239 35.762 44.0336C36.1731 43.0926 37.3178 40.7825 37.7161 39.8358C37.8062 39.6216 37.4855 39.4562 37.3922 39.6715Z" fill="#E86F64"/>
<path d="M22.4514 67.9777C22.448 67.3869 21.9663 66.9107 21.3755 66.9141C20.7847 66.9175 20.3085 67.3991 20.3119 67.9899C20.3153 68.5807 20.797 69.0569 21.3877 69.0535C21.9786 69.0502 22.4547 68.5685 22.4514 67.9777Z" fill="#FC9081"/>
<path d="M35.8041 36.0845C35.0448 37.4306 34.3084 38.8018 33.6789 40.2135C33.5318 40.5434 33.9844 40.8241 34.1748 40.4996C34.9566 39.1669 35.6657 37.786 36.3681 36.4098C36.5576 36.0384 36.0112 35.7175 35.8041 36.0845ZM33.474 41.3722C33.3327 41.2907 33.0856 41.3269 33.0154 41.4952C32.9277 41.7058 32.8399 41.9164 32.752 42.127C32.6829 42.2927 32.7045 42.4837 32.874 42.5815C33.0151 42.6629 33.2577 42.6257 33.3285 42.4596C33.418 42.2499 33.5074 42.0404 33.5969 41.8307C33.6681 41.6641 33.644 41.4704 33.474 41.3722Z" fill="white"/>
</g>
<defs>
<clipPath id="clip0_201_2336">
<rect width="100" height="100" fill="white" transform="translate(0.398438 0.484131)"/>
</clipPath>
</defs>
</svg>
