<svg width="100" height="65" viewBox="0 0 100 65" fill="none" xmlns="http://www.w3.org/2000/svg">
<path d="M27.9949 18.9275L9.38281 8.59766H71.7242L94.8856 18.9275H27.9949Z" fill="#D09A75"/>
<path d="M41.0312 20.8387V1.55151C42.5626 1.74014 43.9872 1.97096 45.1314 2.3085L45.4019 22.0697C44.5606 20.8089 42.101 20.2008 41.0312 20.8362V20.8387Z" fill="#FDF8E6"/>
<path d="M58.0747 0.760534L45.0172 2.31175C43.8036 1.94938 42.4608 1.70863 41.0312 1.55475L54.8135 0.0556641L58.0722 0.760534H58.0747Z" fill="#E5E1D1"/>
<path d="M58.077 0.760498L45.0195 2.31171L45.4042 22.0729L58.0671 19.5513L58.077 0.760498Z" fill="#C4C697"/>
<path d="M41.0331 20.839V1.5543L54.8153 0.0527344H54.6688L40.832 1.50963V20.839H41.0331Z" fill="#C4C697"/>
<path d="M79.594 1.18457H88.6878V20.5412H75.1562V5.62229C75.1562 3.17261 77.1443 1.18457 79.594 1.18457Z" fill="#C4C697"/>
<path d="M88.685 1.35815C90.3479 1.35815 91.7005 2.70833 91.7005 4.37371V20.5411H85.6719V4.37371C85.6719 2.71081 87.0221 1.35815 88.6874 1.35815H88.685Z" fill="#FDF8E6"/>
<path d="M92.0326 20.5414H91.3749V3.67912C91.3749 2.61685 90.5087 1.81767 89.3595 1.81767H88.0168C86.8677 1.81767 86.0015 2.61685 86.0015 3.67912V20.5414H85.3438V3.67912C85.3438 2.24208 86.4929 1.15747 88.0168 1.15747H89.3595C90.8834 1.15747 92.0326 2.24208 92.0326 3.67912V20.5414Z" fill="#C4C697"/>
<path d="M73.215 1.0979H82.3089V20.4545H68.7773V5.5356C68.7773 3.08593 70.7654 1.0979 73.215 1.0979Z" fill="#99C0E9"/>
<path d="M82.31 1.27148C83.9729 1.27148 85.3255 2.62167 85.3255 4.28705V20.4544H79.2969V4.28705C79.2969 2.62415 80.6471 1.27148 82.3124 1.27148H82.31Z" fill="#FDF8E6"/>
<path d="M85.6608 20.4547H84.9857V3.59241C84.9857 2.53262 84.1418 1.76322 82.9803 1.76322H81.6375C80.476 1.76322 79.6321 2.53262 79.6321 3.59241V20.4547H78.957V3.59241C78.957 2.1653 80.1087 1.08813 81.6375 1.08813H82.9803C84.5091 1.08813 85.6608 2.1653 85.6608 3.59241V20.4547Z" fill="#99C0E9"/>
<path d="M75.8128 1.09888H64.6366C63.3361 1.09888 62.2812 2.1537 62.2812 3.45423V20.4555H75.8128V1.09888Z" fill="#42B0AD"/>
<path d="M75.8139 1.27246C77.4768 1.27246 78.8294 2.62264 78.8294 4.28802V20.4554H72.8008V4.28802C72.8008 2.62512 74.151 1.27246 75.8163 1.27246H75.8139Z" fill="#FDF8E6"/>
<path d="M79.1062 20.4558H78.5453V3.65804C78.5453 2.53869 77.6195 1.62781 76.4803 1.62781H75.1376C74.0009 1.62781 73.0726 2.53869 73.0726 3.65804V20.4558H72.5117V3.65804C72.5117 2.22844 73.6882 1.06689 75.1351 1.06689H76.4779C77.9248 1.06689 79.1013 2.22844 79.1013 3.65804V20.4558H79.1062Z" fill="#42B0AD"/>
<path d="M16.7999 19.6592C16.234 18.3264 16.378 16.9241 17.0009 15.4722H34.9776C35.7867 15.4722 35.6081 15.8221 35.6279 16.3955C35.6627 17.3733 35.7594 18.1427 35.613 19.3986C35.5956 19.545 35.4219 19.6592 35.2134 19.6592H16.8024H16.7999Z" fill="#FDF8E6"/>
<path d="M17.0079 19.674H34.8257C35.1409 19.674 35.3965 19.468 35.3965 19.2124V15.9486C35.3965 15.693 35.1409 15.487 34.8257 15.487H17.1146C16.7994 15.487 16.5437 15.281 16.5437 15.0254C16.5437 14.7697 16.7994 14.5637 17.1146 14.5637H45.3268C45.642 14.5637 45.8976 14.7697 45.8976 15.0254V20.1084C45.8976 20.364 45.642 20.57 45.3268 20.57H17.0203C16.6579 20.57 16.3725 20.297 16.4618 20.0116C16.4668 19.9942 16.4742 19.9793 16.4817 19.9619C16.5611 19.7857 16.7795 19.674 17.0103 19.674H17.0079Z" fill="#E54633"/>
<path d="M15.0107 13.6081C14.4498 11.3669 14.3059 9.29694 15.3309 7.7085H30.2945L30.019 13.6081H15.0132H15.0107Z" fill="#FDF8E6"/>
<path d="M15.2195 7.7065H29.0315C29.3939 7.7065 29.6867 7.93732 29.6743 8.22026L29.4832 13.1246C29.4733 13.3926 29.1879 13.6061 28.8404 13.6061H15.2195C14.8646 13.6061 14.5742 13.8294 14.5742 14.1025C14.5742 14.378 14.8621 14.5989 15.2195 14.5989H46.7972C47.1521 14.5989 47.4425 14.3755 47.4425 14.1025V6.93462C47.4425 6.65913 47.1546 6.43823 46.7972 6.43823H15.2195C14.8646 6.43823 14.5742 6.66161 14.5742 6.93462V7.20763C14.5742 7.48312 14.8621 7.70402 15.2195 7.70402V7.7065Z" fill="#FED44E"/>
<path d="M16.2625 5.46391C15.7066 4.0368 15.8481 2.53274 16.4586 0.976562H34.1325C34.9267 0.976562 34.7505 1.35133 34.7703 1.96437C34.8026 3.01423 34.9019 3.83824 34.7555 5.18345C34.7381 5.3423 34.5668 5.46391 34.3633 5.46391H16.2625Z" fill="#FDF8E6"/>
<path d="M16.1711 5.47834H33.8698C34.2248 5.47834 34.5102 5.25743 34.5102 4.98442V1.48738C34.5102 1.21436 34.2223 0.993465 33.8698 0.993465H16.2903C15.9354 0.993465 15.6499 0.772575 15.6499 0.499562C15.6499 0.226548 15.9378 0.00317383 16.2903 0.00317383H45.6591C46.014 0.00317383 46.2994 0.224064 46.2994 0.497077V5.94493C46.2994 6.21794 46.0115 6.43885 45.6591 6.43885H16.1836C15.7765 6.43885 15.4563 6.14597 15.5581 5.84069C15.5631 5.82332 15.5705 5.80595 15.5804 5.78858C15.6698 5.59995 15.913 5.48081 16.1736 5.48081L16.1711 5.47834Z" fill="#99C1E5"/>
<path d="M25.9436 3.7438C26.3779 3.69416 27.6313 3.69912 28.356 3.75621C27.7529 4.58269 27.7033 5.7914 27.6958 6.84375L26.6807 6.00237L25.9312 6.84375C25.3578 6.00237 25.6085 4.2526 25.9436 3.7438Z" fill="#2B4A70"/>
<path d="M49.7578 22.5611V3.27393C51.2892 3.46255 52.7138 3.69337 53.858 4.03091L54.1285 23.7921C53.2871 22.5313 50.8275 21.9232 49.7578 22.5586V22.5611Z" fill="#FDF8E6"/>
<path d="M66.8013 2.48197L53.7438 4.03318C52.5301 3.67082 51.1874 3.43007 49.7578 3.27619L63.54 1.7771L66.7988 2.48197H66.8013Z" fill="#E5E1D1"/>
<path d="M66.7997 2.48193L53.7422 4.03066L54.1269 23.7943L66.7897 21.2727L66.7997 2.48193Z" fill="#EC4A31"/>
<path d="M49.7582 22.5604V3.27326L63.5404 1.77417H63.394L49.5547 3.23107V22.5604H49.7582Z" fill="#EC4A31"/>
<path d="M62.4306 2.52401C62.0062 2.61584 60.7627 2.79206 60.043 2.86403C60.5716 2.30063 60.3532 1.58087 60.1348 0.987688L61.3286 1.22348L61.959 0.665039C62.6664 1.03485 62.721 2.18399 62.4306 2.52649V2.52401Z" fill="#99C0E9"/>
<path d="M51.0469 19.3279V6.948L51.3273 19.1889L51.0469 19.3279Z" fill="#E5E1D1"/>
<path d="M52.7969 9.79248V14.0341L52.8391 10.3484L52.7969 9.79248Z" fill="#E5E1D1"/>
<path d="M70.0324 19.6608L71.3701 6.67529L57.0469 18.3255L68.6971 32.6488L70.0349 19.6633L70.0324 19.6608ZM68.1461 13.0241L67.4909 19.3977L66.8356 25.7713L61.1172 18.74L68.1486 13.0216L68.1461 13.0241Z" fill="#FDF8E6"/>
<path d="M42.5971 28.9784L36.576 8.70098C36.4643 8.32124 36.6454 7.93406 36.9805 7.83478L39.6734 7.03559C40.0085 6.93631 40.3733 7.16218 40.485 7.54192L46.5062 27.8194C46.6179 28.1991 46.4367 28.5863 46.1016 28.6856L43.4087 29.4847C43.0737 29.584 42.7088 29.3582 42.5971 28.9784Z" fill="#E89B3F"/>
<path d="M27.9949 18.9275L9.38281 8.59766V55.1191L27.9949 64.965V18.9275Z" fill="#D09A75"/>
<path d="M94.8893 18.9277H27.9961V64.9652L92.5 59.498L94.8893 18.9277Z" fill="#EDBB98"/>
<path d="M27.9961 18.9277L35.1342 40.6869L100 39.498L94.8868 18.9277H27.9961Z" fill="#F2CDB1"/>
<path d="M9.38423 8.59766L0 23.8963L20.0466 36.7826L27.9963 18.9275L9.38423 8.59766Z" fill="#F2CDB1"/>
</svg>
