<svg width="101" height="101" viewBox="0 0 101 101" fill="none" xmlns="http://www.w3.org/2000/svg">
<g clip-path="url(#clip0_201_2377)">
<path d="M56.1499 25.5857L57.6597 16.6984C57.6597 16.6984 62.5618 14.0355 60.274 10.5496C59.5358 9.42472 58.5669 8.74151 57.5932 8.32958C57.4851 7.74711 57.1658 7.26852 56.4532 7.05726C55.5009 6.77499 54.479 6.8836 53.5648 7.24707C53.6514 6.13699 53.4005 3.84258 49.5528 4.979C45.8347 6.07712 44.9531 9.62036 44.7037 11.5547C43.4646 11.7451 41.755 12.7286 42.6491 14.315C42.2398 14.5835 41.7648 14.9038 41.2225 15.2945C39.3712 16.628 40.3728 20.1435 40.7007 21.1313C36.39 21.6522 35.0756 26.3313 35.8438 30.0664C35.9265 30.4684 36.533 30.2621 36.4505 29.8625C35.8771 27.0892 36.7941 24.2214 38.9445 22.6497C38.5005 23.1636 38.02 23.8859 37.555 24.9052C36.5224 27.168 37.3116 29.9783 38.051 31.1397C37.9456 31.3869 38.0504 30.9803 38.0834 31.2812C38.1023 31.4536 38.1543 31.6081 38.2228 31.7541C37.5391 32.2635 36.5258 33.3793 36.1603 35.6564C35.5884 39.218 39.9006 42.6221 39.9006 42.6221L52.8123 38.443C52.8123 38.443 58.7826 34.6635 59.8356 31.2017C60.8887 27.7401 56.1499 25.5857 56.1499 25.5857Z" fill="#261A1A"/>
<path d="M39.2697 23.5846C38.7851 22.8893 29.8696 15.9367 28.9005 15.1062C27.9316 14.2756 24.7817 11.7212 22.5676 8.11579C22.5589 7.94254 22.8685 7.13171 22.8792 6.95847C22.9165 6.35523 23.4731 5.04326 23.5866 4.15355C23.6998 3.2637 24.2436 2.3471 23.6566 2.2712C23.0697 2.19517 22.7913 2.55063 22.4313 3.39947C22.0712 4.24832 21.8585 4.75 21.1405 4.68225C20.4225 4.61436 19.348 3.34815 19.1598 3.04063C18.9717 2.7331 18.739 1.71481 18.4746 1.0927C18.2104 0.470595 17.5451 0.042778 17.3342 0.573783C17.1232 1.10479 17.544 3.02895 17.544 3.02895C17.544 3.02895 16.4918 1.81759 16.2216 1.40267C15.9514 0.987618 15.4101 0.439234 15.1342 0.832022C14.8582 1.22481 15.0091 2.1357 15.0091 2.1357C15.0091 2.1357 14.0105 1.48454 13.9346 2.07149C13.8586 2.65843 14.614 4.22633 14.5345 4.15613C14.4549 4.08594 13.1437 3.23831 13.1068 3.55045C13.07 3.86273 13.1911 4.89744 14.6596 6.30812C15.9742 7.5708 17.2214 8.96083 18.415 10.2268C19.4501 11.4844 24.2736 17.7069 26.4781 20.3494C28.8314 23.1705 35.8218 29.3637 36.3755 29.3637C36.9291 29.3637 39.7543 24.2799 39.2697 23.5846ZM86.2216 36.0798C86.108 36.1297 87.5078 34.6527 87.6322 33.9721C87.7567 33.2915 86.4129 33.6608 86.4129 33.6608C86.4129 33.6608 86.9053 32.7003 86.738 32.1644C86.5707 31.6287 85.7725 32.0464 85.3239 32.4123C84.8753 32.7782 83.2718 33.7521 83.2718 33.7521C83.2718 33.7521 84.4259 31.7595 84.3803 31.0929C84.3345 30.4265 83.4413 30.6659 82.9254 31.2645C82.4096 31.863 81.7876 32.914 81.4684 33.1895C81.1493 33.4648 79.5015 34.492 78.6779 34.3117C77.8543 34.1315 77.7961 33.4972 77.6975 32.4235C77.599 31.3501 77.4158 30.855 76.7352 30.7305C76.0544 30.606 76.3333 31.8205 76.1425 32.8516C75.9519 33.8828 75.9416 37.5072 75.6646 37.6917C75.3878 37.8762 66.5517 44.0361 66.275 43.8977C65.998 43.7594 64.3929 41.8663 64.065 41.4516C63.7371 41.037 59.6658 44.4469 59.2328 45.4181C58.8 46.3894 62.9527 51.1418 64.8445 51.88C66.7313 52.6163 78.2747 42.2574 79.3781 41.3281C81.2851 40.2256 83.2554 39.4404 85.3153 38.431C87.4531 37.3835 87.9566 36.2744 88.0268 35.9136C88.0974 35.5533 86.335 36.03 86.2216 36.0798Z" fill="#E18F6F"/>
<path d="M40.0639 22.2077C43.4833 25.6267 47.5119 27.2355 49.0035 27.7465C50.4951 28.2576 57.2131 29.2004 57.7626 29.5034C60.7117 31.1298 65.2141 39.5621 65.4909 39.9313C65.7678 40.3004 60.8472 45.5605 59.9161 46.2064C58.985 46.8522 58.985 46.8524 58.985 46.8524L57.2052 44.4992C57.2052 44.4992 56.4472 53.8197 56.2165 54.927C55.9859 56.0344 48.557 57.234 43.4354 56.4959C38.3138 55.7575 33.0075 53.3121 32.8692 53.0815C32.7308 52.8508 39.9288 36.0093 40.021 35.7325C40.1132 35.4557 33.469 30.9735 33.1922 30.4922C32.9153 30.0111 39.8287 21.9725 40.0639 22.2077Z" fill="#6FADA7"/>
<path d="M47.3785 20.8293C47.8651 22.3623 47.5056 24.7834 47.0061 26.533C46.8184 27.1905 49.5862 29.0492 50.5155 29.1804C52.9806 29.5284 54.068 28.4568 54.0265 28.2654C54.0026 28.1554 53.9813 28.0313 53.9617 27.8968C53.9009 27.4641 53.8627 26.9214 53.841 26.3818C53.8479 26.3851 53.8584 26.3892 53.8691 26.3915L53.8813 26.396C54.284 26.5342 56.5584 27.1644 58.2286 25.5145C60.6773 22.4007 58.8974 17.3735 57.1698 13.7998C56.6915 12.8192 55.5505 11.8553 54.4144 11.902C53.3521 11.9471 52.913 12.8109 52.0291 13.2038C51.5792 13.4023 51.0725 13.4121 50.5871 13.4997C50.1022 13.5855 49.5897 13.7861 49.3547 14.2195C49.2238 14.4598 49.1968 14.7443 49.097 14.9986C48.957 15.3557 48.6783 15.6462 48.5558 16.0089C48.4759 16.2485 48.4665 16.5027 48.4351 16.7541C48.3916 17.1086 48.3008 17.4551 48.1961 17.797C48.1509 17.942 48.092 18.0993 47.9573 18.1674C47.6821 18.3042 47.6041 17.8361 47.4739 17.6828C47.295 17.4742 47.1 17.2794 46.8867 17.1089C46.4862 16.7885 45.9134 16.4623 45.4012 16.7158C44.4307 17.1811 44.5054 18.5 44.6197 19.1114C45.0531 21.3978 47.269 20.8575 47.3785 20.8293Z" fill="#E18F6F"/>
<path d="M57.044 19.6592C57.0158 19.4885 56.8455 19.3644 56.6739 19.3947C56.505 19.4244 56.336 19.4542 56.1671 19.4839C55.996 19.514 55.8741 19.6816 55.9026 19.854C55.9308 20.0247 56.1011 20.1488 56.2727 20.1185C56.4416 20.0888 56.6105 20.059 56.7795 20.0293C56.9506 19.9993 57.0725 19.8317 57.044 19.6592Z" fill="#CC5D4C"/>
<path d="M52.9073 13.7229C52.5018 13.9164 52.5948 13.8523 52.1994 14.0682C51.7982 14.2872 51.4258 14.5559 51.0336 14.7901C50.6798 15.0012 50.9788 15.5712 51.3356 15.3582C51.7276 15.1242 52.0996 14.8536 52.5014 14.6362C52.8974 14.422 52.8037 14.4846 53.2093 14.291C53.5826 14.1128 53.281 13.5446 52.9073 13.7229ZM56.6442 15.0567C56.5701 14.9882 56.5311 14.885 56.5502 14.7821C56.579 14.6269 56.7285 14.5306 56.8844 14.5669C57.0682 14.6096 57.2631 14.6539 57.4303 14.7409C57.5611 14.8089 57.6853 14.8886 57.8091 14.9686C57.9093 15.0334 58.0399 15.0986 58.101 15.2062C58.1598 15.3097 58.2094 15.569 58.0896 15.651C57.9829 15.7241 57.8151 15.5583 57.7228 15.5108C57.4211 15.3554 57.1116 15.2078 56.7804 15.1294C56.7281 15.117 56.6815 15.0914 56.6442 15.0567Z" fill="#261A1A"/>
<path d="M49.8984 24.2397C50.6567 25.9039 51.9042 27.3625 53.9612 27.8968C53.9003 27.4641 53.8622 26.9214 53.8405 26.3818C53.8473 26.3851 53.8577 26.3892 53.8686 26.3915L53.817 26.3676C53.817 26.3676 53.8029 26.3628 53.7993 26.362C52.2857 25.9144 50.8142 24.9365 49.8984 24.2397Z" fill="#B1493F"/>
<path d="M58.0752 21.2917C58.0752 21.2917 54.9941 20.8924 54.2798 20.7835C53.5655 20.6746 55.8802 23.3834 56.5544 23.1519C57.7024 22.7576 58.0752 21.2917 58.0752 21.2917Z" fill="white"/>
<path d="M53.1977 17.4307C53.0624 17.4147 52.8822 17.4219 52.7492 17.4536C52.5623 17.4982 52.5136 17.7123 52.3474 17.7713C52.1175 17.8528 51.8468 17.6395 51.9069 17.4088C51.9751 17.1475 52.2703 16.9658 52.5231 16.9211C52.6739 16.8944 52.8221 16.9157 52.9728 16.9264C53.1289 16.9376 53.2794 16.9896 53.4263 17.0405C53.5187 17.0727 53.6145 17.1066 53.6849 17.1744C53.7759 17.2619 53.8709 17.5934 53.6636 17.5879C53.5977 17.5862 53.5392 17.5477 53.4808 17.5169C53.3939 17.471 53.2973 17.4425 53.1977 17.4307ZM58.845 18.285C58.8955 18.285 58.9306 18.236 58.9487 18.1895C59.0367 17.9631 58.9234 17.6968 58.7394 17.5332C58.5377 17.3539 58.1999 17.189 57.9247 17.2276C57.8587 17.2368 57.7895 17.2596 57.7518 17.3137C57.6667 17.4356 57.6586 17.5738 57.7307 17.7073C57.8774 17.9785 58.1297 17.8544 58.37 17.8811C58.4721 17.8925 58.5393 17.9301 58.6177 17.9969C58.6515 18.0258 58.8334 18.285 58.845 18.285Z" fill="#1A1A1A"/>
<path d="M57.2049 45.4142C57.1897 45.4142 57.1744 45.4129 57.1586 45.4103C57.011 45.3851 56.9121 45.2447 56.9376 45.0971C57.7346 40.4702 57.7901 37.7824 57.7905 37.7558C57.7931 37.6078 57.9141 37.4895 58.0615 37.4895C58.063 37.4895 58.0645 37.4895 58.0663 37.4895C58.2158 37.4921 58.3351 37.6156 58.3325 37.7651C58.3321 37.7921 58.2768 40.5163 57.4717 45.1891C57.4492 45.3212 57.3346 45.4142 57.2049 45.4142Z" fill="#3B8780"/>
<path d="M29.0726 82.6254C27.3746 82.5632 24.8369 85.0088 24.4677 85.8393C24.0986 86.6698 24.6984 90.2689 24.6984 92.0684C24.6984 93.8679 24.523 97.4206 26.71 99.2663C28.8972 101.112 32.0809 100.189 32.5424 99.2663C33.0038 98.3435 33.5698 87.3302 33.5406 86.6541C33.5114 85.9778 29.0726 82.6254 29.0726 82.6254Z" fill="#B0C0D1"/>
<path d="M33.8121 70.0604C36.7421 74.4899 47.9082 72.6443 51.9687 69.8759C56.0291 67.1075 59.2128 63.9695 60.0434 61.2704C60.8739 58.5713 59.5163 55.1127 59.199 55.304C58.8817 55.4954 46.0627 57.9714 41.8176 58.9865C37.5725 60.0017 34.1527 62.6943 33.4661 65.1233C32.7794 67.5523 33.8121 70.0604 33.8121 70.0604Z" fill="#3A6C8E"/>
<path d="M37.8978 66.3226C39.0439 69.1887 39.6974 69.9908 39.4205 70.7522C39.1437 71.5135 31.0459 79.8882 29.6617 81.6183C28.2775 83.3486 29.4541 85.9325 30.2846 86.6246C31.1151 87.3168 33.1915 86.9476 34.5758 86.1864C35.96 85.4251 47.2415 76.2199 48.6949 73.313C50.1484 70.4061 47.6568 63.9694 47.2415 63.5542C46.8261 63.1389 37.0779 64.2721 37.8978 66.3226ZM57.2046 55.5949C62.3401 54.6829 64.3823 55.318 65.5016 58.0864C66.6207 60.855 66.251 71.9979 65.5016 72.8977C64.7521 73.7974 59.3258 77.0504 59.2013 76.4275C59.0768 75.8046 58.5155 63.4158 58.2387 63.1389C57.9618 62.8621 49.9072 63.36 49.4794 62.8159C47.938 60.8562 56.5068 55.7188 57.2046 55.5949Z" fill="#E18F6F"/>
<path d="M33.8163 70.0607C35.8234 67.0153 38.9663 65.394 41.1528 64.593C43.3393 63.7921 47.6446 63.9857 49.1859 63.4698C50.7272 62.9539 50.9808 62.7244 52.7804 60.3712C54.5799 58.018 59.2032 55.3045 59.2032 55.3045C59.2032 55.3045 55.9641 54.8343 55.2028 54.765C54.4416 54.6958 34.7622 52.0196 33.8164 52.5503C32.8705 53.0809 31.8785 59.9241 32.0169 63.4698C32.1552 67.0155 33.8163 70.0607 33.8163 70.0607Z" fill="#7599C3"/>
<path d="M58.9357 82.102C58.4742 79.8411 59.1448 75.8651 59.1329 75.6876C59.1209 75.51 60.8659 73.4273 63.5037 70.7975C66.1415 68.1679 71.1729 67.5824 71.837 71.5893C72.5012 75.5961 64.2419 82.748 64.0574 82.8403C63.8729 82.9325 58.9357 82.102 58.9357 82.102Z" fill="#B0C0D1"/>
<path d="M71.8396 71.5892C71.7317 70.9376 71.499 70.4192 71.189 69.9997C69.7992 68.5453 67.83 68.7323 66.8399 69.1132C65.9786 69.4447 65.2885 69.7303 64.4406 71.0973C63.5927 72.4642 63.0217 74.0733 62.3816 74.8693C61.7413 75.6653 59.7755 78.001 59.2012 78.8663C59.0544 79.0873 58.9093 79.4126 58.7803 79.7879C58.7658 80.6141 58.8018 81.4332 58.9382 82.102C58.9382 82.102 63.8754 82.9325 64.0599 82.8402C64.2444 82.7479 72.5038 75.596 71.8396 71.5892Z" fill="white"/>
<path d="M62.5818 75.5503C60.1757 78.4514 58.6137 80.0259 58.9367 82.1022C59.2597 84.1786 62.0743 84.6399 63.3663 84.4093C64.6583 84.1786 70.2413 78.6878 71.6257 76.0116C73.0099 73.3354 71.8436 69.6884 69.2263 69.4135C66.4808 69.1251 64.8097 71.4647 64.0931 72.9664C63.3765 74.468 62.9024 75.1636 62.5818 75.5503Z" fill="#493333"/>
<path d="M32.6281 98.9894C31.8947 99.8182 30.6276 99.8561 29.5895 99.4755C28.5514 99.0948 26.9249 98.195 26.198 95.7381C25.4714 93.2812 25.8519 90.2704 25.3706 84.7021C24.917 85.156 24.5842 85.579 24.4677 85.8409C24.0986 86.6714 24.6984 90.2704 24.6984 92.07C24.6984 93.8695 24.5228 97.4222 26.71 99.2679C28.8972 101.113 32.0809 100.191 32.5423 99.2679C32.5707 99.2116 32.5992 99.1164 32.6281 98.9894Z" fill="white"/>
</g>
<defs>
<clipPath id="clip0_201_2377">
<rect width="100" height="100" fill="white" transform="translate(0.800781 0.484131)"/>
</clipPath>
</defs>
</svg>
