<svg width="101" height="101" viewBox="0 0 101 101" fill="none" xmlns="http://www.w3.org/2000/svg">
<g clip-path="url(#clip0_201_2022)">
<path d="M42.9149 93.9841C50.9991 93.9841 57.5525 93.2349 57.5525 92.3107C57.5525 91.3864 50.9991 90.6372 42.9149 90.6372C34.8308 90.6372 28.2773 91.3864 28.2773 92.3107C28.2773 93.2349 34.8308 93.9841 42.9149 93.9841Z" fill="#437263"/>
<path d="M8.39453 58.2922C13.3039 61.8299 19.2804 60.7709 21.6347 59.9046C23.989 59.0382 25.7218 61.861 27.7433 60.2089C29.7648 58.5569 29.6057 51.5298 30.8885 47.3904C32.1714 43.2511 38.1396 37.379 38.7172 36.4164C39.2947 35.4538 35.8406 27.145 35.8406 27.145C35.8406 27.145 30.6697 37.0902 29.399 37.7641C28.1284 38.4379 16.9619 42.062 15.1329 43.908C13.3039 45.7539 8.39453 58.2922 8.39453 58.2922Z" fill="#EB8F01"/>
<path d="M48.4262 45.3486C47.9348 42.4144 36.5095 44.9649 36.5095 44.9649C34.6224 47.6307 32.4237 55.7955 32.4264 55.856C32.2635 56.2514 32.0224 56.709 31.8031 56.6246C31.4278 56.4801 29.2732 52.8614 28.5999 52.7034L24.9418 56.5993C24.894 58.2128 29.5867 65.7392 30.9802 66.389C32.3738 67.0388 34.3518 66.2989 35.8318 64.3857C36.8527 63.0661 38.3152 61.1874 39.0446 60.0539L40.9759 57.0036C40.9759 57.0036 41.0118 57.244 41.0628 57.591C41.0641 57.5997 41.208 58.6338 41.3884 59.9391C41.4114 60.1313 41.4259 60.2742 41.4259 60.331C41.4259 60.3541 41.4356 60.3728 41.4505 60.3892C41.5814 61.3374 41.724 62.3757 41.8424 63.2486C42.1497 65.517 42.3296 67.2916 41.8424 68.5732C41.355 69.8547 40.0555 73.2118 40.2476 74.0125C40.44 74.8132 43.8999 77.1105 45.0731 76.4066C46.2463 75.7026 49.3147 68.9342 49.4591 67.1834C49.6034 65.4327 48.7012 46.9907 48.4262 45.3486Z" fill="#6C4E4E"/>
<path d="M24.8125 56.8822C25.7029 58.4465 29.4794 53.4402 28.9036 52.5503C28.3279 51.6604 25.5044 53.9341 25.4322 54.1507C25.36 54.3673 24.8125 56.8822 24.8125 56.8822Z" fill="#6C4E4E"/>
<path d="M32.7244 30.1153C32.7244 30.1153 34.5713 30.211 36.514 30.4109C37.1795 30.4809 37.8556 30.5619 38.4724 30.6549C40.8926 31.022 42.0595 31.1516 42.4916 29.9198C42.7301 29.2435 41.5843 27.7272 39.9529 26.5676C39.1872 26.0249 38.3135 25.5597 37.4271 25.2979C36.7617 25.102 36.0888 25.0184 35.4466 25.1017C34.5438 25.2181 33.7537 25.338 33.0826 25.4516C31.2778 25.7562 29.1016 24.1606 29.1016 24.1606C29.1016 24.1606 33.2968 27.6193 32.7244 30.1153Z" fill="#E6916B"/>
<path d="M36.4883 30.3853C37.1539 30.4553 37.83 30.5362 38.4467 30.6293C40.8669 30.9964 42.0338 31.126 42.4659 29.8942C42.7044 29.2178 41.5586 27.7016 39.9272 26.542C40.1334 27.0965 39.9853 28.1028 38.7275 28.9869C37.8498 29.6042 37.2126 30.0858 36.4883 30.3853Z" fill="white"/>
<path d="M23.9215 23.7916C23.6205 23.5854 23.3789 23.2496 23.3275 22.8803C23.2779 22.5245 23.4113 22.2808 23.6259 22.1149C23.3881 21.9379 23.2239 21.6972 23.2659 21.3463C23.2882 21.1602 23.3641 20.9963 23.4738 20.8584C23.3919 20.742 23.3397 20.6028 23.3318 20.4331C23.3257 20.3048 23.3932 20.2024 23.4891 20.1431C23.3782 19.8809 23.3494 19.5962 23.4521 19.3301C23.5491 19.0787 23.7017 18.9389 23.8729 18.8854C23.8583 18.865 23.8427 18.8472 23.8287 18.8249C23.4654 18.5664 23.1334 18.2477 23.0715 17.7976C23.0103 17.3522 23.1725 17.0189 23.4398 16.7916C23.1061 16.5072 22.9296 16.1113 23.1717 15.5934C23.3573 15.1967 23.7767 14.9582 24.2282 14.8849C24.2116 14.8528 24.1957 14.8191 24.1808 14.783C24.0452 14.4535 24.0337 14.062 24.3148 13.8482C24.513 13.6975 24.7211 13.6826 24.9175 13.754C24.9358 13.2394 25.2557 12.7102 25.7279 12.4829C26.0484 12.3285 26.4295 12.3298 26.7744 12.4474C26.9871 12.0288 27.4451 11.8196 27.9222 11.8245C28.2729 11.7683 28.5911 11.8892 28.844 12.1163C28.8493 12.1108 28.8537 12.1044 28.859 12.0989C28.8672 12.0906 28.8763 12.0834 28.8846 12.0753C29.1242 11.6323 29.6214 11.3144 30.0944 11.2644C30.4304 11.2289 30.8028 11.3346 31.0627 11.5327C31.4501 11.1566 32.0135 10.9914 32.5767 11.2162C33.0684 11.4124 33.5684 12.0994 33.608 12.7011C33.8185 12.6484 34.0317 12.604 34.2818 12.7348C34.6855 12.9462 34.8331 13.4115 34.8318 13.839C34.8317 13.8678 34.8297 13.8958 34.8287 13.9242C35.0842 14.0763 35.2962 14.3023 35.3902 14.5777C35.552 15.052 35.3814 15.5779 35.0665 15.9284C35.3876 16.145 35.6289 16.4228 35.5894 16.9067C35.5526 17.3583 35.2486 17.6933 34.8895 17.9078C34.8617 18.0366 34.8292 18.1648 34.8025 18.2907C34.7123 18.7141 34.6148 19.1354 34.5087 19.5536C34.0853 21.222 33.5242 22.8482 32.754 24.3538C32.6232 24.6094 32.4865 24.8614 32.3436 25.1092C32.1124 25.5104 31.8518 25.9474 31.397 26.0052C30.9098 26.3206 30.4 26.5067 29.8618 26.6603C29.859 26.6667 29.8566 26.6733 29.8537 26.6796C29.5309 27.3744 29.0437 27.3974 28.6468 27.0976C28.5666 27.1935 28.4623 27.2601 28.3288 27.2784C28.0974 27.31 27.8992 27.1745 27.7579 26.9885C27.4814 27.0295 27.177 26.9114 26.9633 26.6928C26.7881 26.5136 26.6953 26.2933 26.6528 26.0587C26.4513 26.0789 26.2407 26.0315 26.0489 25.8919C25.7267 25.6576 25.6699 25.3768 25.7052 25.0838C25.4343 25.1257 25.1542 25.098 24.9483 24.9929C24.4797 24.7538 24.3621 24.3527 24.4677 23.9895C24.2883 23.9667 24.1131 23.9228 23.9215 23.7916Z" fill="#1A1A1A"/>
<path d="M32.5586 25.9513C33.4645 26.9153 36.5817 27.2164 37.3783 25.3438C36.7129 25.1478 36.04 25.0643 35.3978 25.1475C34.495 25.2639 33.705 25.3839 33.0338 25.4974L32.5586 25.9513Z" fill="#1A1A1A"/>
<path d="M37.4684 24.2477C35.922 26.0105 32.003 27.1217 30.0318 25.1019C30.0318 25.1019 26.9373 26.1297 27.3505 23.3998C27.5346 22.1827 28.9834 22.456 29.7813 22.5459C29.7497 22.051 29.5167 21.5719 29.1471 21.2414C29.8205 21.0473 30.3386 20.4422 30.4985 19.7598C30.6583 19.0775 30.483 18.3393 30.0954 17.7554C30.4066 17.5957 30.7237 17.4317 30.9678 17.1813C31.212 16.9308 31.3748 16.5742 31.3058 16.2314C31.9974 16.3183 32.7217 16.1014 33.2517 15.6487C33.7579 15.9903 40.0068 21.3542 37.4684 24.2477Z" fill="#E6916B"/>
<path d="M32.1567 20.253C32.055 20.2493 31.9662 20.2778 31.9046 20.3494C31.8963 20.3565 31.8885 20.3637 31.8812 20.3711C31.878 20.3735 31.8746 20.3751 31.8718 20.3782C31.8691 20.3812 31.8681 20.3843 31.8656 20.3872C31.6493 20.6307 31.885 21.0162 32.1672 21.092C32.2222 21.1223 32.2817 21.1405 32.3437 21.1297C32.4051 21.1191 32.4617 21.0864 32.5059 21.0414C32.5116 21.0396 32.5173 21.0385 32.5229 21.035C32.6537 20.9535 32.6722 20.8187 32.627 20.6846C32.6065 20.4587 32.3957 20.2617 32.1567 20.253ZM35.2847 17.7424C35.0655 17.7024 34.8564 17.8557 34.8336 18.0786C34.8316 18.0983 34.832 18.1182 34.8338 18.138C34.8369 18.2031 34.8627 18.2658 34.9116 18.315C34.9171 18.3209 34.9229 18.3264 34.9289 18.3319C34.9308 18.3334 34.9322 18.3354 34.9342 18.337C35.0296 18.413 35.1286 18.4881 35.2509 18.5133C35.4868 18.5619 35.6694 18.348 35.6519 18.1239C35.6365 17.9289 35.4719 17.7766 35.2847 17.7424Z" fill="#1A1A1A"/>
<path d="M35.7368 20.5361C35.6499 20.4668 35.5153 20.4808 35.4463 20.5691C35.3784 20.6559 35.3106 20.7429 35.2427 20.8297C35.1741 20.9176 35.1879 21.0501 35.2757 21.1202C35.3626 21.1894 35.4972 21.1755 35.5662 21.0872C35.634 21.0004 35.7019 20.9135 35.7698 20.8266C35.8385 20.7386 35.8246 20.6062 35.7368 20.5361Z" fill="#D15C48"/>
<path d="M31.4509 18.6702C31.325 18.9301 31.1597 19.1679 31.048 19.4349C30.9346 19.7058 30.8556 19.9903 30.7528 20.2652C30.66 20.5131 31.0388 20.6792 31.1324 20.4291C31.2351 20.1543 31.3132 19.8692 31.4275 19.5988C31.5402 19.3323 31.7046 19.094 31.8304 18.8341C31.9463 18.5947 31.5668 18.4307 31.4509 18.6702ZM34.8542 16.645C34.6043 16.5793 34.3913 16.6316 34.1502 16.7039C33.897 16.7798 33.9856 17.183 34.2414 17.1063C34.401 17.0586 34.5586 16.9936 34.7259 17.0376C34.9824 17.1049 35.1118 16.7126 34.8542 16.645Z" fill="#802B2E"/>
<path d="M35.6519 21.9976C35.0933 22.386 33.4801 23.0935 33.6907 23.2566C34.4455 23.8413 35.6428 24.2221 36.1414 23.5651C36.4653 23.1382 36.3266 22.4126 36.1671 21.9748C36.1433 21.9095 36.1105 21.839 36.0433 21.815C35.9544 21.7833 35.8574 21.8478 35.7789 21.9062C35.737 21.9374 35.6947 21.9678 35.6519 21.9976Z" fill="white"/>
<path d="M25.0286 46.9975C24.0669 45.4066 23.1996 44.1096 21.9204 44.5856C21.0478 44.9102 17.135 49.2838 16.1807 51.3534C15.2491 53.3738 17.4386 55.4888 18.0499 55.2035C18.6612 54.9183 21.8797 51.1467 22.0019 51.3097C22.0702 51.4009 23.3016 54.2661 24.7879 56.9127C25.6072 55.4697 27.4909 53.237 28.879 52.5808C27.2186 49.9576 25.4657 47.7206 25.0286 46.9975Z" fill="#AA6449"/>
<path d="M30.824 59.6769C30.7894 59.6769 30.7542 59.6693 30.7209 59.6534C30.6016 59.5963 30.5512 59.4533 30.6083 59.334C30.6129 59.3245 31.0761 58.3503 31.8764 56.1731C31.9221 56.049 32.0596 55.9855 32.1838 56.031C32.3079 56.0766 32.3714 56.2142 32.3259 56.3382C31.5163 58.5408 31.0592 59.5011 31.0402 59.5408C30.999 59.6266 30.9133 59.6769 30.824 59.6769ZM22.1783 51.8278C22.1212 51.8278 22.0639 51.8074 22.0181 51.7661C20.9513 50.8047 20.7332 49.1055 20.7244 49.0337C20.7085 48.9024 20.8017 48.7833 20.933 48.7672C21.0643 48.7499 21.1836 48.8443 21.1997 48.9754C21.2017 48.9914 21.4067 50.5703 22.3387 51.4104C22.4369 51.4989 22.4448 51.6502 22.3562 51.7486C22.309 51.8011 22.2438 51.8278 22.1783 51.8278Z" fill="#4A3333"/>
<path d="M36.3034 27.3671C38.8641 24.439 40.6504 22.6942 41.411 21.1728C42.1717 19.6514 45.2689 10.5228 45.2146 10.0881C45.1602 9.65343 43.8018 6.39325 43.2041 5.19781C42.6064 4.00237 42.6912 2.4791 43.0715 2.37043C43.4519 2.26176 43.8154 3.37753 44.1414 4.40993C44.4674 5.44234 44.9443 5.25218 45.2153 4.54579C45.4863 3.8394 46.1383 -0.290152 46.4643 -0.67053C46.7903 -1.05091 47.1163 -0.507495 47.062 0.198896C47.0076 0.905286 46.3556 3.18737 46.736 3.24174C47.1164 3.2961 47.7684 -0.268722 48.3117 -0.795608C48.8551 -1.32256 49.3441 -0.833507 49.1268 -0.0727509C48.9095 0.687944 48.0944 3.67648 48.2574 3.83946C48.4205 4.00249 49.4528 1.99199 49.9962 0.850981C50.5395 -0.290093 51.1915 0.524969 51.0286 0.959652C50.8655 1.39434 49.6158 4.11117 49.7245 4.38287C49.8332 4.65458 50.8656 2.64408 51.3003 2.26376C51.7349 1.88338 51.898 2.42674 51.6806 3.02446C51.4633 3.62218 49.9419 7.15401 49.1812 8.18641C48.4205 9.21881 48.3118 9.65349 48.3118 10.4142C48.3118 11.1749 47.225 18.5647 46.573 21.0642C45.921 23.5637 40.9764 31.2251 40.27 31.3338C39.5636 31.4424 36.078 27.6249 36.3034 27.3671Z" fill="#E8936B"/>
<path d="M40.4163 28.7246C44.2883 28.3524 46.7849 28.3095 48.3824 27.7251C49.9798 27.1407 58.4975 22.6273 58.7564 22.2738C59.0152 21.9204 60.2648 18.617 60.6506 17.3373C61.0363 16.0577 62.1435 15.008 62.4946 15.19C62.8458 15.372 62.3444 16.433 61.873 17.4076C61.4015 18.3822 61.8788 18.5712 62.5607 18.2435C63.2426 17.9157 66.551 15.3598 67.0492 15.307C67.5474 15.2541 67.4116 15.873 66.8872 16.3495C66.3629 16.826 64.3224 18.0382 64.5617 18.3388C64.801 18.6393 67.7218 16.4942 68.4786 16.4839C69.2355 16.4736 69.2555 17.1649 68.5753 17.569C67.8952 17.9731 65.2513 19.5872 65.2579 19.8176C65.2646 20.0481 67.3953 19.2944 68.5736 18.8375C69.752 18.3805 69.6668 19.4208 69.2499 19.6251C68.833 19.8294 66.0594 20.9476 65.952 21.2198C65.8446 21.492 67.9753 20.7383 68.5524 20.76C69.1296 20.7818 68.8753 21.2888 68.307 21.5744C67.7387 21.8599 64.2082 23.3843 62.9463 23.6131C61.6846 23.8419 61.3071 24.0834 60.785 24.6367C60.2629 25.1899 54.4008 29.8186 52.2111 31.1889C50.0214 32.5592 41.1669 34.7376 40.5786 34.3319C39.9904 33.926 40.0754 28.7573 40.4163 28.7246Z" fill="#E8936B"/>
<path d="M45.807 28.2583C45.9646 28.6189 46.595 32.821 46.4848 33.2639C46.3745 33.7069 43.0327 34.1925 42.6177 33.8624C42.2028 33.5324 42.3653 28.3112 42.6578 28.305C42.9503 28.2989 45.807 28.2583 45.807 28.2583Z" fill="#D7C0B1"/>
<path d="M39.4804 23.7896C40.1119 24.0578 43.6981 26.8561 43.8339 27.1006C43.9698 27.3452 43.2634 28.5405 43.2634 28.5405C43.2634 28.5405 45.4505 30.6477 46.6527 34.661C47.8549 38.6743 49.2676 43.3473 48.045 45.2219C46.8225 47.0965 35.8084 45.6295 35.6101 45.2219C35.4119 44.8144 35.8074 40.893 34.7493 38.131C33.6912 35.3689 31.9394 31.6921 31.8417 30.7956C31.7441 29.899 35.4563 27.5354 37.0234 26.1498C38.5905 24.7643 39.4804 23.7896 39.4804 23.7896Z" fill="#EFE4D9"/>
<path d="M39.343 32.9836C39.278 32.9836 39.2139 32.9539 39.1723 32.8975C39.1028 32.8033 39.1226 32.6705 39.2168 32.601C40.1054 31.9441 42.5284 29.4634 43.3669 28.2701C43.4342 28.1744 43.5667 28.1513 43.6623 28.2185C43.7581 28.2859 43.7812 28.4181 43.7139 28.514C42.9206 29.6429 40.4609 32.2088 39.469 32.942C39.431 32.9701 39.3869 32.9836 39.343 32.9836ZM34.2012 33.7557C34.1295 33.7557 34.0598 33.7195 34.0199 33.6538C34.0027 33.6254 32.3216 30.7884 34.326 28.0326C34.3948 27.9376 34.5276 27.9167 34.6223 27.9858C34.717 28.0548 34.7379 28.1874 34.6691 28.2821C32.8337 30.8054 34.3184 33.3276 34.3825 33.4338C34.443 33.534 34.4111 33.6643 34.3109 33.7248C34.2765 33.7457 34.2386 33.7557 34.2012 33.7557Z" fill="#D7C0B1"/>
<path d="M40.3175 58.9161C40.2806 58.9161 40.2434 58.9076 40.2083 58.8897C40.0907 58.8293 40.0442 58.685 40.1045 58.5673C41.2138 56.4051 41.9936 54.4554 42.3597 52.9291C42.582 52.0025 42.7669 49.9283 42.7687 49.9074C42.7803 49.7756 42.8957 49.6781 43.0283 49.6899C43.16 49.7016 43.2574 49.8178 43.2457 49.9494C43.238 50.0361 43.0558 52.0798 42.8254 53.0407C42.4452 54.6258 41.6731 56.5589 40.5306 58.7859C40.4882 58.8685 40.4044 58.9161 40.3175 58.9161Z" fill="#4A3333"/>
<path d="M43.7513 92.7829C44.7292 93.1496 46.3865 91.2899 45.1775 89.4412C44.1464 87.8646 41.9886 84.9618 41.7835 84.1678C41.5374 83.2146 43.5753 79.926 45.2073 76.5857C43.851 76.2738 41.1893 75.0921 40.0812 73.8181C39.8309 74.6829 37.7469 80.1955 36.4233 82.3856C35.4048 84.0706 34.8044 85.5546 35.0515 86.2361C35.4999 87.4722 42.7732 92.4161 43.7513 92.7829Z" fill="#AA6449"/>
<path d="M40.4464 85.3516C40.3895 85.3516 40.3324 85.3315 40.2867 85.2905C40.1882 85.2022 40.1799 85.0509 40.2681 84.9524C40.919 84.2256 41.7146 83.3685 41.7225 83.36C41.8125 83.263 41.9639 83.2572 42.0609 83.3473C42.1578 83.4373 42.1634 83.5887 42.0734 83.6856C42.0654 83.6943 41.2726 84.5483 40.6247 85.2719C40.5775 85.3247 40.5121 85.3516 40.4464 85.3516ZM43.716 68.4001C43.6819 68.4001 43.6473 68.3927 43.6144 68.3773C43.5793 68.3607 42.7483 67.9648 41.9736 67.1739C41.8811 67.0794 41.8826 66.9279 41.9771 66.8353C42.0715 66.7429 42.2232 66.7447 42.3156 66.8387C43.0274 67.5654 43.8106 67.9403 43.8185 67.9441C43.9379 68.0006 43.9891 68.1432 43.9327 68.2627C43.8919 68.3493 43.8058 68.4001 43.716 68.4001Z" fill="#4A3333"/>
<path d="M28.8751 81.3954C28.7441 81.3954 28.6111 81.3651 28.4866 81.3007C28.0704 81.0859 27.9072 80.574 28.122 80.1578L59.5657 19.2544C59.7807 18.8381 60.2922 18.6745 60.7087 18.8898C61.125 19.1047 61.2883 19.6165 61.0734 20.0327L29.6296 80.9361C29.4789 81.228 29.1823 81.3954 28.8751 81.3954Z" fill="#AA6449"/>
<path d="M70.3321 34.8843C68.7893 30.1323 73.8124 21.436 73.8124 21.436C78.0202 21.7779 80.6501 23.4873 81.8336 24.4341C83.017 25.3809 85.1735 27.064 87.0408 28.4316C88.908 29.7991 90.4859 29.9043 92.0901 28.8787C93.6944 27.853 94.6411 26.5118 94.5096 25.6965C94.3781 24.8812 93.9574 23.9344 92.0113 22.0935C90.0651 20.2526 87.593 16.1762 86.4358 13.4411C85.2787 10.7059 84.9631 8.7598 82.8066 6.86626C80.6501 4.97273 78.9144 4.76235 78.9144 4.76235C78.9144 4.76235 78.6776 3.63151 76.7841 3.05292C74.8906 2.47433 72.4185 1.92207 71.498 1.47498C70.5776 1.02789 70.2357 0.870117 70.2357 0.870117C70.2357 0.870117 70.2094 1.55393 70.7354 2.84254C71.2614 4.13121 73.076 5.91953 73.076 5.91953C73.076 5.91953 72.2081 5.26205 67.711 8.02344C63.2139 10.7848 59.0061 17.2807 57.5859 22.3301L70.3321 34.8843Z" fill="#B25A3C"/>
<path d="M92.0354 22.1024C90.0893 20.2615 87.6172 16.1851 86.4601 13.45C85.303 10.7149 84.9874 8.76871 82.8309 6.87523C81.8495 6.01355 80.9578 5.50283 80.2746 5.19946C80.0762 5.74633 79.9238 6.81626 79.298 7.52986C76.9837 10.1688 73.1265 8.2954 72.5647 5.86838C71.9057 5.92583 70.5136 6.32637 67.7352 8.03241C64.2161 10.1933 60.8741 14.641 58.9065 18.8928C58.3597 20.0745 55.9958 24.2985 55.6758 25.33C62.6441 36.9492 66.3219 38.989 71.7327 38.989C72.3128 38.989 73.8366 21.4449 73.8366 21.4449C78.0445 21.7869 80.6743 23.4962 81.8578 24.443C83.0338 25.3838 85.1704 27.0515 87.0295 28.4143C88.6696 26.9751 91.0997 24.2349 92.3549 22.4103C92.2528 22.3103 92.1472 22.2082 92.0354 22.1024ZM83.1463 13.0292C83.0792 13.9448 82.5175 15.2069 81.5947 15.3172C80.5734 15.4393 79.6085 14.0909 79.4645 12.924C79.3751 12.2 79.5294 10.9602 80.4376 10.5308C81.2039 10.1684 82.014 10.6162 82.0944 10.6624C83.247 11.3227 83.1557 12.9026 83.1463 13.0292Z" fill="#FFB94A"/>
<path d="M71.5416 8.19024C72.8814 10.3013 75.6834 10.9169 77.8007 10.5045C78.1407 10.4384 80.5464 9.93182 81.7982 7.82203C81.9649 7.54112 82.2371 7.07992 82.3807 6.50624C81.5752 5.86475 80.8461 5.4564 80.2676 5.19946C80.0692 5.74633 79.9168 6.81626 79.291 7.52986C76.9768 10.1688 73.1196 8.2954 72.5577 5.86838C72.2139 5.89835 71.6677 6.02397 70.832 6.37741C70.89 7.1628 71.3036 7.81531 71.5416 8.19024ZM81.9033 15.9397C83.5818 15.5961 83.9631 13.4719 83.9897 13.3098C84.0323 13.0497 84.3081 11.1768 82.9378 10.224C81.8497 9.46759 80.2691 9.6704 79.4839 10.5045C79.1064 10.9055 78.9998 11.3598 78.8877 11.837C78.7492 12.4272 78.4559 13.677 79.2208 14.7474C79.7418 15.4765 80.7866 16.1683 81.9033 15.9397ZM80.4306 10.5309C81.197 10.1685 82.0071 10.6163 82.0875 10.6624C83.24 11.3229 83.1487 12.9027 83.1394 13.0293C83.0722 13.9449 82.5105 15.207 81.5878 15.3173C80.5664 15.4395 79.6015 14.091 79.4575 12.9241C79.3682 12.2 79.5224 10.9602 80.4306 10.5309ZM92.0284 22.1025C91.7124 21.8036 91.3825 21.445 91.0467 21.0435C90.733 21.6016 90.4406 22.0573 90.2138 22.3918C89.8092 22.9885 89.0673 24.0696 87.8468 25.2321C87.633 25.4358 87.2233 25.8132 85.3819 27.1895C85.9321 27.6066 86.4886 28.0232 87.0224 28.4144C88.6625 26.9753 91.0925 24.235 92.3478 22.4104C92.2458 22.3103 92.1403 22.2083 92.0284 22.1025ZM88.712 17.7384C88.4604 17.3111 87.8203 16.2199 87.5936 15.7986C87.2819 16.5063 86.8929 17.2679 86.4004 18.0523C85.1622 20.0248 83.9044 21.138 83.4812 21.4975C82.3869 22.4275 81.3072 23.0492 80.4263 23.4648C81.0269 23.8205 81.503 24.1649 81.8506 24.443C81.9468 24.52 82.0516 24.6034 82.1599 24.6895C82.7246 24.4142 83.3027 24.0746 83.8756 23.654C86.5726 21.6748 88.6565 17.9053 88.712 17.7384Z" fill="#EFE4D9"/>
<path d="M80.893 12.2281C80.7063 12.484 80.7357 12.8241 80.9106 13.0522C81.0567 13.2426 81.3314 13.3905 81.5417 13.3152C81.9435 13.1713 82.0577 12.2319 81.6995 12.0001C81.4938 11.8671 81.0989 11.946 80.893 12.2281Z" fill="#1A1A1A"/>
<path d="M75.3339 8.09519C75.2941 8.09519 75.2541 8.08175 75.2212 8.05397C75.1357 7.9821 73.1176 6.28157 72.3838 5.47699C72.3186 5.40561 72.3237 5.29482 72.3951 5.22962C72.4666 5.16429 72.5774 5.16938 72.6425 5.24094C73.3608 6.02845 75.426 7.76858 75.4468 7.78613C75.5207 7.84831 75.5302 7.9588 75.4679 8.03284C75.4334 8.07401 75.3839 8.09519 75.3339 8.09519ZM77.6132 8.44318C77.5347 8.44318 77.4632 8.38985 77.4433 8.31024C77.4396 8.29516 77.0538 6.79387 75.8044 5.81087C75.4443 5.52772 74.9561 5.21242 74.3908 4.84736C72.914 3.89372 71.0759 2.70676 70.1697 1.20523C70.1197 1.12253 70.1464 1.01483 70.2293 0.964942C70.312 0.914874 70.4197 0.941633 70.4697 1.02439C71.3339 2.45655 73.1342 3.61911 74.5808 4.55325C75.1534 4.92304 75.6481 5.24233 76.0209 5.53583C77.3676 6.59518 77.7669 8.15997 77.7833 8.22614C77.8065 8.31998 77.7493 8.41473 77.6555 8.43804C77.6413 8.44137 77.6271 8.44318 77.6132 8.44318ZM78.4724 8.09519C78.4563 8.09519 78.4399 8.09289 78.4236 8.08811C78.3308 8.06123 78.2773 7.96418 78.3042 7.87125C78.3085 7.8563 78.7336 6.36476 78.6605 4.60072C78.6565 4.50403 78.7316 4.42243 78.8282 4.41849C78.923 4.41359 79.0064 4.48956 79.0104 4.58625C79.086 6.40986 78.6587 7.906 78.6405 7.96872C78.6183 8.04549 78.5484 8.09519 78.4724 8.09519Z" fill="#873F2B"/>
<path d="M74.3135 21.8835C74.2943 21.8835 74.275 21.8817 74.2554 21.878C70.4319 21.1513 68.9661 19.9318 68.9055 19.8802C68.7756 19.7696 68.76 19.5746 68.8707 19.4446C68.9812 19.3147 69.1762 19.299 69.3063 19.4098C69.3193 19.4206 70.7323 20.5793 74.3708 21.2706C74.5384 21.3026 74.6485 21.4643 74.6167 21.6319C74.5886 21.7802 74.459 21.8835 74.3135 21.8835Z" fill="#EB8F01"/>
<path d="M24.7744 16.8393C27.4407 15.2928 28.6389 13.0293 28.6208 12.8361C28.6026 12.643 25.0511 8.39673 25.0511 8.39673L25.6022 11.9716L21.3731 9.99325L23.6142 13.6896L20.6914 13.3955L24.7744 16.8393Z" fill="#FFB94A"/>
<path d="M28.8996 12.8406C28.6771 12.7753 28.1853 12.846 27.9526 12.9377C27.4855 13.0354 27.083 13.3378 26.965 13.7924C26.6029 13.7514 26.2304 13.832 25.9504 14.0516C25.5382 14.3749 25.3392 14.9604 25.4317 15.4671C25.2246 15.4394 25.0245 15.4987 24.8632 15.6883C24.6346 15.9575 24.7299 16.3373 24.9331 16.6301C24.9553 16.6622 24.9781 16.6917 25.0012 16.7195C24.9287 16.7482 24.862 16.7874 24.7943 16.8249L24.9289 17.0578C27.4045 15.622 28.7535 13.2818 28.8996 12.8406Z" fill="#802B2E"/>
<path d="M38.1412 25.169C38.225 25.3095 35.6586 27.0086 33.9378 29.8732C32.0147 33.0747 33.2487 34.6029 31.822 37.3457C30.2399 40.3874 26.7857 40.2796 22.9097 41.9663C12.5948 46.455 10.0585 58.9676 8.39807 58.2829C7.3279 57.8416 8.01782 52.494 10.203 48.2475C10.7412 47.2016 13.6157 41.8583 19.6608 39.1506C23.5229 37.4208 25.2691 38.2941 27.5303 36.0462C29.6426 33.9462 28.8865 32.4208 31.1762 29.6206C34.0225 26.1398 38.0444 25.0069 38.1412 25.169Z" fill="#FFB94A"/>
</g>
<defs>
<clipPath id="clip0_201_2022">
<rect width="100" height="100" fill="white" transform="translate(0.199219 0.484131)"/>
</clipPath>
</defs>
</svg>
